# This file uses centimeters as units for non-parametric coordinates.

mtllib point_dot.mtl
g default
v 0.860419 0.125893 -0.331890
v 0.928253 0.196056 -0.353773
v 0.958907 0.195985 -0.259455
v 0.891174 0.125893 -0.237237
v 0.715748 0.125893 -0.581531
v 0.773499 0.196056 -0.623304
v 0.831799 0.195985 -0.543075
v 0.774247 0.125893 -0.501013
v 0.501013 0.125893 -0.774247
v 0.543029 0.196056 -0.831822
v 0.623269 0.195985 -0.773535
v 0.581531 0.125893 -0.715747
v 0.237237 0.125893 -0.891174
v 0.259404 0.196056 -0.958915
v 0.353728 0.195985 -0.928276
v 0.331890 0.125893 -0.860419
v -0.049762 0.125893 -0.920867
v -0.049613 0.196056 -0.992143
v 0.049563 0.195985 -0.992151
v 0.049762 0.125893 -0.920867
v -0.331890 0.125893 -0.860419
v -0.353773 0.196056 -0.928253
v -0.259455 0.195985 -0.958907
v -0.237237 0.125893 -0.891174
v -0.581531 0.125893 -0.715747
v -0.623304 0.196056 -0.773499
v -0.543074 0.195985 -0.831799
v -0.501013 0.125893 -0.774247
v -0.774247 0.125893 -0.501013
v -0.831822 0.196056 -0.543029
v -0.773534 0.195985 -0.623268
v -0.715747 0.125893 -0.581531
v -0.891174 0.125893 -0.237237
v -0.958915 0.196056 -0.259404
v -0.928275 0.195985 -0.353728
v -0.860419 0.125893 -0.331890
v -0.920867 0.125893 0.049762
v -0.992142 0.196056 0.049613
v -0.992150 0.195985 -0.049563
v -0.920867 0.125893 -0.049762
v -0.860419 0.125893 0.331890
v -0.928252 0.196056 0.353773
v -0.958907 0.195985 0.259454
v -0.891174 0.125893 0.237237
v -0.715747 0.125893 0.581531
v -0.773498 0.196056 0.623304
v -0.831799 0.195985 0.543074
v -0.774246 0.125893 0.501013
v -0.501013 0.125893 0.774246
v -0.543029 0.196056 0.831822
v -0.623268 0.195985 0.773534
v -0.581531 0.125893 0.715747
v -0.237237 0.125893 0.891174
v -0.259404 0.196056 0.958915
v -0.353728 0.195985 0.928275
v -0.331890 0.125893 0.860419
v 0.049762 0.125893 0.920867
v 0.049613 0.196056 0.992142
v -0.049563 0.195985 0.992150
v -0.049762 0.125893 0.920867
v 0.331890 0.125893 0.860419
v 0.353773 0.196056 0.928252
v 0.259454 0.195985 0.958907
v 0.237236 0.125893 0.891174
v 0.581530 0.125893 0.715747
v 0.623304 0.196056 0.773498
v 0.543074 0.195985 0.831798
v 0.501013 0.125893 0.774246
v 0.774246 0.125893 0.501013
v 0.831821 0.196056 0.543029
v 0.773534 0.195985 0.623268
v 0.715747 0.125893 0.581530
v 0.891174 0.125893 0.237237
v 0.958914 0.196056 0.259404
v 0.928275 0.195985 0.353728
v 0.860419 0.125893 0.331890
v 0.920867 0.125893 -0.049762
v 0.992142 0.196056 -0.049613
v 0.992150 0.195985 0.049563
v 0.920866 0.125893 0.049762
v 0.891174 0.406573 -0.237237
v 0.958915 0.336410 -0.259404
v 0.928276 0.336481 -0.353728
v 0.860419 0.406573 -0.331890
v 0.774247 0.406573 -0.501013
v 0.831822 0.336410 -0.543029
v 0.773535 0.336481 -0.623268
v 0.715748 0.406573 -0.581531
v 0.581531 0.406573 -0.715747
v 0.623304 0.336410 -0.773499
v 0.543074 0.336481 -0.831799
v 0.501013 0.406573 -0.774247
v 0.331890 0.406573 -0.860419
v 0.353773 0.336410 -0.928253
v 0.259455 0.336481 -0.958907
v 0.237237 0.406573 -0.891174
v 0.049762 0.406573 -0.920867
v 0.049613 0.336410 -0.992143
v -0.049563 0.336481 -0.992151
v -0.049762 0.406573 -0.920867
v -0.237237 0.406573 -0.891174
v -0.259404 0.336410 -0.958915
v -0.353728 0.336481 -0.928276
v -0.331890 0.406573 -0.860419
v -0.501013 0.406573 -0.774247
v -0.543029 0.336410 -0.831822
v -0.623268 0.336481 -0.773534
v -0.581531 0.406573 -0.715747
v -0.715747 0.406573 -0.581531
v -0.773498 0.336410 -0.623304
v -0.831799 0.336481 -0.543074
v -0.774247 0.406573 -0.501013
v -0.860419 0.406573 -0.331890
v -0.928252 0.336410 -0.353773
v -0.958907 0.336481 -0.259454
v -0.891174 0.406573 -0.237237
v -0.920867 0.406573 -0.049762
v -0.992142 0.336410 -0.049613
v -0.992150 0.336481 0.049563
v -0.920867 0.406573 0.049762
v -0.891174 0.406573 0.237237
v -0.958915 0.336410 0.259404
v -0.928275 0.336481 0.353728
v -0.860419 0.406573 0.331890
v -0.774246 0.406573 0.501013
v -0.831822 0.336410 0.543029
v -0.773534 0.336481 0.623268
v -0.715747 0.406573 0.581531
v -0.581531 0.406573 0.715747
v -0.623304 0.336410 0.773498
v -0.543074 0.336481 0.831799
v -0.501013 0.406573 0.774246
v -0.331890 0.406573 0.860419
v -0.353773 0.336410 0.928252
v -0.259454 0.336481 0.958907
v -0.237237 0.406573 0.891174
v -0.049762 0.406573 0.920867
v -0.049613 0.336410 0.992142
v 0.049563 0.336481 0.992150
v 0.049762 0.406573 0.920867
v 0.237236 0.406573 0.891174
v 0.259404 0.336410 0.958914
v 0.353728 0.336481 0.928275
v 0.331890 0.406573 0.860419
v 0.501013 0.406573 0.774246
v 0.543029 0.336410 0.831822
v 0.623268 0.336481 0.773534
v 0.581530 0.406573 0.715747
v 0.715747 0.406573 0.581530
v 0.773498 0.336410 0.623304
v 0.831798 0.336481 0.543074
v 0.774246 0.406573 0.501013
v 0.860419 0.406573 0.331890
v 0.928252 0.336410 0.353773
v 0.958906 0.336481 0.259454
v 0.891174 0.406573 0.237237
v 0.920866 0.406573 0.049762
v 0.992142 0.336410 0.049613
v 0.992150 0.336481 -0.049563
v 0.920867 0.406573 -0.049762
v 0.313558 0.125893 0.049663
v 0.282865 0.125893 0.144127
v 0.224483 0.125893 0.224483
v 0.144127 0.125893 0.282865
v 0.049663 0.125893 0.313558
v -0.049663 0.125893 0.313558
v -0.144127 0.125893 0.282865
v -0.224483 0.125893 0.224483
v -0.282865 0.125893 0.144127
v -0.313558 0.125893 0.049663
v -0.313558 0.125893 -0.049663
v -0.282865 0.125893 -0.144127
v -0.224483 0.125893 -0.224483
v -0.144127 0.125893 -0.282865
v -0.049663 0.125893 -0.313558
v 0.049663 0.125893 -0.313558
v 0.144127 0.125893 -0.282865
v 0.224483 0.125893 -0.224483
v 0.282865 0.125893 -0.144127
v 0.313558 0.125893 -0.049663
v 0.313558 0.406573 -0.049663
v 0.282865 0.406573 -0.144127
v 0.224483 0.406573 -0.224483
v 0.144127 0.406573 -0.282865
v 0.049663 0.406573 -0.313558
v -0.049663 0.406573 -0.313558
v -0.144127 0.406573 -0.282865
v -0.224483 0.406573 -0.224483
v -0.282865 0.406573 -0.144127
v -0.313558 0.406573 -0.049663
v -0.313558 0.406573 0.049663
v -0.282865 0.406573 0.144127
v -0.224483 0.406573 0.224483
v -0.144127 0.406573 0.282865
v -0.049663 0.406573 0.313558
v 0.049663 0.406573 0.313558
v 0.144127 0.406573 0.282865
v 0.224483 0.406573 0.224483
v 0.282865 0.406573 0.144127
v 0.313558 0.406573 0.049663
vt 0.634440 0.103947
vt 0.377458 0.312500
vt 0.377007 0.406475
vt 0.377228 0.621442
vt 0.622542 0.312500
vt 0.622995 0.406381
vt 0.614958 0.312500
vt 0.611836 0.064940
vt 0.620976 0.077521
vt 0.544198 0.129489
vt 0.389958 0.312500
vt 0.389507 0.406476
vt 0.578283 0.034829
vt 0.590864 0.043969
vt 0.535075 0.116933
vt 0.402458 0.312500
vt 0.402007 0.406475
vt 0.537068 0.016559
vt 0.551858 0.021364
vt 0.522520 0.107811
vt 0.414958 0.312500
vt 0.414507 0.406476
vt 0.492225 0.011919
vt 0.507775 0.011919
vt 0.507760 0.103015
vt 0.427458 0.312500
vt 0.427007 0.406476
vt 0.448142 0.021364
vt 0.462932 0.016559
vt 0.492240 0.103015
vt 0.439958 0.312500
vt 0.439507 0.406476
vt 0.409136 0.043969
vt 0.421717 0.034829
vt 0.477480 0.107811
vt 0.452458 0.312500
vt 0.452007 0.406476
vt 0.379024 0.077521
vt 0.388164 0.064940
vt 0.464925 0.116933
vt 0.464958 0.312500
vt 0.464507 0.406476
vt 0.360754 0.118737
vt 0.365560 0.103947
vt 0.455802 0.129489
vt 0.477458 0.312500
vt 0.477007 0.406476
vt 0.356115 0.163580
vt 0.356115 0.148029
vt 0.451007 0.144249
vt 0.489958 0.312500
vt 0.489507 0.406476
vt 0.365560 0.207663
vt 0.360754 0.192873
vt 0.451007 0.159769
vt 0.502458 0.312500
vt 0.502007 0.406476
vt 0.388164 0.246669
vt 0.379024 0.234088
vt 0.455802 0.174529
vt 0.514958 0.312500
vt 0.514507 0.406476
vt 0.421717 0.276781
vt 0.409136 0.267640
vt 0.464925 0.187084
vt 0.527458 0.312500
vt 0.527007 0.406476
vt 0.462932 0.295051
vt 0.448142 0.290245
vt 0.477480 0.196207
vt 0.539958 0.312500
vt 0.539507 0.406476
vt 0.507775 0.299690
vt 0.492225 0.299690
vt 0.492240 0.201002
vt 0.552458 0.312500
vt 0.552007 0.406476
vt 0.551858 0.290245
vt 0.537068 0.295051
vt 0.507760 0.201002
vt 0.564958 0.312500
vt 0.564507 0.406476
vt 0.590864 0.267640
vt 0.578283 0.276781
vt 0.522520 0.196207
vt 0.577458 0.312500
vt 0.577007 0.406476
vt 0.620976 0.234088
vt 0.611835 0.246669
vt 0.535075 0.187084
vt 0.589958 0.312500
vt 0.589507 0.406476
vt 0.639246 0.192873
vt 0.634440 0.207663
vt 0.544198 0.174529
vt 0.602458 0.312500
vt 0.602007 0.406476
vt 0.643885 0.163580
vt 0.548993 0.159769
vt 0.548993 0.144249
vt 0.614507 0.406476
vt 0.639246 0.880373
vt 0.622541 0.688440
vt 0.614958 0.688440
vt 0.614505 0.594559
vt 0.377005 0.594559
vt 0.385493 0.594464
vt 0.385042 0.688440
vt 0.544198 0.862029
vt 0.389958 0.688440
vt 0.389505 0.594559
vt 0.397993 0.594464
vt 0.397542 0.688440
vt 0.535075 0.874584
vt 0.402458 0.688440
vt 0.402005 0.594559
vt 0.410493 0.594464
vt 0.410042 0.688440
vt 0.522520 0.883707
vt 0.414958 0.688440
vt 0.414505 0.594559
vt 0.422993 0.594464
vt 0.422542 0.688440
vt 0.507760 0.888502
vt 0.427458 0.688440
vt 0.427005 0.594559
vt 0.435493 0.594464
vt 0.435042 0.688440
vt 0.492240 0.888502
vt 0.439958 0.688440
vt 0.439505 0.594559
vt 0.447993 0.594464
vt 0.447542 0.688440
vt 0.477480 0.883707
vt 0.452458 0.688440
vt 0.452005 0.594559
vt 0.460493 0.594464
vt 0.460042 0.688440
vt 0.464925 0.874584
vt 0.464958 0.688440
vt 0.464505 0.594559
vt 0.472993 0.594464
vt 0.472542 0.688440
vt 0.455802 0.862029
vt 0.477458 0.688440
vt 0.477005 0.594559
vt 0.485493 0.594464
vt 0.485042 0.688440
vt 0.451007 0.847269
vt 0.489958 0.688440
vt 0.489505 0.594559
vt 0.497993 0.594464
vt 0.497542 0.688440
vt 0.451007 0.831749
vt 0.502458 0.688440
vt 0.502005 0.594559
vt 0.510493 0.594464
vt 0.510042 0.688440
vt 0.455802 0.816989
vt 0.514958 0.688440
vt 0.514505 0.594559
vt 0.522993 0.594464
vt 0.522542 0.688440
vt 0.464925 0.804433
vt 0.527458 0.688440
vt 0.527005 0.594559
vt 0.535493 0.594464
vt 0.535042 0.688440
vt 0.477480 0.795311
vt 0.539958 0.688440
vt 0.539505 0.594559
vt 0.547993 0.594464
vt 0.547542 0.688440
vt 0.492240 0.790515
vt 0.552458 0.688440
vt 0.552005 0.594559
vt 0.560493 0.594464
vt 0.560042 0.688440
vt 0.507760 0.790515
vt 0.564958 0.688440
vt 0.564505 0.594559
vt 0.572993 0.594464
vt 0.572542 0.688440
vt 0.522520 0.795311
vt 0.577458 0.688440
vt 0.577005 0.594559
vt 0.585493 0.594464
vt 0.585042 0.688440
vt 0.535075 0.804433
vt 0.589958 0.688440
vt 0.589505 0.594559
vt 0.597993 0.594464
vt 0.597542 0.688440
vt 0.544198 0.816989
vt 0.602458 0.688440
vt 0.602005 0.594559
vt 0.610493 0.594464
vt 0.610042 0.688440
vt 0.643885 0.851080
vt 0.548993 0.847269
vt 0.548993 0.831749
vt 0.385495 0.406381
vt 0.397995 0.406381
vt 0.410495 0.406381
vt 0.422995 0.406381
vt 0.435495 0.406381
vt 0.447995 0.406381
vt 0.460495 0.406381
vt 0.472995 0.406381
vt 0.485495 0.406381
vt 0.497995 0.406381
vt 0.510495 0.406381
vt 0.522995 0.406381
vt 0.535495 0.406381
vt 0.547995 0.406381
vt 0.560495 0.406381
vt 0.572995 0.406381
vt 0.585495 0.406381
vt 0.597995 0.406381
vt 0.610495 0.406381
vt 0.622993 0.594464
vt 0.639246 0.118736
vt 0.643885 0.148029
vt 0.634440 0.895163
vt 0.620976 0.921588
vt 0.611835 0.934169
vt 0.590864 0.955140
vt 0.578283 0.964281
vt 0.551858 0.977745
vt 0.537068 0.982551
vt 0.507775 0.987190
vt 0.492225 0.987190
vt 0.462932 0.982551
vt 0.448142 0.977745
vt 0.421717 0.964281
vt 0.409136 0.955140
vt 0.388164 0.934169
vt 0.379024 0.921588
vt 0.365560 0.895163
vt 0.360754 0.880373
vt 0.356115 0.851080
vt 0.356115 0.835529
vt 0.360754 0.806237
vt 0.365560 0.791447
vt 0.379024 0.765021
vt 0.388164 0.752441
vt 0.409136 0.731469
vt 0.421717 0.722329
vt 0.448142 0.708864
vt 0.462932 0.704059
vt 0.492225 0.699419
vt 0.507775 0.699419
vt 0.537068 0.704059
vt 0.551858 0.708864
vt 0.578283 0.722329
vt 0.590864 0.731469
vt 0.611836 0.752440
vt 0.620976 0.765021
vt 0.634441 0.791447
vt 0.639246 0.806236
vt 0.643885 0.835529
vt 0.375000 0.393956
vt 0.375000 0.312500
vt 0.387500 0.312500
vt 0.385042 0.312500
vt 0.400000 0.312500
vt 0.397542 0.312500
vt 0.412500 0.312500
vt 0.410042 0.312500
vt 0.425000 0.312500
vt 0.422542 0.312500
vt 0.437500 0.312500
vt 0.435042 0.312500
vt 0.450000 0.312500
vt 0.447542 0.312500
vt 0.462500 0.312500
vt 0.460042 0.312500
vt 0.475000 0.312500
vt 0.472542 0.312500
vt 0.487500 0.312500
vt 0.485042 0.312500
vt 0.500000 0.312500
vt 0.497542 0.312500
vt 0.512500 0.312500
vt 0.510042 0.312500
vt 0.525000 0.312500
vt 0.522542 0.312500
vt 0.537500 0.312500
vt 0.535042 0.312500
vt 0.550000 0.312500
vt 0.547542 0.312500
vt 0.562500 0.312500
vt 0.560042 0.312500
vt 0.575000 0.312500
vt 0.572542 0.312500
vt 0.587500 0.312500
vt 0.585042 0.312500
vt 0.600000 0.312500
vt 0.597542 0.312500
vt 0.612500 0.312500
vt 0.610042 0.312500
vt 0.375000 0.688440
vt 0.377458 0.688440
vt 0.387500 0.688440
vt 0.400000 0.688440
vt 0.412500 0.688440
vt 0.425000 0.688440
vt 0.437500 0.688440
vt 0.450000 0.688440
vt 0.462500 0.688440
vt 0.475000 0.688440
vt 0.487500 0.688440
vt 0.500000 0.688440
vt 0.512500 0.688440
vt 0.525000 0.688440
vt 0.537500 0.688440
vt 0.550000 0.688440
vt 0.562500 0.688440
vt 0.575000 0.688440
vt 0.587500 0.688440
vt 0.600000 0.688440
vt 0.612500 0.688440
vn 0.000000 -1.000000 0.000000
vn 0.000000 -1.000000 0.000000
vn 0.000000 -1.000000 0.000000
vn 0.000000 -1.000000 0.000000
vn 0.642556 -0.710816 -0.286115
vn 0.642319 -0.710781 -0.286735
vn 0.609500 -0.710794 -0.351113
vn 0.609086 -0.710835 -0.351749
vn 0.978660 0.000000 -0.205485
vn 0.912581 -0.000000 -0.408895
vn 0.912535 -0.000000 -0.408999
vn 0.978637 0.000000 -0.205596
vn 0.688169 -0.710795 -0.145581
vn 0.687972 -0.710836 -0.146314
vn 0.699521 -0.710817 -0.073550
vn 0.699487 -0.710781 -0.074213
vn 0.000000 -1.000000 0.000000
vn 0.000000 -1.000000 0.000000
vn 0.000000 -1.000000 0.000000
vn 0.522692 -0.710817 -0.470672
vn 0.522275 -0.710781 -0.471189
vn 0.471169 -0.710795 -0.522274
vn 0.470578 -0.710836 -0.522751
vn 0.867262 0.000000 -0.497852
vn 0.741561 0.000000 -0.670886
vn 0.741484 0.000000 -0.670970
vn 0.867205 0.000000 -0.497951
vn 0.000000 -1.000000 0.000000
vn 0.000000 -1.000000 0.000000
vn 0.000000 -1.000000 0.000000
vn 0.351664 -0.710817 -0.609157
vn 0.351108 -0.710781 -0.609520
vn 0.286717 -0.710795 -0.642312
vn 0.286008 -0.710835 -0.642583
vn 0.670970 0.000000 -0.741484
vn 0.497950 0.000000 -0.867206
vn 0.497852 0.000000 -0.867262
vn 0.670886 0.000000 -0.741561
vn 0.000000 -1.000000 0.000000
vn 0.000000 -1.000000 0.000000
vn 0.000000 -1.000000 0.000000
vn 0.146213 -0.710817 -0.688013
vn 0.145572 -0.710781 -0.688186
vn 0.074199 -0.710795 -0.699475
vn 0.073441 -0.710836 -0.699513
vn 0.408999 -0.000000 -0.912535
vn 0.205598 -0.000000 -0.978637
vn 0.205487 -0.000000 -0.978660
vn 0.408896 -0.000000 -0.912581
vn 0.000000 -1.000000 -0.000000
vn 0.000000 -1.000000 -0.000000
vn 0.000000 -1.000000 0.000000
vn -0.073551 -0.710817 -0.699521
vn -0.074214 -0.710781 -0.699488
vn -0.145583 -0.710795 -0.688169
vn -0.146315 -0.710836 -0.687971
vn 0.106992 -0.000000 -0.994260
vn -0.106880 0.000000 -0.994272
vn -0.106993 0.000000 -0.994260
vn 0.106880 -0.000000 -0.994272
vn 0.000000 -1.000000 0.000000
vn 0.000000 -1.000000 0.000000
vn 0.000000 -1.000000 0.000000
vn -0.286115 -0.710817 -0.642556
vn -0.286736 -0.710781 -0.642319
vn -0.351113 -0.710795 -0.609500
vn -0.351749 -0.710836 -0.609086
vn -0.205487 0.000000 -0.978660
vn -0.408896 0.000000 -0.912581
vn -0.408999 0.000000 -0.912535
vn -0.205598 0.000000 -0.978637
vn 0.000000 -1.000000 0.000000
vn 0.000000 -1.000000 0.000000
vn 0.000000 -1.000000 0.000000
vn -0.470672 -0.710817 -0.522692
vn -0.471189 -0.710781 -0.522275
vn -0.522274 -0.710795 -0.471169
vn -0.522751 -0.710836 -0.470579
vn -0.497853 0.000000 -0.867262
vn -0.670886 0.000000 -0.741560
vn -0.670970 0.000000 -0.741484
vn -0.497951 0.000000 -0.867205
vn 0.000000 -1.000000 0.000000
vn 0.000000 -1.000000 0.000000
vn 0.000000 -1.000000 0.000000
vn -0.609157 -0.710817 -0.351664
vn -0.609520 -0.710781 -0.351108
vn -0.642312 -0.710795 -0.286717
vn -0.642583 -0.710836 -0.286008
vn -0.741484 0.000000 -0.670970
vn -0.867205 0.000000 -0.497951
vn -0.867262 0.000000 -0.497852
vn -0.741560 0.000000 -0.670886
vn 0.000000 -1.000000 0.000000
vn 0.000000 -1.000000 0.000000
vn 0.000000 -1.000000 0.000000
vn -0.688013 -0.710816 -0.146213
vn -0.688186 -0.710781 -0.145572
vn -0.699475 -0.710795 -0.074199
vn -0.699514 -0.710835 -0.073441
vn -0.912535 -0.000000 -0.408999
vn -0.978637 -0.000000 -0.205598
vn -0.978660 -0.000000 -0.205487
vn -0.912581 -0.000000 -0.408896
vn 0.000000 -1.000000 0.000000
vn 0.000000 -1.000000 0.000000
vn 0.000000 -1.000000 0.000000
vn -0.699521 -0.710817 0.073551
vn -0.699488 -0.710781 0.074214
vn -0.688169 -0.710795 0.145582
vn -0.687972 -0.710835 0.146315
vn -0.994260 -0.000000 -0.106993
vn -0.994272 0.000000 0.106880
vn -0.994260 0.000000 0.106993
vn -0.994272 -0.000000 -0.106880
vn 0.000000 -1.000000 0.000000
vn 0.000000 -1.000000 0.000000
vn 0.000000 -1.000000 0.000000
vn -0.642555 -0.710817 0.286115
vn -0.642318 -0.710781 0.286735
vn -0.609500 -0.710795 0.351113
vn -0.609086 -0.710836 0.351749
vn -0.978660 0.000000 0.205487
vn -0.912581 0.000000 0.408896
vn -0.912535 0.000000 0.408999
vn -0.978637 0.000000 0.205598
vn 0.000000 -1.000000 -0.000000
vn 0.000000 -1.000000 -0.000000
vn 0.000000 -1.000000 -0.000000
vn -0.522692 -0.710817 0.470672
vn -0.522275 -0.710781 0.471189
vn -0.471169 -0.710795 0.522274
vn -0.470578 -0.710836 0.522751
vn -0.867262 0.000000 0.497853
vn -0.741561 -0.000000 0.670886
vn -0.741484 -0.000000 0.670970
vn -0.867205 0.000000 0.497951
vn 0.000000 -1.000000 0.000000
vn 0.000000 -1.000000 0.000000
vn 0.000000 -1.000000 0.000000
vn -0.351664 -0.710817 0.609157
vn -0.351108 -0.710781 0.609519
vn -0.286717 -0.710795 0.642312
vn -0.286008 -0.710835 0.642583
vn -0.670970 -0.000000 0.741484
vn -0.497951 -0.000000 0.867206
vn -0.497852 -0.000000 0.867262
vn -0.670886 -0.000000 0.741560
vn 0.000000 -1.000000 -0.000000
vn 0.000000 -1.000000 -0.000000
vn 0.000000 -1.000000 0.000000
vn -0.146213 -0.710817 0.688013
vn -0.145572 -0.710781 0.688186
vn -0.074199 -0.710795 0.699475
vn -0.073441 -0.710836 0.699514
vn -0.408999 -0.000000 0.912535
vn -0.205598 0.000000 0.978637
vn -0.205487 0.000000 0.978660
vn -0.408896 -0.000000 0.912581
vn 0.000000 -1.000000 0.000000
vn 0.000000 -1.000000 0.000000
vn 0.000000 -1.000000 0.000000
vn 0.073551 -0.710817 0.699521
vn 0.074214 -0.710781 0.699488
vn 0.145583 -0.710795 0.688169
vn 0.146315 -0.710835 0.687971
vn -0.106992 -0.000000 0.994260
vn 0.106880 0.000000 0.994272
vn 0.106993 0.000000 0.994260
vn -0.106880 -0.000000 0.994272
vn 0.000000 -1.000000 -0.000000
vn 0.000000 -1.000000 0.000000
vn 0.000000 -1.000000 0.000000
vn 0.286115 -0.710817 0.642556
vn 0.286735 -0.710781 0.642319
vn 0.351113 -0.710795 0.609500
vn 0.351749 -0.710835 0.609086
vn 0.205487 0.000000 0.978660
vn 0.408896 0.000000 0.912581
vn 0.408999 0.000000 0.912535
vn 0.205598 0.000000 0.978637
vn 0.000000 -1.000000 0.000000
vn 0.000000 -1.000000 0.000000
vn 0.000000 -1.000000 0.000000
vn 0.470672 -0.710817 0.522692
vn 0.471189 -0.710781 0.522275
vn 0.522275 -0.710794 0.471169
vn 0.522751 -0.710835 0.470579
vn 0.497852 0.000000 0.867262
vn 0.670886 0.000000 0.741561
vn 0.670970 0.000000 0.741484
vn 0.497951 0.000000 0.867205
vn 0.000000 -1.000000 0.000000
vn 0.000000 -1.000000 0.000000
vn 0.000000 -1.000000 0.000000
vn 0.609157 -0.710816 0.351664
vn 0.609520 -0.710781 0.351108
vn 0.642312 -0.710794 0.286717
vn 0.642583 -0.710835 0.286008
vn 0.741484 -0.000000 0.670970
vn 0.867205 -0.000000 0.497951
vn 0.867262 -0.000000 0.497853
vn 0.741560 -0.000000 0.670886
vn 0.000000 -1.000000 0.000000
vn 0.000000 -1.000000 0.000000
vn 0.000000 -1.000000 0.000000
vn 0.688013 -0.710817 0.146213
vn 0.688186 -0.710781 0.145572
vn 0.699475 -0.710795 0.074199
vn 0.699513 -0.710836 0.073441
vn 0.912535 -0.000000 0.408999
vn 0.978637 -0.000000 0.205598
vn 0.978660 -0.000000 0.205487
vn 0.912581 -0.000000 0.408896
vn 0.000000 -1.000000 0.000000
vn 0.000000 -1.000000 0.000000
vn 0.994260 -0.000000 0.106993
vn 0.994272 -0.000000 -0.106878
vn 0.994260 -0.000000 -0.106991
vn 0.994272 -0.000000 0.106880
vn 0.000000 1.000000 0.000000
vn 0.000000 1.000000 0.000000
vn 0.000000 1.000000 -0.000000
vn 0.000000 1.000000 -0.000000
vn 0.688013 0.710817 -0.146212
vn 0.688186 0.710781 -0.145570
vn 0.699475 0.710795 -0.074198
vn 0.699514 0.710836 -0.073440
vn 0.642312 0.710795 -0.286717
vn 0.642583 0.710835 -0.286008
vn 0.609157 0.710817 -0.351664
vn 0.609519 0.710781 -0.351108
vn 0.000000 1.000000 0.000000
vn 0.000000 1.000000 0.000000
vn 0.000000 1.000000 -0.000000
vn 0.522274 0.710794 -0.471170
vn 0.522751 0.710835 -0.470579
vn 0.470672 0.710816 -0.522692
vn 0.471189 0.710781 -0.522276
vn 0.000000 1.000000 0.000000
vn 0.000000 1.000000 0.000000
vn 0.000000 1.000000 -0.000000
vn 0.351113 0.710795 -0.609500
vn 0.351749 0.710835 -0.609086
vn 0.286115 0.710817 -0.642556
vn 0.286735 0.710781 -0.642319
vn 0.000000 1.000000 -0.000000
vn 0.000000 1.000000 -0.000000
vn 0.000000 1.000000 -0.000000
vn 0.145582 0.710795 -0.688169
vn 0.146315 0.710836 -0.687972
vn 0.073551 0.710817 -0.699521
vn 0.074214 0.710781 -0.699488
vn 0.000000 1.000000 0.000000
vn 0.000000 1.000000 0.000000
vn 0.000000 1.000000 -0.000000
vn -0.074199 0.710795 -0.699475
vn -0.073441 0.710836 -0.699514
vn -0.146213 0.710817 -0.688013
vn -0.145572 0.710781 -0.688186
vn 0.000000 1.000000 0.000000
vn 0.000000 1.000000 0.000000
vn 0.000000 1.000000 -0.000000
vn -0.286717 0.710795 -0.642312
vn -0.286008 0.710836 -0.642582
vn -0.351664 0.710817 -0.609157
vn -0.351108 0.710781 -0.609519
vn 0.000000 1.000000 0.000000
vn 0.000000 1.000000 0.000000
vn 0.000000 1.000000 -0.000000
vn -0.471170 0.710794 -0.522274
vn -0.470579 0.710835 -0.522751
vn -0.522693 0.710817 -0.470672
vn -0.522276 0.710781 -0.471189
vn 0.000000 1.000000 0.000000
vn 0.000000 1.000000 0.000000
vn 0.000000 1.000000 -0.000000
vn -0.609501 0.710794 -0.351113
vn -0.609086 0.710835 -0.351749
vn -0.642556 0.710817 -0.286115
vn -0.642319 0.710781 -0.286735
vn 0.000000 1.000000 0.000000
vn 0.000000 1.000000 0.000000
vn 0.000000 1.000000 -0.000000
vn -0.688169 0.710795 -0.145582
vn -0.687972 0.710835 -0.146315
vn -0.699521 0.710817 -0.073551
vn -0.699488 0.710781 -0.074214
vn 0.000000 1.000000 0.000000
vn 0.000000 1.000000 0.000000
vn 0.000000 1.000000 0.000000
vn -0.699476 0.710794 0.074199
vn -0.699514 0.710835 0.073441
vn -0.688013 0.710816 0.146213
vn -0.688186 0.710780 0.145572
vn 0.000000 1.000000 0.000000
vn 0.000000 1.000000 0.000000
vn 0.000000 1.000000 -0.000000
vn -0.642311 0.710795 0.286717
vn -0.642582 0.710836 0.286008
vn -0.609156 0.710817 0.351664
vn -0.609519 0.710781 0.351108
vn 0.000000 1.000000 -0.000000
vn 0.000000 1.000000 -0.000000
vn 0.000000 1.000000 -0.000000
vn -0.522274 0.710795 0.471169
vn -0.522751 0.710835 0.470579
vn -0.470672 0.710817 0.522692
vn -0.471189 0.710781 0.522275
vn 0.000000 1.000000 0.000000
vn 0.000000 1.000000 0.000000
vn 0.000000 1.000000 -0.000000
vn -0.351113 0.710795 0.609500
vn -0.351749 0.710835 0.609086
vn -0.286115 0.710817 0.642556
vn -0.286735 0.710781 0.642319
vn 0.000000 1.000000 -0.000000
vn 0.000000 1.000000 -0.000000
vn 0.000000 1.000000 -0.000000
vn -0.145582 0.710795 0.688169
vn -0.146315 0.710835 0.687972
vn -0.073551 0.710817 0.699521
vn -0.074214 0.710781 0.699488
vn 0.000000 1.000000 0.000000
vn 0.000000 1.000000 0.000000
vn 0.000000 1.000000 -0.000000
vn 0.074199 0.710795 0.699475
vn 0.073441 0.710836 0.699514
vn 0.146213 0.710817 0.688013
vn 0.145572 0.710781 0.688186
vn 0.000000 1.000000 0.000000
vn 0.000000 1.000000 -0.000000
vn 0.000000 1.000000 -0.000000
vn 0.286717 0.710795 0.642312
vn 0.286008 0.710835 0.642583
vn 0.351664 0.710817 0.609157
vn 0.351108 0.710781 0.609520
vn 0.000000 1.000000 0.000000
vn 0.000000 1.000000 0.000000
vn 0.000000 1.000000 -0.000000
vn 0.471170 0.710795 0.522274
vn 0.470579 0.710835 0.522751
vn 0.522692 0.710816 0.470672
vn 0.522276 0.710781 0.471189
vn 0.000000 1.000000 0.000000
vn 0.000000 1.000000 0.000000
vn 0.000000 1.000000 -0.000000
vn 0.609500 0.710794 0.351113
vn 0.609086 0.710835 0.351749
vn 0.642556 0.710817 0.286115
vn 0.642319 0.710781 0.286735
vn 0.000000 1.000000 0.000000
vn 0.000000 1.000000 -0.000000
vn 0.000000 1.000000 -0.000000
vn 0.688169 0.710795 0.145582
vn 0.687971 0.710836 0.146315
vn 0.699521 0.710817 0.073551
vn 0.699487 0.710781 0.074214
vn 0.000000 1.000000 -0.000000
vn 0.000000 1.000000 0.000000
s 1
g pCylinder1
usemtl initialShadingGroup
f 1/1/1 4/222/2 180/100/3 179/10/4
s 2
f 2/3/5 1/2/6 8/265/7 7/202/8
s 3
f 3/262/9 2/3/10 83/106/11 82/4/12
s 2
f 4/5/13 3/6/14 78/101/15 77/7/16
s 1
f 5/8/17 8/9/18 179/10/4 178/15/19
s 2
f 6/12/20 5/11/21 12/267/22 11/203/23
s 3
f 7/202/24 6/12/25 87/111/26 86/107/27
s 1
f 9/13/28 12/14/29 178/15/19 177/20/30
s 2
f 10/17/31 9/16/32 16/269/33 15/204/34
s 3
f 11/203/35 10/17/36 91/116/37 90/112/38
s 1
f 13/18/39 16/19/40 177/20/30 176/25/41
s 2
f 14/22/42 13/21/43 20/271/44 19/205/45
s 3
f 15/204/46 14/22/47 95/121/48 94/117/49
s 1
f 17/23/50 20/24/51 176/25/41 175/30/52
s 2
f 18/27/53 17/26/54 24/273/55 23/206/56
s 3
f 19/205/57 18/27/58 99/126/59 98/122/60
s 1
f 21/28/61 24/29/62 175/30/52 174/35/63
s 2
f 22/32/64 21/31/65 28/275/66 27/207/67
s 3
f 23/206/68 22/32/69 103/131/70 102/127/71
s 1
f 25/33/72 28/34/73 174/35/63 173/40/74
s 2
f 26/37/75 25/36/76 32/277/77 31/208/78
s 3
f 27/207/79 26/37/80 107/136/81 106/132/82
s 1
f 29/38/83 32/39/84 173/40/74 172/45/85
s 2
f 30/42/86 29/41/87 36/279/88 35/209/89
s 3
f 31/208/90 30/42/91 111/141/92 110/137/93
s 1
f 33/43/94 36/44/95 172/45/85 171/50/96
s 2
f 34/47/97 33/46/98 40/281/99 39/210/100
s 3
f 35/209/101 34/47/102 115/146/103 114/142/104
s 1
f 37/48/105 40/49/106 171/50/96 170/55/107
s 2
f 38/52/108 37/51/109 44/283/110 43/211/111
s 3
f 39/210/112 38/52/113 119/151/114 118/147/115
s 1
f 41/53/116 44/54/117 170/55/107 169/60/118
s 2
f 42/57/119 41/56/120 48/285/121 47/212/122
s 3
f 43/211/123 42/57/124 123/156/125 122/152/126
s 1
f 45/58/127 48/59/128 169/60/118 168/65/129
s 2
f 46/62/130 45/61/131 52/287/132 51/213/133
s 3
f 47/212/134 46/62/135 127/161/136 126/157/137
s 1
f 49/63/138 52/64/139 168/65/129 167/70/140
s 2
f 50/67/141 49/66/142 56/289/143 55/214/144
s 3
f 51/213/145 50/67/146 131/166/147 130/162/148
s 1
f 53/68/149 56/69/150 167/70/140 166/75/151
s 2
f 54/72/152 53/71/153 60/291/154 59/215/155
s 3
f 55/214/156 54/72/157 135/171/158 134/167/159
s 1
f 57/73/160 60/74/161 166/75/151 165/80/162
s 2
f 58/77/163 57/76/164 64/293/165 63/216/166
s 3
f 59/215/167 58/77/168 139/176/169 138/172/170
s 1
f 61/78/171 64/79/172 165/80/162 164/85/173
s 2
f 62/82/174 61/81/175 68/295/176 67/217/177
s 3
f 63/216/178 62/82/179 143/181/180 142/177/181
s 1
f 65/83/182 68/84/183 164/85/173 163/90/184
s 2
f 66/87/185 65/86/186 72/297/187 71/218/188
s 3
f 67/217/189 66/87/190 147/186/191 146/182/192
s 1
f 69/88/193 72/89/194 163/90/184 162/95/195
s 2
f 70/92/196 69/91/197 76/299/198 75/219/199
s 3
f 71/218/200 70/92/201 151/191/202 150/187/203
s 1
f 73/93/204 76/94/205 162/95/195 161/99/206
s 2
f 74/97/207 73/96/208 80/301/209 79/220/210
s 3
f 75/219/211 74/97/212 155/196/213 154/192/214
s 1
f 77/223/215 80/98/216 161/99/206 180/100/3
s 3
f 79/220/217 78/101/218 159/105/219 158/197/220
s 22
f 81/102/221 84/224/222 182/109/223 181/200/224
s 23
f 82/221/225 81/103/226 160/104/227 159/105/228
f 84/303/229 83/106/230 86/107/231 85/108/232
s 22
f 85/225/233 88/226/234 183/114/235 182/109/223
s 23
f 88/110/236 87/111/237 90/112/238 89/113/239
s 22
f 89/227/240 92/228/241 184/119/242 183/114/235
s 23
f 92/115/243 91/116/244 94/117/245 93/118/246
s 22
f 93/229/247 96/230/248 185/124/249 184/119/242
s 23
f 96/120/250 95/121/251 98/122/252 97/123/253
s 22
f 97/231/254 100/232/255 186/129/256 185/124/249
s 23
f 100/125/257 99/126/258 102/127/259 101/128/260
s 22
f 101/233/261 104/234/262 187/134/263 186/129/256
s 23
f 104/130/264 103/131/265 106/132/266 105/133/267
s 22
f 105/235/268 108/236/269 188/139/270 187/134/263
s 23
f 108/135/271 107/136/272 110/137/273 109/138/274
s 22
f 109/237/275 112/238/276 189/144/277 188/139/270
s 23
f 112/140/278 111/141/279 114/142/280 113/143/281
s 22
f 113/239/282 116/240/283 190/149/284 189/144/277
s 23
f 116/145/285 115/146/286 118/147/287 117/148/288
s 22
f 117/241/289 120/242/290 191/154/291 190/149/284
s 23
f 120/150/292 119/151/293 122/152/294 121/153/295
s 22
f 121/243/296 124/244/297 192/159/298 191/154/291
s 23
f 124/155/299 123/156/300 126/157/301 125/158/302
s 22
f 125/245/303 128/246/304 193/164/305 192/159/298
s 23
f 128/160/306 127/161/307 130/162/308 129/163/309
s 22
f 129/247/310 132/248/311 194/169/312 193/164/305
s 23
f 132/165/313 131/166/314 134/167/315 133/168/316
s 22
f 133/249/317 136/250/318 195/174/319 194/169/312
s 23
f 136/170/320 135/171/321 138/172/322 137/173/323
s 22
f 137/251/324 140/252/325 196/179/326 195/174/319
s 23
f 140/175/327 139/176/328 142/177/329 141/178/330
s 22
f 141/253/331 144/254/332 197/184/333 196/179/326
s 23
f 144/180/334 143/181/335 146/182/336 145/183/337
s 22
f 145/255/338 148/256/339 198/189/340 197/184/333
s 23
f 148/185/341 147/186/342 150/187/343 149/188/344
s 22
f 149/257/345 152/258/346 199/194/347 198/189/340
s 23
f 152/190/348 151/191/349 154/192/350 153/193/351
s 22
f 153/259/352 156/260/353 200/201/354 199/194/347
s 23
f 156/195/355 155/196/356 158/197/357 157/198/358
s 22
f 157/261/359 160/199/360 181/200/224 200/201/354
s 3
f 2/3/10 7/202/24 86/107/27 83/106/11
f 6/12/25 11/203/35 90/112/38 87/111/26
f 10/17/36 15/204/46 94/117/49 91/116/37
f 14/22/47 19/205/57 98/122/60 95/121/48
f 18/27/58 23/206/68 102/127/71 99/126/59
f 22/32/69 27/207/79 106/132/82 103/131/70
f 26/37/80 31/208/90 110/137/93 107/136/81
f 30/42/91 35/209/101 114/142/104 111/141/92
f 34/47/102 39/210/112 118/147/115 115/146/103
f 38/52/113 43/211/123 122/152/126 119/151/114
f 42/57/124 47/212/134 126/157/137 123/156/125
f 46/62/135 51/213/145 130/162/148 127/161/136
f 50/67/146 55/214/156 134/167/159 131/166/147
f 54/72/157 59/215/167 138/172/170 135/171/158
f 58/77/168 63/216/178 142/177/181 139/176/169
f 62/82/179 67/217/189 146/182/192 143/181/180
f 66/87/190 71/218/200 150/187/203 147/186/191
f 70/92/201 75/219/211 154/192/214 151/191/202
f 74/97/212 79/220/217 158/197/220 155/196/213
f 78/101/218 3/6/9 82/221/12 159/105/219
s 1
f 8/9/18 1/1/1 179/10/4
f 12/14/29 5/8/17 178/15/19
f 16/19/40 9/13/28 177/20/30
f 20/24/51 13/18/39 176/25/41
f 24/29/62 17/23/50 175/30/52
f 28/34/73 21/28/61 174/35/63
f 32/39/84 25/33/72 173/40/74
f 36/44/95 29/38/83 172/45/85
f 40/49/106 33/43/94 171/50/96
f 44/54/117 37/48/105 170/55/107
f 48/59/128 41/53/116 169/60/118
f 52/64/139 45/58/127 168/65/129
f 56/69/150 49/63/138 167/70/140
f 60/74/161 53/68/149 166/75/151
f 64/79/172 57/73/160 165/80/162
f 68/84/183 61/78/171 164/85/173
f 72/89/194 65/83/182 163/90/184
f 76/94/205 69/88/193 162/95/195
f 80/98/216 73/93/204 161/99/206
f 4/222/2 77/223/215 180/100/3
s 22
f 84/224/222 85/225/233 182/109/223
f 88/226/234 89/227/240 183/114/235
f 92/228/241 93/229/247 184/119/242
f 96/230/248 97/231/254 185/124/249
f 100/232/255 101/233/261 186/129/256
f 104/234/262 105/235/268 187/134/263
f 108/236/269 109/237/275 188/139/270
f 112/238/276 113/239/282 189/144/277
f 116/240/283 117/241/289 190/149/284
f 120/242/290 121/243/296 191/154/291
f 124/244/297 125/245/303 192/159/298
f 128/246/304 129/247/310 193/164/305
f 132/248/311 133/249/317 194/169/312
f 136/250/318 137/251/324 195/174/319
f 140/252/325 141/253/331 196/179/326
f 144/254/332 145/255/338 197/184/333
f 148/256/339 149/257/345 198/189/340
f 152/258/346 153/259/352 199/194/347
f 156/260/353 157/261/359 200/201/354
f 160/199/360 81/102/221 181/200/224
s 2
f 1/2/6 2/3/5 3/262/14 4/263/13
f 5/264/21 6/12/20 7/202/8 8/265/7
f 9/266/32 10/17/31 11/203/23 12/267/22
f 13/268/43 14/22/42 15/204/34 16/269/33
f 17/270/54 18/27/53 19/205/45 20/271/44
f 21/272/65 22/32/64 23/206/56 24/273/55
f 25/274/76 26/37/75 27/207/67 28/275/66
f 29/276/87 30/42/86 31/208/78 32/277/77
f 33/278/98 34/47/97 35/209/89 36/279/88
f 37/280/109 38/52/108 39/210/100 40/281/99
f 41/282/120 42/57/119 43/211/111 44/283/110
f 45/284/131 46/62/130 47/212/122 48/285/121
f 49/286/142 50/67/141 51/213/133 52/287/132
f 53/288/153 54/72/152 55/214/144 56/289/143
f 57/290/164 58/77/163 59/215/155 60/291/154
f 61/292/175 62/82/174 63/216/166 64/293/165
f 65/294/186 66/87/185 67/217/177 68/295/176
f 69/296/197 70/92/196 71/218/188 72/297/187
f 73/298/208 74/97/207 75/219/199 76/299/198
f 77/300/16 78/101/15 79/220/210 80/301/209
s 23
f 81/302/226 82/4/225 83/106/230 84/303/229
f 85/108/232 86/107/231 87/111/237 88/304/236
f 89/113/239 90/112/238 91/116/244 92/305/243
f 93/118/246 94/117/245 95/121/251 96/306/250
f 97/123/253 98/122/252 99/126/258 100/307/257
f 101/128/260 102/127/259 103/131/265 104/308/264
f 105/133/267 106/132/266 107/136/272 108/309/271
f 109/138/274 110/137/273 111/141/279 112/310/278
f 113/143/281 114/142/280 115/146/286 116/311/285
f 117/148/288 118/147/287 119/151/293 120/312/292
f 121/153/295 122/152/294 123/156/300 124/313/299
f 125/158/302 126/157/301 127/161/307 128/314/306
f 129/163/309 130/162/308 131/166/314 132/315/313
f 133/168/316 134/167/315 135/171/321 136/316/320
f 137/173/323 138/172/322 139/176/328 140/317/327
f 141/178/330 142/177/329 143/181/335 144/318/334
f 145/183/337 146/182/336 147/186/342 148/319/341
f 149/188/344 150/187/343 151/191/349 152/320/348
f 153/193/351 154/192/350 155/196/356 156/321/355
f 157/198/358 158/197/357 159/105/228 160/322/227
s 1
f 161/99/206 162/95/195 163/90/184 164/85/173 165/80/162 166/75/151 167/70/140 168/65/129 169/60/118 170/55/107 171/50/96 172/45/85 173/40/74 174/35/63 175/30/52 176/25/41 177/20/30 178/15/19 179/10/4 180/100/3
s 22
f 181/200/224 182/109/223 183/114/235 184/119/242 185/124/249 186/129/256 187/134/263 188/139/270 189/144/277 190/149/284 191/154/291 192/159/298 193/164/305 194/169/312 195/174/319 196/179/326 197/184/333 198/189/340 199/194/347 200/201/354
