# This file uses centimeters as units for non-parametric coordinates.

mtllib stone_1.mtl
g default
v -0.931271 5.973588 0.946337
v -0.906930 6.145472 1.054607
v -1.045551 6.144799 0.898604
v 0.102736 5.973588 1.157699
v 0.102116 6.134341 1.288867
v -0.101907 6.134012 1.289003
v -0.102736 5.973588 1.157699
v -0.333843 7.541266 0.476274
v -0.297590 7.627107 0.297590
v -0.478378 7.542124 0.331363
v -0.102324 7.627107 0.383203
v -0.108143 7.543857 0.570297
v 0.102324 7.548337 0.568169
v 0.102324 7.627107 0.383203
v -0.304518 7.627107 -0.304518
v -0.360834 7.574009 -0.493610
v -0.503108 7.580006 -0.342073
v 0.103617 7.627107 -0.369021
v 0.105130 7.541253 -0.563722
v -0.104435 7.541820 -0.563505
v -0.103617 7.627107 -0.369021
v -0.944144 6.137552 -1.077076
v -0.944735 5.973588 -0.958359
v -1.084788 6.131389 -0.920286
v -0.102732 5.973588 -1.154994
v -0.102117 6.135468 -1.284647
v 0.101911 6.135140 -1.284790
v 0.102732 5.973588 -1.154994
v -0.597079 7.135215 0.721397
v -0.737541 7.136838 0.576267
v -0.816971 6.959450 0.659483
v -0.678788 6.959929 0.799249
v 1.102163 6.130422 0.952146
v 0.947114 6.132464 1.092763
v 0.967284 5.973588 0.957111
v 0.901583 7.129153 0.757109
v 0.754881 7.129970 0.900941
v 0.845076 6.947390 0.988148
v 0.988148 6.947390 0.845076
v -0.383203 7.627107 -0.102324
v -0.570297 7.543857 -0.108143
v -0.568169 7.548337 0.102324
v -0.383203 7.627107 0.102324
v 0.344982 7.560859 0.492916
v 0.490590 7.562304 0.345881
v 0.302187 7.627107 0.302187
v 0.383203 7.627107 0.102324
v 0.570297 7.543857 0.108143
v 0.568169 7.548337 -0.102324
v 0.383203 7.627107 -0.102324
v -0.889822 7.304105 -0.625029
v -0.752437 7.297370 -0.774786
v -0.851141 7.136828 -0.860566
v -0.987970 7.141937 -0.707941
v 0.483908 7.537540 -0.325467
v 0.334953 7.539496 -0.473616
v 0.297794 7.627107 -0.297794
v 0.719418 6.945367 -0.797502
v 0.854185 6.962694 -0.648241
v 0.936999 6.759349 -0.735883
v 0.807055 6.755259 -0.874014
v -1.063808 5.973588 0.102514
v -1.199662 6.128018 0.102229
v -1.199696 6.127874 -0.102133
v -1.063808 5.973588 -0.102514
v 0.928979 6.143340 -1.057185
v 1.082274 6.145453 -0.912546
v 0.955808 5.973588 -0.944512
v 1.364001 6.138306 0.101693
v 1.235679 5.973588 0.102632
v 1.235016 5.973588 -0.102940
v 1.364001 6.138306 -0.101693
v -1.051087 6.949305 0.096360
v -0.956140 7.135226 0.101283
v -0.990827 7.161770 -0.102624
v -1.080935 6.975015 -0.105576
v -0.103844 6.898220 -1.080833
v -0.105151 7.095525 -0.976707
v 0.098533 7.038459 -0.984112
v 0.100376 6.856382 -1.078561
v 0.995010 7.130427 0.104342
v 1.102326 6.955590 0.104000
v 1.091813 6.928028 -0.099847
v 0.984676 7.104055 -0.098683
v -0.098872 7.133750 0.957254
v -0.095530 6.951808 1.061052
v 0.105668 6.951384 1.093943
v 0.104253 7.130363 0.995083
v -0.102324 7.627107 0.102324
v 0.102324 7.627107 0.102324
v 0.102324 7.627107 -0.102324
v -0.102324 7.627107 -0.102324
v 0.102324 5.973588 0.102324
v -0.102324 5.973588 0.102324
v -0.102324 5.973588 -0.102324
v 0.102324 5.973588 -0.102324
vt 0.392316 0.984074
vt 0.381239 0.978907
vt 0.386121 0.006655
vt 0.388913 0.019875
vt 0.511879 0.984154
vt 0.488121 0.984154
vt 0.516823 0.002569
vt 0.616244 0.002285
vt 0.513493 0.018944
vt 0.409259 0.231257
vt 0.403684 0.278684
vt 0.375000 0.346017
vt 0.482244 0.230685
vt 0.533118 0.232801
vt 0.131649 0.250000
vt 0.190571 0.250000
vt 0.401441 0.473559
vt 0.388071 0.516673
vt 0.375000 0.598343
vt 0.466464 0.471043
vt 0.533536 0.471043
vt 0.534026 0.516427
vt 0.375000 0.729103
vt 0.390520 0.730782
vt 0.136723 0.002460
vt 0.235621 0.002525
vt 0.488192 0.729769
vt 0.514003 0.728200
vt 0.387138 0.113563
vt 0.483926 0.113113
vt 0.483364 0.142280
vt 0.349482 0.142446
vt 0.633553 0.002388
vt 0.637874 0.018135
vt 0.639641 0.113442
vt 0.641706 0.141276
vt 0.609074 0.232658
vt 0.608111 0.141455
vt 0.522552 0.140174
vt 0.513756 0.113064
vt 0.400731 0.341882
vt 0.466882 0.341882
vt 0.466882 0.408118
vt 0.233704 0.231117
vt 0.267519 0.142603
vt 0.640578 0.233036
vt 0.713697 0.250000
vt 0.533118 0.408118
vt 0.533118 0.341882
vt 0.714999 0.231823
vt 0.727429 0.140187
vt 0.786303 0.250000
vt 0.783118 0.232801
vt 0.855992 0.231575
vt 0.844203 0.250000
vt 0.143379 0.114622
vt 0.234023 0.141979
vt 0.390727 0.606069
vt 0.475459 0.606997
vt 0.487877 0.635173
vt 0.625000 0.517272
vt 0.514166 0.637775
vt 0.521982 0.610821
vt 0.863313 0.113455
vt 0.857477 0.139745
vt 0.772971 0.139484
vt 0.625000 0.638586
vt 0.611845 0.725500
vt 0.390975 0.863146
vt 0.488168 0.863168
vt 0.488168 0.886832
vt 0.265520 0.017412
vt 0.266668 0.112824
vt 0.237043 0.115106
vt 0.620085 0.769481
vt 0.620089 0.863241
vt 0.765711 0.022220
vt 0.765363 0.113418
vt 0.736461 0.113550
vt 0.609105 0.886868
vt 0.511832 0.886832
vt 0.511832 0.863168
vt 0.484309 0.018023
vt 0.466882 0.275731
vt 0.390504 0.635414
vt 0.390975 0.886854
vt 0.736436 0.019843
vt 0.360470 0.019797
vt 0.362060 0.113583
vt 0.267337 0.231863
vt 0.341083 0.231445
vt 0.466199 0.516319
vt 0.399756 0.142028
vt 0.611570 0.018371
vt 0.610225 0.112976
vt 0.599269 0.341882
vt 0.533118 0.275731
vt 0.597804 0.277196
vt 0.608763 0.516285
vt 0.609502 0.610863
vt 0.613355 0.637657
vt 0.611545 0.985672
vt 0.152986 0.143683
vt 0.157833 0.232810
vt 0.143639 0.018193
vt 0.238190 0.017840
vt 0.488121 0.766036
vt 0.609057 0.863097
vt 0.511879 0.766036
vt 0.610185 0.765785
vt 0.861683 0.024805
vt 0.599269 0.408118
vt 0.400731 0.408118
vt 0.500000 0.007300
vt 0.481957 0.006621
vt 0.375000 0.280507
vt 0.375000 0.516524
vt 0.390759 0.764502
vt 0.375171 0.375000
vt 0.654399 0.250000
vt 0.750000 0.250000
vt 0.378379 0.625000
vt 0.375000 0.636881
vt 0.596382 0.471382
vt 0.625000 0.600386
vt 0.625000 0.625000
vt 0.377247 0.886821
vt 0.379766 0.875000
vt 0.625000 0.722330
vt 0.731310 0.002821
vt 0.746270 0.003730
vn -0.794883 -0.589195 0.144946
vn -0.794883 -0.589195 0.144946
vn -0.787334 -0.605799 0.114508
vn -0.788178 -0.604083 0.117728
vn -0.221908 -0.559110 0.798844
vn -0.221908 -0.559110 0.798844
vn -0.181621 -0.575102 0.797666
vn -0.173862 -0.578044 0.797269
vn -0.884158 0.292785 0.364061
vn -0.407509 0.333363 0.850180
vn -0.405204 0.358333 0.841075
vn -0.876990 0.318504 0.359782
vn 0.000000 -1.000000 0.000000
vn 0.000000 -1.000000 0.000000
vn 0.000000 -1.000000 0.000000
vn 0.000000 -1.000000 0.000000
vn 0.139992 -0.627476 0.765948
vn 0.145167 -0.627038 0.765343
vn 0.514141 -0.665273 0.541360
vn 0.200113 -0.619371 0.759167
vn -0.264831 0.299074 0.916744
vn 0.130089 0.202439 0.970616
vn 0.121165 0.252189 0.960062
vn -0.275344 0.329071 0.903271
vn -0.364225 0.695268 0.619630
vn -0.617800 0.699009 0.360151
vn -0.692642 0.597399 0.404180
vn -0.412752 0.599042 0.686137
vn -0.154416 0.975425 0.157166
vn -0.214075 0.716606 0.663813
vn -0.051893 0.977712 0.203438
vn -0.200922 0.978395 0.048713
vn -0.655604 0.723901 0.214826
vn 0.026506 0.981842 0.187838
vn 0.000000 1.000000 0.000000
vn 0.000000 1.000000 0.000000
vn 0.066489 0.758959 0.647735
vn -0.250605 0.606645 0.754439
vn 0.065724 0.645216 0.761168
vn 0.205600 0.785116 0.584227
vn 0.125687 0.984391 0.123195
vn -0.095021 0.989129 -0.112223
vn -0.523604 0.847014 -0.091688
vn -0.612573 0.789093 0.045672
vn -0.178034 0.983978 -0.009544
vn -0.105119 0.786417 -0.608686
vn -0.009099 0.982165 -0.187799
vn -0.001920 0.737149 -0.675727
vn -0.178592 0.694887 -0.696589
vn -0.664564 0.735622 -0.131202
vn 0.045320 0.976716 -0.209693
vn 0.000000 1.000000 -0.000000
vn 0.000000 1.000000 -0.000000
vn 0.224384 0.672886 -0.704894
vn 0.156683 0.972923 -0.169913
vn 0.361134 0.657985 -0.660785
vn 0.249354 0.572377 -0.781158
vn -0.021260 0.608559 -0.793224
vn -0.728551 0.208066 -0.652627
vn -0.728551 0.208066 -0.652627
vn -0.710981 0.286081 -0.642389
vn -0.713422 0.276464 -0.643892
vn -0.188295 -0.594924 -0.781416
vn -0.188295 -0.594924 -0.781416
vn -0.149121 -0.603251 -0.783487
vn -0.154785 -0.602110 -0.783266
vn -0.751377 -0.651240 -0.106391
vn -0.751377 -0.651240 -0.106391
vn -0.751891 -0.653570 -0.086638
vn -0.751926 -0.653791 -0.084637
vn 0.000000 -1.000000 -0.000000
vn 0.000000 -1.000000 0.000000
vn 0.000000 -1.000000 0.000000
vn 0.000000 -1.000000 -0.000000
vn 0.221147 0.288410 -0.931619
vn -0.174263 0.243552 -0.954104
vn -0.168580 0.275825 -0.946309
vn 0.227935 0.324208 -0.918115
vn 0.173017 -0.578749 -0.796941
vn 0.166084 -0.581021 -0.796762
vn 0.238965 -0.556570 -0.795692
vn 0.538739 -0.603063 -0.588282
vn -0.758037 0.598340 0.259554
vn -0.934384 0.267838 0.234923
vn 0.749561 -0.609714 0.257695
vn 0.763623 -0.616376 0.192252
vn 0.765428 -0.616863 0.183303
vn 0.678478 0.182145 0.711682
vn 0.678478 0.182145 0.711682
vn 0.667816 0.265479 0.695372
vn 0.667758 0.265846 0.695288
vn 0.683468 0.685966 0.249645
vn 0.939111 0.268492 0.214436
vn 0.941922 0.295592 0.159397
vn 0.753103 0.654459 0.067229
vn 0.247591 0.681049 0.689109
vn 0.582085 0.786562 0.206147
vn 0.177700 0.228636 0.957156
vn -0.760712 0.647070 0.051163
vn 0.649705 0.757227 0.067015
vn 0.189583 0.981470 0.027836
vn 0.203690 0.977675 -0.051590
vn 0.667983 0.709959 -0.223062
vn 0.747547 0.615379 -0.249962
vn 0.623289 0.681817 -0.382932
vn -0.976794 0.181594 -0.113564
vn -0.981125 0.177659 -0.076365
vn -0.198913 0.287027 -0.937043
vn 0.690349 0.593423 -0.413844
vn 0.397879 0.573003 -0.716491
vn 0.360363 0.335931 -0.870223
vn 0.861972 0.342328 -0.373919
vn 0.903747 0.350146 -0.246250
vn 0.863942 0.319193 -0.389513
vn 0.356019 0.307219 -0.882534
vn 0.000000 -1.000000 0.000000
vn 0.000000 -1.000000 -0.000000
vn -0.987130 0.135130 -0.085525
vn -0.947040 0.232892 0.221080
vn 0.777535 -0.557362 -0.291181
vn 0.786741 -0.580100 -0.211004
vn 0.785659 -0.577448 -0.222022
vn 0.952919 0.251115 0.169959
vn 0.918935 0.311031 -0.242524
vn 0.000000 -1.000000 0.000000
vn 0.000000 -1.000000 0.000000
vn -0.218883 0.237122 -0.946501
vn 0.000000 -1.000000 0.000000
vn 0.946131 0.231982 0.225878
vn 0.184504 0.188190 0.964646
vn 0.000000 -1.000000 0.000000
vn -0.983344 0.128561 -0.128475
vn 0.000000 -1.000000 -0.000000
vn 0.000000 -1.000000 0.000000
vn -0.712732 -0.298805 0.634609
vn -0.712732 -0.298805 0.634609
vn -0.712732 -0.298805 0.634609
vn -0.660221 -0.438908 -0.609482
vn -0.660221 -0.438908 -0.609482
vn -0.660221 -0.438908 -0.609481
s 1
g pCube2 stone_1
usemtl initialShadingGroup
f 1/1/1 3/2/2 63/127/3 62/86/4
s 2
f 2/4/5 1/3/6 7/115/7 6/83/8
s 3
f 3/88/9 2/4/10 32/29/11 31/89/12
s 4
f 4/5/13 7/6/14 94/71/15 93/81/16
s 2
f 5/9/17 4/7/18 35/8/19 34/94/20
s 3
f 6/83/21 5/9/22 87/40/23 86/30/24
f 8/10/25 10/91/26 30/32/27 29/93/28
f 9/11/29 8/10/25 12/13/30 11/84/31
f 10/116/26 9/11/29 43/41/32 42/12/33
f 11/84/31 14/97/34 90/49/35 89/42/36
f 13/14/37 12/13/30 85/31/38 88/39/39
f 14/97/34 13/14/37 44/37/40 46/98/41
f 15/15/42 17/104/43 41/44/44 40/16/45
f 16/18/46 15/17/42 21/20/47 20/92/48
f 17/117/43 16/18/46 52/58/49 51/19/50
f 18/21/51 21/20/47 92/43/52 91/48/53
f 19/22/54 18/21/51 57/124/55 56/99/56
f 20/92/48 19/22/54 79/63/57 78/59/58
f 22/24/59 24/23/60 54/123/61 53/85/62
s 2
f 23/118/63 22/24/64 26/27/65 25/107/66
s 1
f 24/105/67 23/25/68 65/26/69 64/106/70
s 4
f 25/107/71 28/109/72 96/82/73 95/70/74
s 3
f 27/28/75 26/27/76 77/60/77 80/62/78
s 2
f 28/109/79 27/28/80 66/68/81 68/110/82
s 3
f 29/93/28 32/29/11 86/30/24 85/31/38
f 31/89/12 30/32/27 74/45/83 73/73/84
s 2
f 33/34/85 35/33/19 70/130/86 69/87/87
s 3
f 34/94/88 33/34/89 39/35/90 38/95/91
f 36/36/92 39/35/93 82/79/94 81/51/95
f 37/38/96 36/36/92 45/46/97 44/37/40
f 38/95/98 37/38/96 88/39/39 87/40/23
f 40/113/45 43/41/32 89/42/36 92/43/52
f 42/90/33 41/44/44 75/57/99 74/45/83
f 46/120/41 45/46/97 48/50/100 47/47/101
f 47/96/101 50/112/102 91/48/53 90/49/35
f 49/53/103 48/50/100 81/51/95 84/66/104
f 50/52/102 49/53/103 55/54/105 57/55/55
f 51/103/50 54/56/106 76/74/107 75/57/99
f 53/85/108 52/58/49 78/59/58 77/60/77
f 56/99/56 55/61/105 59/125/109 58/100/110
f 58/100/110 61/101/111 80/62/78 79/63/57
f 60/64/112 59/65/109 84/66/104 83/78/113
f 61/101/111 60/67/112 67/129/114 66/68/115
s 4
f 62/86/116 65/69/117 95/70/74 94/71/15
s 3
f 64/106/118 63/72/119 73/73/84 76/74/107
s 2
f 68/110/82 67/75/120 72/76/121 71/108/122
s 3
f 69/87/123 72/77/124 83/78/113 82/79/94
s 4
f 71/108/125 70/80/126 93/81/16 96/82/73
s 3
f 2/4/10 6/83/21 86/30/24 32/29/11
f 9/11/29 11/84/31 89/42/36 43/41/32
f 53/85/108 77/60/77 26/27/76 22/24/127
s 4
f 62/86/116 94/71/15 7/6/14 1/1/128
s 3
f 33/34/129 69/87/123 82/79/94 39/35/93
f 73/73/84 63/72/119 3/88/9 31/89/12
f 42/90/33 74/45/83 30/32/27 10/91/26
f 16/18/46 20/92/48 78/59/58 52/58/49
f 36/36/92 81/51/95 48/50/100 45/46/97
f 29/93/28 85/31/38 12/13/30 8/10/25
f 87/40/23 5/9/22 34/94/130 38/95/98
f 13/14/37 88/39/39 37/38/96 44/37/40
f 47/96/101 90/49/35 14/97/34 46/98/41
f 79/63/57 19/22/54 56/99/56 58/100/110
f 27/28/75 80/62/78 61/101/111 66/68/115
s 4
f 4/5/13 93/81/16 70/80/126 35/102/131
s 3
f 51/103/50 75/57/99 41/44/44 17/104/43
f 24/105/132 64/106/118 76/74/107 54/56/106
s 4
f 23/118/133 25/107/71 95/70/74 65/69/117
f 71/108/125 96/82/73 28/109/72 68/110/134
s 3
f 83/78/113 72/77/124 67/111/114 60/64/112
f 49/53/103 84/66/104 59/65/109 55/54/105
f 18/21/51 91/48/53 50/112/102 57/124/55
f 40/113/45 92/43/52 21/20/47 15/17/42
s off
f 1/3/135 2/4/136 3/88/137
s 2
f 4/114/18 5/9/17 6/83/8 7/115/7
s 3
f 8/10/25 9/11/29 10/116/26
f 11/84/31 12/13/30 13/14/37 14/97/34
f 15/17/42 16/18/46 17/117/43
f 18/21/51 19/22/54 20/92/48 21/20/47
s off
f 22/24/138 23/118/139 24/23/140
s 2
f 25/107/66 26/27/65 27/28/80 28/109/79
s 3
f 29/93/28 30/32/27 31/89/12 32/29/11
s 2
f 33/34/85 34/94/20 35/33/19
s 3
f 36/36/92 37/38/96 38/95/91 39/35/90
f 40/113/45 41/119/44 42/12/33 43/41/32
f 44/37/40 45/46/97 46/120/41
f 47/47/101 48/50/100 49/53/103 50/121/102
f 51/122/50 52/58/49 53/85/62 54/123/61
f 55/61/105 56/99/56 57/124/55
f 58/100/110 59/125/109 60/126/112 61/101/111
s 1
f 62/86/4 63/127/3 64/128/70 65/69/69
s 2
f 66/68/81 67/129/120 68/110/82
f 69/87/87 70/130/86 71/131/122 72/77/121
s 3
f 73/73/84 74/45/83 75/57/99 76/74/107
f 77/60/77 78/59/58 79/63/57 80/62/78
f 81/51/95 82/79/94 83/78/113 84/66/104
f 85/31/38 86/30/24 87/40/23 88/39/39
f 89/42/36 90/49/35 91/48/53 92/43/52
s 4
f 93/81/16 94/71/15 95/70/74 96/82/73
g default
v -0.016442 5.978229 1.407404
v -0.001016 6.021203 1.430464
v -0.047395 6.021035 1.406561
v 0.243756 5.978229 1.363589
v 0.255423 6.018420 1.394238
v 0.207850 6.018338 1.412642
v 0.195833 5.978229 1.382091
v 0.080569 6.370171 1.243971
v 0.072934 6.391632 1.199031
v 0.033810 6.370385 1.223188
v 0.126186 6.391632 1.201416
v 0.141677 6.370819 1.245576
v 0.190573 6.371939 1.226128
v 0.173917 6.391632 1.182987
v 0.017099 6.391632 1.059223
v -0.013063 6.378357 1.020192
v -0.032601 6.379857 1.068347
v 0.106482 6.391632 1.007427
v 0.089302 6.370168 0.961879
v 0.040444 6.370310 0.980801
v 0.058148 6.391632 1.026088
v -0.201652 6.019223 0.936634
v -0.191099 5.978229 0.964376
v -0.220336 6.017682 0.985868
v -0.012422 5.978229 0.842692
v -0.023954 6.018702 0.812397
v 0.023620 6.018620 0.793992
v 0.035499 5.978229 0.824190
v 0.041247 6.268653 1.324846
v -0.004583 6.269058 1.303646
v -0.015615 6.224709 1.330207
v 0.029200 6.224829 1.350362
v 0.458347 6.017440 1.225649
v 0.434846 6.017951 1.272408
v 0.427335 5.978229 1.238953
v 0.394002 6.267137 1.198222
v 0.372738 6.267341 1.244979
v 0.401627 6.221694 1.257197
v 0.422113 6.221694 1.210944
v 0.016954 6.391632 1.113467
v -0.027206 6.370819 1.128957
v -0.007757 6.371939 1.177854
v 0.035383 6.391632 1.161198
v 0.240393 6.375070 1.186725
v 0.261113 6.375431 1.139319
v 0.213237 6.391632 1.146094
v 0.214135 6.391632 1.092184
v 0.258296 6.370819 1.076693
v 0.238847 6.371939 1.027797
v 0.195707 6.391632 1.044453
v -0.148275 6.310877 1.037175
v -0.129718 6.309194 0.989875
v -0.160464 6.269056 0.978757
v -0.178633 6.270333 1.026675
v 0.199101 6.369239 0.983340
v 0.151018 6.369728 0.962200
v 0.158184 6.391632 1.006554
v 0.211523 6.221188 0.852038
v 0.256396 6.225520 0.874715
v 0.267819 6.174681 0.846816
v 0.225073 6.173658 0.826301
v -0.123340 5.978229 1.222530
v -0.155052 6.016839 1.234697
v -0.173462 6.016803 1.187036
v -0.141803 5.978229 1.174711
v 0.237016 6.020670 0.772600
v 0.285794 6.021198 0.792531
v 0.253419 5.978229 0.796463
v 0.442834 6.019411 1.003717
v 0.412989 5.978229 1.015491
v 0.394323 5.978229 0.967604
v 0.424519 6.019411 0.956280
v -0.120928 6.222172 1.219949
v -0.098339 6.268655 1.212548
v -0.124791 6.275292 1.168113
v -0.146073 6.228600 1.175539
v -0.006003 6.209400 0.860089
v 0.003068 6.258730 0.884493
v 0.049908 6.244462 0.864424
v 0.041832 6.198940 0.842229
v 0.357011 6.267456 1.037562
v 0.382010 6.223744 1.027818
v 0.361201 6.216853 0.981221
v 0.336318 6.260862 0.991140
v 0.178684 6.268286 1.334993
v 0.188811 6.222798 1.358901
v 0.238699 6.222692 1.348455
v 0.229466 6.267439 1.325525
v 0.100893 6.391632 1.135905
v 0.148624 6.391632 1.117477
v 0.130196 6.391632 1.069746
v 0.082465 6.391632 1.088174
v 0.148624 5.978229 1.117477
v 0.100893 5.978229 1.135905
v 0.082465 5.978229 1.088174
v 0.130196 5.978229 1.069746
vt 0.392316 0.984074
vt 0.381239 0.978907
vt 0.386121 0.006655
vt 0.388913 0.019875
vt 0.511879 0.984154
vt 0.488121 0.984154
vt 0.516823 0.002569
vt 0.616244 0.002285
vt 0.513493 0.018944
vt 0.409259 0.231257
vt 0.403684 0.278684
vt 0.375000 0.346017
vt 0.482244 0.230685
vt 0.533118 0.232801
vt 0.131649 0.250000
vt 0.190571 0.250000
vt 0.401441 0.473559
vt 0.388071 0.516673
vt 0.375000 0.598343
vt 0.466464 0.471043
vt 0.533536 0.471043
vt 0.534026 0.516427
vt 0.375000 0.729103
vt 0.390520 0.730782
vt 0.136723 0.002460
vt 0.235621 0.002525
vt 0.488192 0.729769
vt 0.514003 0.728200
vt 0.387138 0.113563
vt 0.483926 0.113113
vt 0.483364 0.142280
vt 0.349482 0.142446
vt 0.633553 0.002388
vt 0.637874 0.018135
vt 0.639641 0.113442
vt 0.641706 0.141276
vt 0.609074 0.232658
vt 0.608111 0.141455
vt 0.522552 0.140174
vt 0.513756 0.113064
vt 0.400731 0.341882
vt 0.466882 0.341882
vt 0.466882 0.408118
vt 0.233704 0.231117
vt 0.267519 0.142603
vt 0.640578 0.233036
vt 0.713697 0.250000
vt 0.533118 0.408118
vt 0.533118 0.341882
vt 0.714999 0.231823
vt 0.727429 0.140187
vt 0.786303 0.250000
vt 0.783118 0.232801
vt 0.855992 0.231575
vt 0.844203 0.250000
vt 0.143379 0.114622
vt 0.234023 0.141979
vt 0.390727 0.606069
vt 0.475459 0.606997
vt 0.487877 0.635173
vt 0.625000 0.517272
vt 0.514166 0.637775
vt 0.521982 0.610821
vt 0.863313 0.113455
vt 0.857477 0.139745
vt 0.772971 0.139484
vt 0.625000 0.638586
vt 0.611845 0.725500
vt 0.390975 0.863146
vt 0.488168 0.863168
vt 0.488168 0.886832
vt 0.265520 0.017412
vt 0.266668 0.112824
vt 0.237043 0.115106
vt 0.620085 0.769481
vt 0.620089 0.863241
vt 0.765711 0.022220
vt 0.765363 0.113418
vt 0.736461 0.113550
vt 0.609105 0.886868
vt 0.511832 0.886832
vt 0.511832 0.863168
vt 0.484309 0.018023
vt 0.466882 0.275731
vt 0.390504 0.635414
vt 0.390975 0.886854
vt 0.736436 0.019843
vt 0.360470 0.019797
vt 0.362060 0.113583
vt 0.267337 0.231863
vt 0.341083 0.231445
vt 0.466199 0.516319
vt 0.399756 0.142028
vt 0.611570 0.018371
vt 0.610225 0.112976
vt 0.599269 0.341882
vt 0.533118 0.275731
vt 0.597804 0.277196
vt 0.608763 0.516285
vt 0.609502 0.610863
vt 0.613355 0.637657
vt 0.611545 0.985672
vt 0.152986 0.143683
vt 0.157833 0.232810
vt 0.143639 0.018193
vt 0.238190 0.017840
vt 0.488121 0.766036
vt 0.609057 0.863097
vt 0.511879 0.766036
vt 0.610185 0.765785
vt 0.861683 0.024805
vt 0.599269 0.408118
vt 0.400731 0.408118
vt 0.500000 0.007300
vt 0.481957 0.006621
vt 0.375000 0.280507
vt 0.375000 0.516524
vt 0.390759 0.764502
vt 0.375171 0.375000
vt 0.654399 0.250000
vt 0.750000 0.250000
vt 0.378379 0.625000
vt 0.375000 0.636881
vt 0.596382 0.471382
vt 0.625000 0.600386
vt 0.625000 0.625000
vt 0.377247 0.886821
vt 0.379766 0.875000
vt 0.625000 0.722330
vt 0.731310 0.002821
vt 0.746270 0.003730
vn -0.689328 -0.589195 0.421516
vn -0.689328 -0.589195 0.421516
vn -0.693249 -0.605799 0.390402
vn -0.692876 -0.604083 0.393709
vn 0.080711 -0.559110 0.825155
vn 0.080711 -0.559110 0.825155
vn 0.117869 -0.575103 0.809546
vn 0.124965 -0.578044 0.806380
vn -0.693691 0.292785 0.658080
vn -0.073943 0.333363 0.939894
vn -0.075073 0.358333 0.930570
vn -0.688545 0.318504 0.651507
vn 0.000000 -1.000000 0.000000
vn 0.000000 -1.000000 0.000000
vn 0.000000 -1.000000 0.000000
vn 0.000000 -1.000000 0.000000
vn 0.406472 -0.627476 0.664119
vn 0.411082 -0.627038 0.661690
vn 0.674619 -0.665273 0.319845
vn 0.460116 -0.619371 0.636138
vn 0.083133 0.299074 0.950602
vn 0.470951 0.202439 0.858617
vn 0.458824 0.252189 0.851986
vn 0.068473 0.329071 0.941819
vn -0.116604 0.695268 0.709229
vn -0.446618 0.699009 0.558496
vn -0.500578 0.597399 0.626527
vn -0.137919 0.599042 0.788750
vn -0.087445 0.975425 0.202234
vn 0.039382 0.716606 0.696365
vn 0.024863 0.977712 0.208475
vn -0.169891 0.978395 0.117811
vn -0.534227 0.723902 0.436541
vn 0.092382 0.981842 0.165684
vn 0.000000 1.000000 0.000000
vn 0.000000 1.000000 0.000000
vn 0.295326 0.758959 0.580314
vn 0.037946 0.606645 0.794067
vn 0.335467 0.645216 0.686409
vn 0.402226 0.785116 0.470964
vn 0.161624 0.984391 0.069657
vn -0.129064 0.989129 -0.070466
vn -0.521486 0.847014 0.103055
vn -0.555010 0.789093 0.263241
vn -0.169523 0.983978 0.055220
vn -0.317298 0.786417 -0.529972
vn -0.076129 0.982165 -0.171917
vn -0.245172 0.737149 -0.629684
vn -0.417501 0.694887 -0.585513
vn -0.667218 0.735622 0.116964
vn -0.033249 0.976716 -0.211943
vn -0.000000 1.000000 -0.000000
vn -0.000000 1.000000 -0.000000
vn -0.044562 0.672887 -0.738402
vn 0.084969 0.972923 -0.214943
vn 0.098897 0.657985 -0.746508
vn -0.048736 0.572377 -0.818541
vn -0.305534 0.608559 -0.732329
vn -0.914715 0.208066 -0.346418
vn -0.914715 0.208066 -0.346418
vn -0.894636 0.286081 -0.343196
vn -0.897455 0.276464 -0.343719
vn -0.457105 -0.594924 -0.661151
vn -0.457105 -0.594924 -0.661151
vn -0.421306 -0.603251 -0.677192
vn -0.426510 -0.602110 -0.674946
vn -0.739268 -0.651240 0.171378
vn -0.739268 -0.651240 0.171378
vn -0.732632 -0.653570 0.189991
vn -0.731944 -0.653791 0.191870
vn -0.000000 -1.000000 -0.000000
vn 0.000000 -1.000000 0.000000
vn 0.000000 -1.000000 0.000000
vn -0.000000 -1.000000 -0.000000
vn -0.129242 0.288410 -0.948744
vn -0.506213 0.243552 -0.827303
vn -0.498104 0.275825 -0.822078
vn -0.118046 0.324208 -0.938592
vn -0.125634 -0.578749 -0.805770
vn -0.132038 -0.581021 -0.803107
vn -0.063663 -0.556570 -0.828358
vn 0.290696 -0.603063 -0.742840
vn -0.613676 0.598340 0.515161
vn -0.787058 0.267838 0.555700
vn 0.792070 -0.609714 -0.029575
vn 0.781616 -0.616376 -0.095691
vn 0.780077 -0.616863 -0.104689
vn 0.889272 0.182145 0.419545
vn 0.889272 0.182145 0.419545
vn 0.873452 0.265479 0.408170
vn 0.873367 0.265846 0.408112
vn 0.727513 0.685966 -0.013280
vn 0.953317 0.268492 -0.138201
vn 0.936116 0.295592 -0.190559
vn 0.726772 0.654459 -0.208533
vn 0.479175 0.681049 0.553682
vn 0.617268 0.786562 -0.017342
vn 0.510519 0.228636 0.828913
vn -0.691228 0.647070 0.321720
vn 0.630236 0.757227 -0.171491
vn 0.186885 0.981470 -0.042315
vn 0.171438 0.977675 -0.121492
vn 0.542809 0.709959 -0.448683
vn 0.607345 0.615379 -0.502435
vn 0.443534 0.681817 -0.581725
vn -0.952139 0.181594 0.245877
vn -0.942781 0.177659 0.282138
vn -0.523064 0.287027 -0.802509
vn 0.494959 0.593423 -0.634716
vn 0.113112 0.573003 -0.811710
vn 0.022743 0.335931 -0.941612
vn 0.669443 0.342328 -0.659286
vn 0.754398 0.350146 -0.555231
vn 0.665664 0.319194 -0.674542
vn 0.014256 0.307219 -0.951532
vn 0.000000 -1.000000 0.000000
vn -0.000000 -1.000000 -0.000000
vn -0.951682 0.135130 0.275756
vn -0.803851 0.232892 0.547344
vn 0.620474 -0.557362 -0.551688
vn 0.657939 -0.580100 -0.480208
vn 0.652962 -0.577448 -0.490097
vn 0.950179 0.251115 -0.184668
vn 0.769909 0.311031 -0.557225
vn 0.000000 -1.000000 0.000000
vn 0.000000 -1.000000 0.000000
vn -0.545099 0.237122 -0.804139
vn 0.000000 -1.000000 0.000000
vn 0.963986 0.231982 -0.130056
vn 0.519564 0.188190 0.833449
vn 0.000000 -1.000000 0.000000
vn -0.963620 0.128561 0.234326
vn -0.000000 -1.000000 -0.000000
vn 0.000000 -1.000000 0.000000
vn -0.436325 -0.298806 0.848726
vn -0.436325 -0.298806 0.848726
vn -0.436325 -0.298806 0.848726
vn -0.835431 -0.438908 -0.330780
vn -0.835431 -0.438908 -0.330780
vn -0.835431 -0.438908 -0.330780
s 1
g stone_1 pCube4
usemtl initialShadingGroup
f 97/132/141 99/133/142 159/258/143 158/217/144
s 2
f 98/135/145 97/134/146 103/246/147 102/214/148
s 3
f 99/219/149 98/135/150 128/160/151 127/220/152
s 4
f 100/136/153 103/137/154 190/202/155 189/212/156
s 2
f 101/140/157 100/138/158 131/139/159 130/225/160
s 3
f 102/214/161 101/140/162 183/171/163 182/161/164
f 104/141/165 106/222/166 126/163/167 125/224/168
f 105/142/169 104/141/165 108/144/170 107/215/171
f 106/247/166 105/142/169 139/172/172 138/143/173
f 107/215/171 110/228/174 186/180/175 185/173/176
f 109/145/177 108/144/170 181/162/178 184/170/179
f 110/228/174 109/145/177 140/168/180 142/229/181
f 111/146/182 113/235/183 137/175/184 136/147/185
f 112/149/186 111/148/182 117/151/187 116/223/188
f 113/248/183 112/149/186 148/189/189 147/150/190
f 114/152/191 117/151/187 188/174/192 187/179/193
f 115/153/194 114/152/191 153/255/195 152/230/196
f 116/223/188 115/153/194 175/194/197 174/190/198
f 118/155/199 120/154/200 150/254/201 149/216/202
s 2
f 119/249/203 118/155/204 122/158/205 121/238/206
s 1
f 120/236/207 119/156/208 161/157/209 160/237/210
s 4
f 121/238/211 124/240/212 192/213/213 191/201/214
s 3
f 123/159/215 122/158/216 173/191/217 176/193/218
s 2
f 124/240/219 123/159/220 162/199/221 164/241/222
s 3
f 125/224/168 128/160/151 182/161/164 181/162/178
f 127/220/152 126/163/167 170/176/223 169/204/224
s 2
f 129/165/225 131/164/159 166/261/226 165/218/227
s 3
f 130/225/228 129/165/229 135/166/230 134/226/231
f 132/167/232 135/166/233 178/210/234 177/182/235
f 133/169/236 132/167/232 141/177/237 140/168/180
f 134/226/238 133/169/236 184/170/179 183/171/163
f 136/244/185 139/172/172 185/173/176 188/174/192
f 138/221/173 137/175/184 171/188/239 170/176/223
f 142/251/181 141/177/237 144/181/240 143/178/241
f 143/227/241 146/243/242 187/179/193 186/180/175
f 145/184/243 144/181/240 177/182/235 180/197/244
f 146/183/242 145/184/243 151/185/245 153/186/195
f 147/234/190 150/187/246 172/205/247 171/188/239
f 149/216/248 148/189/189 174/190/198 173/191/217
f 152/230/196 151/192/245 155/256/249 154/231/250
f 154/231/250 157/232/251 176/193/218 175/194/197
f 156/195/252 155/196/249 180/197/244 179/209/253
f 157/232/251 156/198/252 163/260/254 162/199/255
s 4
f 158/217/256 161/200/257 191/201/214 190/202/155
s 3
f 160/237/258 159/203/259 169/204/224 172/205/247
s 2
f 164/241/222 163/206/260 168/207/261 167/239/262
s 3
f 165/218/263 168/208/264 179/209/253 178/210/234
s 4
f 167/239/265 166/211/266 189/212/156 192/213/213
s 3
f 98/135/150 102/214/161 182/161/164 128/160/151
f 105/142/169 107/215/171 185/173/176 139/172/172
f 149/216/248 173/191/217 122/158/216 118/155/267
s 4
f 158/217/256 190/202/155 103/137/154 97/132/268
s 3
f 129/165/269 165/218/263 178/210/234 135/166/233
f 169/204/224 159/203/259 99/219/149 127/220/152
f 138/221/173 170/176/223 126/163/167 106/222/166
f 112/149/186 116/223/188 174/190/198 148/189/189
f 132/167/232 177/182/235 144/181/240 141/177/237
f 125/224/168 181/162/178 108/144/170 104/141/165
f 183/171/163 101/140/162 130/225/270 134/226/238
f 109/145/177 184/170/179 133/169/236 140/168/180
f 143/227/241 186/180/175 110/228/174 142/229/181
f 175/194/197 115/153/194 152/230/196 154/231/250
f 123/159/215 176/193/218 157/232/251 162/199/255
s 4
f 100/136/153 189/212/156 166/211/266 131/233/271
s 3
f 147/234/190 171/188/239 137/175/184 113/235/183
f 120/236/272 160/237/258 172/205/247 150/187/246
s 4
f 119/249/273 121/238/211 191/201/214 161/200/257
f 167/239/265 192/213/213 124/240/212 164/241/274
s 3
f 179/209/253 168/208/264 163/242/254 156/195/252
f 145/184/243 180/197/244 155/196/249 151/185/245
f 114/152/191 187/179/193 146/243/242 153/255/195
f 136/244/185 188/174/192 117/151/187 111/148/182
s off
f 97/134/275 98/135/276 99/219/277
s 2
f 100/245/158 101/140/157 102/214/148 103/246/147
s 3
f 104/141/165 105/142/169 106/247/166
f 107/215/171 108/144/170 109/145/177 110/228/174
f 111/148/182 112/149/186 113/248/183
f 114/152/191 115/153/194 116/223/188 117/151/187
s off
f 118/155/278 119/249/279 120/154/280
s 2
f 121/238/206 122/158/205 123/159/220 124/240/219
s 3
f 125/224/168 126/163/167 127/220/152 128/160/151
s 2
f 129/165/225 130/225/160 131/164/159
s 3
f 132/167/232 133/169/236 134/226/231 135/166/230
f 136/244/185 137/250/184 138/143/173 139/172/172
f 140/168/180 141/177/237 142/251/181
f 143/178/241 144/181/240 145/184/243 146/252/242
f 147/253/190 148/189/189 149/216/202 150/254/201
f 151/192/245 152/230/196 153/255/195
f 154/231/250 155/256/249 156/257/252 157/232/251
s 1
f 158/217/144 159/258/143 160/259/210 161/200/209
s 2
f 162/199/221 163/260/260 164/241/222
f 165/218/227 166/261/226 167/262/262 168/208/261
s 3
f 169/204/224 170/176/223 171/188/239 172/205/247
f 173/191/217 174/190/198 175/194/197 176/193/218
f 177/182/235 178/210/234 179/209/253 180/197/244
f 181/162/178 182/161/164 183/171/163 184/170/179
f 185/173/176 186/180/175 187/179/193 188/174/192
s 4
f 189/212/156 190/202/155 191/201/214 192/213/213
g default
v -1.698209 5.978240 -0.634724
v -1.712727 6.054912 -0.587400
v -1.731920 6.054612 -0.678491
v -1.344417 5.978240 -0.324144
v -1.373669 6.049946 -0.273471
v -1.452732 6.049800 -0.318545
v -1.424010 5.978240 -0.369591
v -1.362814 6.677531 -0.684671
v -1.309249 6.715822 -0.745869
v -1.386750 6.677914 -0.772774
v -1.252545 6.715822 -0.669515
v -1.296181 6.678687 -0.598328
v -1.214182 6.680685 -0.552601
v -1.173271 6.715822 -0.624251
v -1.178756 6.715822 -0.980639
v -1.158747 6.692136 -1.066343
v -1.247377 6.694812 -1.039111
v -1.006390 6.715822 -0.915352
v -0.962740 6.677525 -0.990439
v -1.043967 6.677778 -1.036707
v -1.086667 6.715822 -0.961189
v -1.255650 6.051379 -1.421378
v -1.282137 5.978240 -1.375522
v -1.344811 6.048630 -1.391751
v -0.912479 5.978240 -1.265455
v -0.883564 6.050449 -1.315543
v -0.804499 6.050303 -1.270470
v -0.832889 5.978240 -1.220010
v -1.519000 6.496404 -0.647941
v -1.541311 6.497129 -0.735228
v -1.590485 6.418002 -0.720561
v -1.567872 6.418215 -0.635856
v -0.911805 6.048199 -0.182712
v -1.002968 6.049109 -0.162536
v -0.965152 5.978240 -0.210622
v -0.946365 6.493700 -0.302628
v -1.035006 6.494065 -0.279361
v -1.019356 6.412622 -0.225630
v -0.932289 6.412622 -0.249406
v -1.253958 6.715822 -0.919719
v -1.325145 6.678687 -0.963355
v -1.370873 6.680685 -0.881356
v -1.299223 6.715822 -0.840445
v -1.103539 6.686271 -0.528079
v -1.014614 6.686915 -0.552830
v -1.077931 6.715822 -0.611427
v -1.002341 6.715822 -0.670929
v -0.931154 6.678687 -0.627292
v -0.885427 6.680685 -0.709292
v -0.957076 6.715822 -0.750203
v -1.334593 6.571741 -1.234255
v -1.248251 6.568737 -1.261878
v -1.267512 6.497124 -1.316939
v -1.354274 6.499403 -1.288081
v -0.868711 6.675869 -0.814367
v -0.893644 6.676741 -0.904702
v -0.946927 6.715822 -0.844813
v -0.673076 6.411719 -0.945128
v -0.653885 6.419449 -0.857500
v -0.602421 6.328743 -0.873133
v -0.622205 6.326918 -0.955382
v -1.562910 5.978240 -0.990910
v -1.615473 6.047126 -1.021069
v -1.570285 6.047062 -1.100240
v -1.517561 5.978240 -1.070332
v -0.534461 6.053961 -0.999370
v -0.507071 6.054903 -0.909435
v -0.548989 5.978240 -0.949789
v -0.622271 6.051715 -0.454237
v -0.672187 5.978240 -0.482256
v -0.626975 5.978240 -0.562035
v -0.577286 6.051715 -0.533022
v -1.556621 6.413476 -0.990480
v -1.520931 6.496410 -0.967573
v -1.489266 6.508250 -1.054232
v -1.523519 6.424944 -1.075306
v -0.929313 6.390689 -1.236973
v -0.952851 6.478700 -1.196927
v -0.872312 6.453245 -1.154744
v -0.850708 6.372026 -1.190923
v -0.765793 6.494269 -0.534825
v -0.724147 6.416279 -0.511221
v -0.683131 6.403985 -0.592511
v -0.724890 6.482505 -0.615757
v -1.378178 6.495751 -0.446383
v -1.399842 6.414593 -0.405435
v -1.329179 6.414404 -0.348193
v -1.307862 6.494240 -0.386801
v -1.190419 6.715822 -0.778319
v -1.111145 6.715822 -0.733054
v -1.065880 6.715822 -0.812329
v -1.145155 6.715822 -0.857594
v -1.111145 5.978240 -0.733054
v -1.190419 5.978240 -0.778319
v -1.145155 5.978240 -0.857594
v -1.065880 5.978240 -0.812329
vt 0.392316 0.984074
vt 0.381239 0.978907
vt 0.386121 0.006655
vt 0.388913 0.019875
vt 0.511879 0.984154
vt 0.488121 0.984154
vt 0.516823 0.002569
vt 0.616244 0.002285
vt 0.513493 0.018944
vt 0.409259 0.231257
vt 0.403684 0.278684
vt 0.375000 0.346017
vt 0.482244 0.230685
vt 0.533118 0.232801
vt 0.131649 0.250000
vt 0.190571 0.250000
vt 0.401441 0.473559
vt 0.388071 0.516673
vt 0.375000 0.598343
vt 0.466464 0.471043
vt 0.533536 0.471043
vt 0.534026 0.516427
vt 0.375000 0.729103
vt 0.390520 0.730782
vt 0.136723 0.002460
vt 0.235621 0.002525
vt 0.488192 0.729769
vt 0.514003 0.728200
vt 0.387138 0.113563
vt 0.483926 0.113113
vt 0.483364 0.142280
vt 0.349482 0.142446
vt 0.633553 0.002388
vt 0.637874 0.018135
vt 0.639641 0.113442
vt 0.641706 0.141276
vt 0.609074 0.232658
vt 0.608111 0.141455
vt 0.522552 0.140174
vt 0.513756 0.113064
vt 0.400731 0.341882
vt 0.466882 0.341882
vt 0.466882 0.408118
vt 0.233704 0.231117
vt 0.267519 0.142603
vt 0.640578 0.233036
vt 0.713697 0.250000
vt 0.533118 0.408118
vt 0.533118 0.341882
vt 0.714999 0.231823
vt 0.727429 0.140187
vt 0.786303 0.250000
vt 0.783118 0.232801
vt 0.855992 0.231575
vt 0.844203 0.250000
vt 0.143379 0.114622
vt 0.234023 0.141979
vt 0.390727 0.606069
vt 0.475459 0.606997
vt 0.487877 0.635173
vt 0.625000 0.517272
vt 0.514166 0.637775
vt 0.521982 0.610821
vt 0.863313 0.113455
vt 0.857477 0.139745
vt 0.772971 0.139484
vt 0.625000 0.638586
vt 0.611845 0.725500
vt 0.390975 0.863146
vt 0.488168 0.863168
vt 0.488168 0.886832
vt 0.265520 0.017412
vt 0.266668 0.112824
vt 0.237043 0.115106
vt 0.620085 0.769481
vt 0.620089 0.863241
vt 0.765711 0.022220
vt 0.765363 0.113418
vt 0.736461 0.113550
vt 0.609105 0.886868
vt 0.511832 0.886832
vt 0.511832 0.863168
vt 0.484309 0.018023
vt 0.466882 0.275731
vt 0.390504 0.635414
vt 0.390975 0.886854
vt 0.736436 0.019843
vt 0.360470 0.019797
vt 0.362060 0.113583
vt 0.267337 0.231863
vt 0.341083 0.231445
vt 0.466199 0.516319
vt 0.399756 0.142028
vt 0.611570 0.018371
vt 0.610225 0.112976
vt 0.599269 0.341882
vt 0.533118 0.275731
vt 0.597804 0.277196
vt 0.608763 0.516285
vt 0.609502 0.610863
vt 0.613355 0.637657
vt 0.611545 0.985672
vt 0.152986 0.143683
vt 0.157833 0.232810
vt 0.143639 0.018193
vt 0.238190 0.017840
vt 0.488121 0.766036
vt 0.609057 0.863097
vt 0.511879 0.766036
vt 0.610185 0.765785
vt 0.861683 0.024805
vt 0.599269 0.408118
vt 0.400731 0.408118
vt 0.500000 0.007300
vt 0.481957 0.006621
vt 0.375000 0.280507
vt 0.375000 0.516524
vt 0.390759 0.764502
vt 0.375171 0.375000
vt 0.654399 0.250000
vt 0.750000 0.250000
vt 0.378379 0.625000
vt 0.375000 0.636881
vt 0.596382 0.471382
vt 0.625000 0.600386
vt 0.625000 0.625000
vt 0.377247 0.886821
vt 0.379766 0.875000
vt 0.625000 0.722330
vt 0.731310 0.002821
vt 0.746270 0.003730
vn -0.762154 -0.589195 -0.268272
vn -0.762154 -0.589195 -0.268272
vn -0.740506 -0.605799 -0.290961
vn -0.742835 -0.604083 -0.288584
vn -0.588815 -0.559110 0.583689
vn -0.588815 -0.559110 0.583689
vn -0.553245 -0.575102 0.602642
vn -0.546310 -0.578044 0.606145
vn -0.948330 0.292785 -0.122258
vn -0.775446 0.333363 0.536239
vn -0.768930 0.358333 0.529475
vn -0.939983 0.318504 -0.122419
vn -0.000000 -1.000000 0.000000
vn -0.000000 -1.000000 0.000000
vn -0.000000 -1.000000 0.000000
vn -0.000000 -1.000000 0.000000
vn -0.258226 -0.627476 0.734570
vn -0.253432 -0.627038 0.736610
vn 0.178050 -0.665273 0.725059
vn -0.202654 -0.619371 0.758492
vn -0.684550 0.299074 0.664790
vn -0.368311 0.202439 0.907395
vn -0.370828 0.252189 0.893805
vn -0.686999 0.329071 0.647877
vn -0.623541 0.695268 0.357490
vn -0.715084 0.699009 0.006421
vn -0.801909 0.597399 0.007546
vn -0.698659 0.599042 0.391183
vn -0.212027 0.975425 0.059916
vn -0.515057 0.716606 0.470310
vn -0.145939 0.977712 0.150936
vn -0.198636 0.978395 -0.057325
vn -0.675853 0.723902 -0.138525
vn -0.070122 0.981842 0.176263
vn -0.000000 1.000000 0.000000
vn -0.000000 1.000000 0.000000
vn -0.263441 0.758959 0.595467
vn -0.591717 0.606645 0.530898
vn -0.320351 0.645216 0.693593
vn -0.111145 0.785116 0.609294
vn 0.048061 0.984391 0.169306
vn -0.026871 0.989129 -0.144571
vn -0.409238 0.847014 -0.339253
vn -0.554609 0.789093 -0.264084
vn -0.149873 0.983978 -0.096567
vn 0.210532 0.786417 -0.580710
vn 0.085219 0.982165 -0.167598
vn 0.333393 0.737149 -0.587758
vn 0.190314 0.694887 -0.693479
vn -0.512056 0.735622 -0.443462
vn 0.143333 0.976716 -0.159627
vn 0.000000 1.000000 -0.000000
vn 0.000000 1.000000 -0.000000
vn 0.544379 0.672886 -0.500874
vn 0.220317 0.972923 -0.069862
vn 0.641263 0.657985 -0.394762
vn 0.603879 0.572377 -0.554721
vn 0.374859 0.608559 -0.699383
vn -0.309073 0.208066 -0.927999
vn -0.309073 0.208066 -0.927999
vn -0.298892 0.286081 -0.910396
vn -0.300266 0.276464 -0.912912
vn 0.223950 -0.594924 -0.771953
vn 0.223950 -0.594924 -0.771953
vn 0.258995 -0.603251 -0.754327
vn 0.253967 -0.602110 -0.756944
vn -0.599748 -0.651240 -0.464962
vn -0.599748 -0.651240 -0.464962
vn -0.609988 -0.653570 -0.448063
vn -0.611011 -0.653791 -0.446343
vn 0.000000 -1.000000 -0.000000
vn -0.000000 -1.000000 0.000000
vn -0.000000 -1.000000 0.000000
vn 0.000000 -1.000000 -0.000000
vn 0.653991 0.288410 -0.699368
vn 0.321763 0.243552 -0.914960
vn 0.322833 0.275825 -0.905373
vn 0.653189 0.324208 -0.684276
vn 0.545414 -0.578749 -0.606278
vn 0.539305 -0.581021 -0.609561
vn 0.602064 -0.556570 -0.572494
vn 0.759545 -0.603063 -0.243734
vn -0.786986 0.598340 -0.150475
vn -0.927913 0.267838 -0.259306
vn 0.523146 -0.609714 0.595455
vn 0.567808 -0.616376 0.545596
vn 0.573812 -0.616863 0.538720
vn 0.236307 0.182145 0.954454
vn 0.236306 0.182145 0.954454
vn 0.235135 0.265479 0.935004
vn 0.235126 0.265846 0.934902
vn 0.469742 0.685966 0.555692
vn 0.709202 0.268492 0.651878
vn 0.738935 0.295592 0.605475
vn 0.620665 0.654459 0.431809
vn -0.126686 0.681049 0.721196
vn 0.403269 0.786562 0.467648
vn -0.320292 0.228636 0.919314
vn -0.685977 0.647070 -0.332769
vn 0.530979 0.757227 0.380353
vn 0.150833 0.981470 0.118179
vn 0.202467 0.977675 0.056199
vn 0.690687 0.709959 0.137512
vn 0.773120 0.615379 0.153603
vn 0.731146 0.681817 -0.023482
vn -0.791945 0.181594 -0.582964
vn -0.814150 0.177659 -0.552808
vn 0.291896 0.287027 -0.912366
vn 0.804710 0.593423 -0.017074
vn 0.700795 0.573003 -0.424917
vn 0.744444 0.335931 -0.577022
vn 0.933951 0.342328 0.102696
vn 0.906924 0.350146 0.234279
vn 0.943394 0.319194 0.090131
vn 0.746776 0.307219 -0.589867
vn 0.000000 -1.000000 0.000000
vn 0.000000 -1.000000 -0.000000
vn -0.814823 0.135130 -0.563740
vn -0.932039 0.232892 -0.277603
vn 0.819600 -0.557362 0.132678
vn 0.787839 -0.580100 0.206869
vn 0.792362 -0.577448 0.196764
vn 0.743248 0.251115 0.620100
vn 0.918266 0.311031 0.245046
vn -0.000000 -1.000000 0.000000
vn 0.000000 -1.000000 0.000000
vn 0.279244 0.237122 -0.930481
vn 0.000000 -1.000000 0.000000
vn 0.709625 0.231982 0.665294
vn -0.318096 0.188190 0.929193
vn 0.000000 -1.000000 0.000000
vn -0.790239 0.128561 -0.599161
vn 0.000000 -1.000000 -0.000000
vn -0.000000 -1.000000 0.000000
vn -0.933613 -0.298806 0.197690
vn -0.933613 -0.298806 0.197690
vn -0.933613 -0.298806 0.197690
vn -0.271129 -0.438908 -0.856650
vn -0.271129 -0.438908 -0.856650
vn -0.271129 -0.438908 -0.856650
s 1
g stone_1 pCube1
usemtl initialShadingGroup
f 193/263/281 195/264/282 255/389/283 254/348/284
s 2
f 194/266/285 193/265/286 199/377/287 198/345/288
s 3
f 195/350/289 194/266/290 224/291/291 223/351/292
s 4
f 196/267/293 199/268/294 286/333/295 285/343/296
s 2
f 197/271/297 196/269/298 227/270/299 226/356/300
s 3
f 198/345/301 197/271/302 279/302/303 278/292/304
f 200/272/305 202/353/306 222/294/307 221/355/308
f 201/273/309 200/272/305 204/275/310 203/346/311
f 202/378/306 201/273/309 235/303/312 234/274/313
f 203/346/311 206/359/314 282/311/315 281/304/316
f 205/276/317 204/275/310 277/293/318 280/301/319
f 206/359/314 205/276/317 236/299/320 238/360/321
f 207/277/322 209/366/323 233/306/324 232/278/325
f 208/280/326 207/279/322 213/282/327 212/354/328
f 209/379/323 208/280/326 244/320/329 243/281/330
f 210/283/331 213/282/327 284/305/332 283/310/333
f 211/284/334 210/283/331 249/386/335 248/361/336
f 212/354/328 211/284/334 271/325/337 270/321/338
f 214/286/339 216/285/340 246/385/341 245/347/342
s 2
f 215/380/343 214/286/344 218/289/345 217/369/346
s 1
f 216/367/347 215/287/348 257/288/349 256/368/350
s 4
f 217/369/351 220/371/352 288/344/353 287/332/354
s 3
f 219/290/355 218/289/356 269/322/357 272/324/358
s 2
f 220/371/359 219/290/360 258/330/361 260/372/362
s 3
f 221/355/308 224/291/291 278/292/304 277/293/318
f 223/351/292 222/294/307 266/307/363 265/335/364
s 2
f 225/296/365 227/295/299 262/392/366 261/349/367
s 3
f 226/356/368 225/296/369 231/297/370 230/357/371
f 228/298/372 231/297/373 274/341/374 273/313/375
f 229/300/376 228/298/372 237/308/377 236/299/320
f 230/357/378 229/300/376 280/301/319 279/302/303
f 232/375/325 235/303/312 281/304/316 284/305/332
f 234/352/313 233/306/324 267/319/379 266/307/363
f 238/382/321 237/308/377 240/312/380 239/309/381
f 239/358/381 242/374/382 283/310/333 282/311/315
f 241/315/383 240/312/380 273/313/375 276/328/384
f 242/314/382 241/315/383 247/316/385 249/317/335
f 243/365/330 246/318/386 268/336/387 267/319/379
f 245/347/388 244/320/329 270/321/338 269/322/357
f 248/361/336 247/323/385 251/387/389 250/362/390
f 250/362/390 253/363/391 272/324/358 271/325/337
f 252/326/392 251/327/389 276/328/384 275/340/393
f 253/363/391 252/329/392 259/391/394 258/330/395
s 4
f 254/348/396 257/331/397 287/332/354 286/333/295
s 3
f 256/368/398 255/334/399 265/335/364 268/336/387
s 2
f 260/372/362 259/337/400 264/338/401 263/370/402
s 3
f 261/349/403 264/339/404 275/340/393 274/341/374
s 4
f 263/370/405 262/342/406 285/343/296 288/344/353
s 3
f 194/266/290 198/345/301 278/292/304 224/291/291
f 201/273/309 203/346/311 281/304/316 235/303/312
f 245/347/388 269/322/357 218/289/356 214/286/407
s 4
f 254/348/396 286/333/295 199/268/294 193/263/408
s 3
f 225/296/409 261/349/403 274/341/374 231/297/373
f 265/335/364 255/334/399 195/350/289 223/351/292
f 234/352/313 266/307/363 222/294/307 202/353/306
f 208/280/326 212/354/328 270/321/338 244/320/329
f 228/298/372 273/313/375 240/312/380 237/308/377
f 221/355/308 277/293/318 204/275/310 200/272/305
f 279/302/303 197/271/302 226/356/410 230/357/378
f 205/276/317 280/301/319 229/300/376 236/299/320
f 239/358/381 282/311/315 206/359/314 238/360/321
f 271/325/337 211/284/334 248/361/336 250/362/390
f 219/290/355 272/324/358 253/363/391 258/330/395
s 4
f 196/267/293 285/343/296 262/342/406 227/364/411
s 3
f 243/365/330 267/319/379 233/306/324 209/366/323
f 216/367/412 256/368/398 268/336/387 246/318/386
s 4
f 215/380/413 217/369/351 287/332/354 257/331/397
f 263/370/405 288/344/353 220/371/352 260/372/414
s 3
f 275/340/393 264/339/404 259/373/394 252/326/392
f 241/315/383 276/328/384 251/327/389 247/316/385
f 210/283/331 283/310/333 242/374/382 249/386/335
f 232/375/325 284/305/332 213/282/327 207/279/322
s off
f 193/265/415 194/266/416 195/350/417
s 2
f 196/376/298 197/271/297 198/345/288 199/377/287
s 3
f 200/272/305 201/273/309 202/378/306
f 203/346/311 204/275/310 205/276/317 206/359/314
f 207/279/322 208/280/326 209/379/323
f 210/283/331 211/284/334 212/354/328 213/282/327
s off
f 214/286/418 215/380/419 216/285/420
s 2
f 217/369/346 218/289/345 219/290/360 220/371/359
s 3
f 221/355/308 222/294/307 223/351/292 224/291/291
s 2
f 225/296/365 226/356/300 227/295/299
s 3
f 228/298/372 229/300/376 230/357/371 231/297/370
f 232/375/325 233/381/324 234/274/313 235/303/312
f 236/299/320 237/308/377 238/382/321
f 239/309/381 240/312/380 241/315/383 242/383/382
f 243/384/330 244/320/329 245/347/342 246/385/341
f 247/323/385 248/361/336 249/386/335
f 250/362/390 251/387/389 252/388/392 253/363/391
s 1
f 254/348/284 255/389/283 256/390/350 257/331/349
s 2
f 258/330/361 259/391/400 260/372/362
f 261/349/367 262/392/366 263/393/402 264/339/401
s 3
f 265/335/364 266/307/363 267/319/379 268/336/387
f 269/322/357 270/321/338 271/325/337 272/324/358
f 273/313/375 274/341/374 275/340/393 276/328/384
f 277/293/318 278/292/304 279/302/303 280/301/319
f 281/304/316 282/311/315 283/310/333 284/305/332
s 4
f 285/343/296 286/333/295 287/332/354 288/344/353
g default
v -1.159376 5.980069 1.505513
v -1.152428 5.999425 1.515900
v -1.173317 5.999349 1.505134
v -1.042181 5.980069 1.485779
v -1.036926 5.998171 1.499583
v -1.058353 5.998134 1.507872
v -1.063766 5.980069 1.494112
v -1.115681 6.156603 1.431902
v -1.119120 6.166269 1.411661
v -1.136742 6.156699 1.422541
v -1.095135 6.166269 1.412735
v -1.088158 6.156894 1.432625
v -1.066135 6.157399 1.423865
v -1.073637 6.166269 1.404434
v -1.144269 6.166269 1.348690
v -1.157854 6.160290 1.331110
v -1.166654 6.160965 1.352799
v -1.104010 6.166269 1.325360
v -1.111748 6.156601 1.304846
v -1.133754 6.156665 1.313368
v -1.125780 6.166269 1.333766
v -1.242796 5.998533 1.293475
v -1.238043 5.980069 1.305970
v -1.251211 5.997839 1.315650
v -1.157565 5.980069 1.251163
v -1.162759 5.998298 1.237518
v -1.141332 5.998261 1.229228
v -1.135981 5.980069 1.242829
v -1.133392 6.110878 1.468329
v -1.154034 6.111061 1.458780
v -1.159003 6.091085 1.470743
v -1.138818 6.091139 1.479821
v -0.945527 5.997730 1.423650
v -0.956112 5.997960 1.444710
v -0.959495 5.980069 1.429642
v -0.974509 6.110195 1.411296
v -0.984087 6.110287 1.432356
v -0.971074 6.089727 1.437859
v -0.961848 6.089727 1.417026
v -1.144334 6.166269 1.373122
v -1.164224 6.156894 1.380099
v -1.155464 6.157399 1.402122
v -1.136034 6.166269 1.394620
v -1.043695 6.158809 1.406118
v -1.034363 6.158971 1.384766
v -1.055927 6.166269 1.387817
v -1.055522 6.166269 1.363536
v -1.035632 6.156894 1.356559
v -1.044392 6.157399 1.334535
v -1.063823 6.166269 1.342037
v -1.218755 6.129896 1.338759
v -1.210396 6.129138 1.317455
v -1.224244 6.111060 1.312447
v -1.232428 6.111635 1.334030
v -1.062294 6.156183 1.314512
v -1.083950 6.156403 1.304990
v -1.080723 6.166269 1.324967
v -1.056699 6.089499 1.255372
v -1.036487 6.091451 1.265586
v -1.031343 6.068552 1.253020
v -1.050596 6.068092 1.243780
v -1.207524 5.980069 1.422245
v -1.221807 5.997459 1.427725
v -1.230099 5.997443 1.406258
v -1.215839 5.980069 1.400706
v -1.045217 5.999185 1.219593
v -1.023247 5.999422 1.228570
v -1.037828 5.980069 1.230341
v -0.952515 5.998618 1.323689
v -0.965957 5.980069 1.328993
v -0.974364 5.980069 1.307424
v -0.960764 5.998618 1.302324
v -1.206437 6.089943 1.421082
v -1.196263 6.110879 1.417748
v -1.208177 6.113868 1.397735
v -1.217763 6.092838 1.401079
v -1.154674 6.084190 1.258999
v -1.150588 6.106408 1.269990
v -1.129492 6.099982 1.260951
v -1.133129 6.079479 1.250954
v -0.991170 6.110339 1.338933
v -0.979910 6.090651 1.334545
v -0.989282 6.087547 1.313557
v -1.000490 6.107369 1.318025
v -1.071490 6.110713 1.472899
v -1.066929 6.090225 1.483667
v -1.044459 6.090177 1.478962
v -1.048617 6.110331 1.468634
v -1.106527 6.166269 1.383228
v -1.085029 6.166269 1.374928
v -1.093329 6.166269 1.353429
v -1.114827 6.166269 1.361730
v -1.085029 5.980069 1.374928
v -1.106527 5.980069 1.383228
v -1.114827 5.980069 1.361730
v -1.093329 5.980069 1.353429
vt 0.392316 0.984074
vt 0.381239 0.978907
vt 0.386121 0.006655
vt 0.388913 0.019875
vt 0.511879 0.984154
vt 0.488121 0.984154
vt 0.516823 0.002569
vt 0.616244 0.002285
vt 0.513493 0.018944
vt 0.409259 0.231257
vt 0.403684 0.278684
vt 0.375000 0.346017
vt 0.482244 0.230685
vt 0.533118 0.232801
vt 0.131649 0.250000
vt 0.190571 0.250000
vt 0.401441 0.473559
vt 0.388071 0.516673
vt 0.375000 0.598343
vt 0.466464 0.471043
vt 0.533536 0.471043
vt 0.534026 0.516427
vt 0.375000 0.729103
vt 0.390520 0.730782
vt 0.136723 0.002460
vt 0.235621 0.002525
vt 0.488192 0.729769
vt 0.514003 0.728200
vt 0.387138 0.113563
vt 0.483926 0.113113
vt 0.483364 0.142280
vt 0.349482 0.142446
vt 0.633553 0.002388
vt 0.637874 0.018135
vt 0.639641 0.113442
vt 0.641706 0.141276
vt 0.609074 0.232658
vt 0.608111 0.141455
vt 0.522552 0.140174
vt 0.513756 0.113064
vt 0.400731 0.341882
vt 0.466882 0.341882
vt 0.466882 0.408118
vt 0.233704 0.231117
vt 0.267519 0.142603
vt 0.640578 0.233036
vt 0.713697 0.250000
vt 0.533118 0.408118
vt 0.533118 0.341882
vt 0.714999 0.231823
vt 0.727429 0.140187
vt 0.786303 0.250000
vt 0.783118 0.232801
vt 0.855992 0.231575
vt 0.844203 0.250000
vt 0.143379 0.114622
vt 0.234023 0.141979
vt 0.390727 0.606069
vt 0.475459 0.606997
vt 0.487877 0.635173
vt 0.625000 0.517272
vt 0.514166 0.637775
vt 0.521982 0.610821
vt 0.863313 0.113455
vt 0.857477 0.139745
vt 0.772971 0.139484
vt 0.625000 0.638586
vt 0.611845 0.725500
vt 0.390975 0.863146
vt 0.488168 0.863168
vt 0.488168 0.886832
vt 0.265520 0.017412
vt 0.266668 0.112824
vt 0.237043 0.115106
vt 0.620085 0.769481
vt 0.620089 0.863241
vt 0.765711 0.022220
vt 0.765363 0.113418
vt 0.736461 0.113550
vt 0.609105 0.886868
vt 0.511832 0.886832
vt 0.511832 0.863168
vt 0.484309 0.018023
vt 0.466882 0.275731
vt 0.390504 0.635414
vt 0.390975 0.886854
vt 0.736436 0.019843
vt 0.360470 0.019797
vt 0.362060 0.113583
vt 0.267337 0.231863
vt 0.341083 0.231445
vt 0.466199 0.516319
vt 0.399756 0.142028
vt 0.611570 0.018371
vt 0.610225 0.112976
vt 0.599269 0.341882
vt 0.533118 0.275731
vt 0.597804 0.277196
vt 0.608763 0.516285
vt 0.609502 0.610863
vt 0.613355 0.637657
vt 0.611545 0.985672
vt 0.152986 0.143683
vt 0.157833 0.232810
vt 0.143639 0.018193
vt 0.238190 0.017840
vt 0.488121 0.766036
vt 0.609057 0.863097
vt 0.511879 0.766036
vt 0.610185 0.765785
vt 0.861683 0.024805
vt 0.599269 0.408118
vt 0.400731 0.408118
vt 0.500000 0.007300
vt 0.481957 0.006621
vt 0.375000 0.280507
vt 0.375000 0.516524
vt 0.390759 0.764502
vt 0.375171 0.375000
vt 0.654399 0.250000
vt 0.750000 0.250000
vt 0.378379 0.625000
vt 0.375000 0.636881
vt 0.596382 0.471382
vt 0.625000 0.600386
vt 0.625000 0.625000
vt 0.377247 0.886821
vt 0.379766 0.875000
vt 0.625000 0.722330
vt 0.731310 0.002821
vt 0.746270 0.003730
vn -0.689328 -0.589195 0.421516
vn -0.689328 -0.589195 0.421516
vn -0.693248 -0.605799 0.390402
vn -0.692876 -0.604083 0.393709
vn 0.080711 -0.559110 0.825155
vn 0.080711 -0.559110 0.825155
vn 0.117869 -0.575103 0.809546
vn 0.124965 -0.578044 0.806380
vn -0.693691 0.292785 0.658080
vn -0.073943 0.333363 0.939894
vn -0.075073 0.358333 0.930570
vn -0.688545 0.318504 0.651507
vn 0.000000 -1.000000 0.000000
vn 0.000000 -1.000000 0.000000
vn 0.000000 -1.000000 0.000000
vn 0.000000 -1.000000 0.000000
vn 0.406472 -0.627476 0.664119
vn 0.411082 -0.627038 0.661690
vn 0.674619 -0.665273 0.319845
vn 0.460116 -0.619371 0.636138
vn 0.083133 0.299074 0.950602
vn 0.470951 0.202439 0.858617
vn 0.458824 0.252189 0.851986
vn 0.068473 0.329071 0.941819
vn -0.116604 0.695268 0.709229
vn -0.446618 0.699009 0.558497
vn -0.500578 0.597399 0.626527
vn -0.137919 0.599042 0.788750
vn -0.087445 0.975425 0.202234
vn 0.039382 0.716606 0.696365
vn 0.024863 0.977712 0.208475
vn -0.169891 0.978395 0.117811
vn -0.534227 0.723902 0.436541
vn 0.092382 0.981842 0.165684
vn 0.000000 1.000000 0.000000
vn 0.000000 1.000000 0.000000
vn 0.295326 0.758959 0.580314
vn 0.037946 0.606645 0.794067
vn 0.335467 0.645216 0.686409
vn 0.402226 0.785116 0.470964
vn 0.161624 0.984391 0.069657
vn -0.129064 0.989129 -0.070466
vn -0.521486 0.847014 0.103055
vn -0.555010 0.789093 0.263241
vn -0.169523 0.983978 0.055220
vn -0.317298 0.786417 -0.529972
vn -0.076129 0.982165 -0.171917
vn -0.245172 0.737149 -0.629684
vn -0.417501 0.694887 -0.585513
vn -0.667218 0.735622 0.116964
vn -0.033249 0.976716 -0.211943
vn -0.000000 1.000000 -0.000000
vn -0.000000 1.000000 -0.000000
vn -0.044562 0.672887 -0.738402
vn 0.084969 0.972923 -0.214943
vn 0.098897 0.657985 -0.746508
vn -0.048736 0.572377 -0.818541
vn -0.305534 0.608559 -0.732329
vn -0.914715 0.208066 -0.346418
vn -0.914715 0.208066 -0.346418
vn -0.894636 0.286081 -0.343196
vn -0.897455 0.276464 -0.343719
vn -0.457105 -0.594924 -0.661151
vn -0.457105 -0.594924 -0.661151
vn -0.421306 -0.603251 -0.677192
vn -0.426510 -0.602110 -0.674946
vn -0.739268 -0.651240 0.171378
vn -0.739268 -0.651240 0.171378
vn -0.732632 -0.653570 0.189991
vn -0.731945 -0.653792 0.191870
vn -0.000000 -1.000000 -0.000000
vn 0.000000 -1.000000 0.000000
vn 0.000000 -1.000000 0.000000
vn -0.000000 -1.000000 -0.000000
vn -0.129242 0.288410 -0.948745
vn -0.506213 0.243552 -0.827303
vn -0.498104 0.275825 -0.822078
vn -0.118046 0.324208 -0.938592
vn -0.125634 -0.578749 -0.805770
vn -0.132038 -0.581021 -0.803107
vn -0.063663 -0.556570 -0.828358
vn 0.290696 -0.603063 -0.742840
vn -0.613676 0.598340 0.515161
vn -0.787058 0.267838 0.555700
vn 0.792070 -0.609714 -0.029575
vn 0.781616 -0.616376 -0.095691
vn 0.780077 -0.616863 -0.104689
vn 0.889272 0.182145 0.419545
vn 0.889272 0.182145 0.419545
vn 0.873452 0.265479 0.408170
vn 0.873367 0.265846 0.408112
vn 0.727513 0.685966 -0.013280
vn 0.953317 0.268492 -0.138201
vn 0.936116 0.295592 -0.190559
vn 0.726772 0.654459 -0.208533
vn 0.479175 0.681049 0.553682
vn 0.617268 0.786562 -0.017342
vn 0.510519 0.228636 0.828913
vn -0.691228 0.647070 0.321720
vn 0.630236 0.757227 -0.171491
vn 0.186885 0.981470 -0.042315
vn 0.171438 0.977675 -0.121492
vn 0.542809 0.709959 -0.448683
vn 0.607345 0.615379 -0.502435
vn 0.443534 0.681817 -0.581725
vn -0.952139 0.181594 0.245877
vn -0.942781 0.177659 0.282138
vn -0.523064 0.287027 -0.802509
vn 0.494959 0.593423 -0.634716
vn 0.113112 0.573003 -0.811710
vn 0.022743 0.335931 -0.941612
vn 0.669443 0.342328 -0.659286
vn 0.754398 0.350146 -0.555231
vn 0.665664 0.319194 -0.674542
vn 0.014256 0.307219 -0.951532
vn 0.000000 -1.000000 0.000000
vn -0.000000 -1.000000 -0.000000
vn -0.951682 0.135130 0.275756
vn -0.803851 0.232892 0.547344
vn 0.620474 -0.557362 -0.551688
vn 0.657939 -0.580100 -0.480208
vn 0.652962 -0.577448 -0.490097
vn 0.950179 0.251115 -0.184668
vn 0.769909 0.311031 -0.557225
vn 0.000000 -1.000000 0.000000
vn 0.000000 -1.000000 0.000000
vn -0.545099 0.237122 -0.804139
vn 0.000000 -1.000000 0.000000
vn 0.963986 0.231982 -0.130056
vn 0.519564 0.188190 0.833449
vn 0.000000 -1.000000 0.000000
vn -0.963620 0.128561 0.234326
vn -0.000000 -1.000000 -0.000000
vn 0.000000 -1.000000 0.000000
vn -0.436325 -0.298805 0.848726
vn -0.436325 -0.298806 0.848726
vn -0.436325 -0.298806 0.848726
vn -0.835431 -0.438908 -0.330780
vn -0.835431 -0.438908 -0.330780
vn -0.835431 -0.438908 -0.330780
s 1
g stone_1 pCube5
usemtl initialShadingGroup
f 289/394/421 291/395/422 351/520/423 350/479/424
s 2
f 290/397/425 289/396/426 295/508/427 294/476/428
s 3
f 291/481/429 290/397/430 320/422/431 319/482/432
s 4
f 292/398/433 295/399/434 382/464/435 381/474/436
s 2
f 293/402/437 292/400/438 323/401/439 322/487/440
s 3
f 294/476/441 293/402/442 375/433/443 374/423/444
f 296/403/445 298/484/446 318/425/447 317/486/448
f 297/404/449 296/403/445 300/406/450 299/477/451
f 298/509/446 297/404/449 331/434/452 330/405/453
f 299/477/451 302/490/454 378/442/455 377/435/456
f 301/407/457 300/406/450 373/424/458 376/432/459
f 302/490/454 301/407/457 332/430/460 334/491/461
f 303/408/462 305/497/463 329/437/464 328/409/465
f 304/411/466 303/410/462 309/413/467 308/485/468
f 305/510/463 304/411/466 340/451/469 339/412/470
f 306/414/471 309/413/467 380/436/472 379/441/473
f 307/415/474 306/414/471 345/517/475 344/492/476
f 308/485/468 307/415/474 367/456/477 366/452/478
f 310/417/479 312/416/480 342/516/481 341/478/482
s 2
f 311/511/483 310/417/484 314/420/485 313/500/486
s 1
f 312/498/487 311/418/488 353/419/489 352/499/490
s 4
f 313/500/491 316/502/492 384/475/493 383/463/494
s 3
f 315/421/495 314/420/496 365/453/497 368/455/498
s 2
f 316/502/499 315/421/500 354/461/501 356/503/502
s 3
f 317/486/448 320/422/431 374/423/444 373/424/458
f 319/482/432 318/425/447 362/438/503 361/466/504
s 2
f 321/427/505 323/426/439 358/523/506 357/480/507
s 3
f 322/487/508 321/427/509 327/428/510 326/488/511
f 324/429/512 327/428/513 370/472/514 369/444/515
f 325/431/516 324/429/512 333/439/517 332/430/460
f 326/488/518 325/431/516 376/432/459 375/433/443
f 328/506/465 331/434/452 377/435/456 380/436/472
f 330/483/453 329/437/464 363/450/519 362/438/503
f 334/513/461 333/439/517 336/443/520 335/440/521
f 335/489/521 338/505/522 379/441/473 378/442/455
f 337/446/523 336/443/520 369/444/515 372/459/524
f 338/445/522 337/446/523 343/447/525 345/448/475
f 339/496/470 342/449/526 364/467/527 363/450/519
f 341/478/528 340/451/469 366/452/478 365/453/497
f 344/492/476 343/454/525 347/518/529 346/493/530
f 346/493/530 349/494/531 368/455/498 367/456/477
f 348/457/532 347/458/529 372/459/524 371/471/533
f 349/494/531 348/460/532 355/522/534 354/461/535
s 4
f 350/479/536 353/462/537 383/463/494 382/464/435
s 3
f 352/499/538 351/465/539 361/466/504 364/467/527
s 2
f 356/503/502 355/468/540 360/469/541 359/501/542
s 3
f 357/480/543 360/470/544 371/471/533 370/472/514
s 4
f 359/501/545 358/473/546 381/474/436 384/475/493
s 3
f 290/397/430 294/476/441 374/423/444 320/422/431
f 297/404/449 299/477/451 377/435/456 331/434/452
f 341/478/528 365/453/497 314/420/496 310/417/547
s 4
f 350/479/536 382/464/435 295/399/434 289/394/548
s 3
f 321/427/549 357/480/543 370/472/514 327/428/513
f 361/466/504 351/465/539 291/481/429 319/482/432
f 330/483/453 362/438/503 318/425/447 298/484/446
f 304/411/466 308/485/468 366/452/478 340/451/469
f 324/429/512 369/444/515 336/443/520 333/439/517
f 317/486/448 373/424/458 300/406/450 296/403/445
f 375/433/443 293/402/442 322/487/550 326/488/518
f 301/407/457 376/432/459 325/431/516 332/430/460
f 335/489/521 378/442/455 302/490/454 334/491/461
f 367/456/477 307/415/474 344/492/476 346/493/530
f 315/421/495 368/455/498 349/494/531 354/461/535
s 4
f 292/398/433 381/474/436 358/473/546 323/495/551
s 3
f 339/496/470 363/450/519 329/437/464 305/497/463
f 312/498/552 352/499/538 364/467/527 342/449/526
s 4
f 311/511/553 313/500/491 383/463/494 353/462/537
f 359/501/545 384/475/493 316/502/492 356/503/554
s 3
f 371/471/533 360/470/544 355/504/534 348/457/532
f 337/446/523 372/459/524 347/458/529 343/447/525
f 306/414/471 379/441/473 338/505/522 345/517/475
f 328/506/465 380/436/472 309/413/467 303/410/462
s off
f 289/396/555 290/397/556 291/481/557
s 2
f 292/507/438 293/402/437 294/476/428 295/508/427
s 3
f 296/403/445 297/404/449 298/509/446
f 299/477/451 300/406/450 301/407/457 302/490/454
f 303/410/462 304/411/466 305/510/463
f 306/414/471 307/415/474 308/485/468 309/413/467
s off
f 310/417/558 311/511/559 312/416/560
s 2
f 313/500/486 314/420/485 315/421/500 316/502/499
s 3
f 317/486/448 318/425/447 319/482/432 320/422/431
s 2
f 321/427/505 322/487/440 323/426/439
s 3
f 324/429/512 325/431/516 326/488/511 327/428/510
f 328/506/465 329/512/464 330/405/453 331/434/452
f 332/430/460 333/439/517 334/513/461
f 335/440/521 336/443/520 337/446/523 338/514/522
f 339/515/470 340/451/469 341/478/482 342/516/481
f 343/454/525 344/492/476 345/517/475
f 346/493/530 347/518/529 348/519/532 349/494/531
s 1
f 350/479/424 351/520/423 352/521/490 353/462/489
s 2
f 354/461/501 355/522/540 356/503/502
f 357/480/507 358/523/506 359/524/542 360/470/541
s 3
f 361/466/504 362/438/503 363/450/519 364/467/527
f 365/453/497 366/452/478 367/456/477 368/455/498
f 369/444/515 370/472/514 371/471/533 372/459/524
f 373/424/458 374/423/444 375/433/443 376/432/459
f 377/435/456 378/442/455 379/441/473 380/436/472
s 4
f 381/474/436 382/464/435 383/463/494 384/475/493
g default
v 1.168479 5.980069 -0.259151
v 1.175427 5.999425 -0.248765
v 1.154537 5.999349 -0.259531
v 1.285674 5.980069 -0.278886
v 1.290929 5.998171 -0.265082
v 1.269502 5.998134 -0.256792
v 1.264089 5.980069 -0.270552
v 1.212173 6.156603 -0.332763
v 1.208735 6.166269 -0.353004
v 1.191113 6.156699 -0.342124
v 1.232720 6.166269 -0.351930
v 1.239697 6.156894 -0.332040
v 1.261720 6.157399 -0.340800
v 1.254218 6.166269 -0.360230
v 1.183586 6.166269 -0.415975
v 1.170001 6.160290 -0.433555
v 1.161201 6.160965 -0.411865
v 1.223845 6.166269 -0.439304
v 1.216107 6.156601 -0.459819
v 1.194101 6.156665 -0.451296
v 1.202075 6.166269 -0.430899
v 1.085059 5.998533 -0.471190
v 1.089812 5.980069 -0.458694
v 1.076644 5.997839 -0.449014
v 1.170289 5.980069 -0.513502
v 1.165095 5.998298 -0.527147
v 1.186523 5.998261 -0.535437
v 1.191873 5.980069 -0.521835
v 1.194462 6.110878 -0.296336
v 1.173820 6.111061 -0.305885
v 1.168851 6.091085 -0.293922
v 1.189036 6.091139 -0.284843
v 1.382327 5.997730 -0.341015
v 1.371743 5.997960 -0.319954
v 1.368359 5.980069 -0.335023
v 1.353346 6.110195 -0.353368
v 1.343768 6.110287 -0.332309
v 1.356780 6.089727 -0.326806
v 1.366007 6.089727 -0.347638
v 1.183521 6.166269 -0.391543
v 1.163631 6.156894 -0.384566
v 1.172390 6.157399 -0.362542
v 1.191821 6.166269 -0.370044
v 1.284159 6.158809 -0.358547
v 1.293492 6.158971 -0.379899
v 1.271928 6.166269 -0.376847
v 1.272332 6.166269 -0.401129
v 1.292223 6.156894 -0.408106
v 1.283463 6.157399 -0.430129
v 1.264032 6.166269 -0.422627
v 1.109100 6.129896 -0.425905
v 1.117458 6.129138 -0.447209
v 1.103610 6.111060 -0.452217
v 1.095427 6.111635 -0.430634
v 1.265561 6.156183 -0.450153
v 1.243904 6.156403 -0.459675
v 1.247132 6.166269 -0.439697
v 1.271156 6.089499 -0.509292
v 1.291367 6.091451 -0.499078
v 1.296512 6.068552 -0.511644
v 1.277259 6.068092 -0.520884
v 1.120331 5.980069 -0.342420
v 1.106048 5.997459 -0.336940
v 1.097756 5.997443 -0.358407
v 1.112015 5.980069 -0.363958
v 1.282638 5.999185 -0.545072
v 1.304608 5.999422 -0.536095
v 1.290026 5.980069 -0.534324
v 1.375340 5.998618 -0.440975
v 1.361898 5.980069 -0.435672
v 1.353490 5.980069 -0.457241
v 1.367091 5.998618 -0.462341
v 1.121418 6.089943 -0.343582
v 1.131592 6.110879 -0.346916
v 1.119678 6.113868 -0.366930
v 1.110092 6.092838 -0.363585
v 1.173180 6.084190 -0.505666
v 1.177266 6.106408 -0.494674
v 1.198363 6.099982 -0.503714
v 1.194726 6.079479 -0.513710
v 1.336685 6.110339 -0.425731
v 1.347945 6.090651 -0.430120
v 1.338572 6.087547 -0.451107
v 1.327365 6.107369 -0.446640
v 1.256365 6.110713 -0.291766
v 1.260926 6.090225 -0.280997
v 1.283396 6.090177 -0.285702
v 1.279238 6.110331 -0.296030
v 1.221328 6.166269 -0.381436
v 1.242826 6.166269 -0.389737
v 1.234526 6.166269 -0.411235
v 1.213027 6.166269 -0.402935
v 1.242826 5.980069 -0.389737
v 1.221328 5.980069 -0.381436
v 1.213027 5.980069 -0.402935
v 1.234526 5.980069 -0.411235
vt 0.392316 0.984074
vt 0.381239 0.978907
vt 0.386121 0.006655
vt 0.388913 0.019875
vt 0.511879 0.984154
vt 0.488121 0.984154
vt 0.516823 0.002569
vt 0.616244 0.002285
vt 0.513493 0.018944
vt 0.409259 0.231257
vt 0.403684 0.278684
vt 0.375000 0.346017
vt 0.482244 0.230685
vt 0.533118 0.232801
vt 0.131649 0.250000
vt 0.190571 0.250000
vt 0.401441 0.473559
vt 0.388071 0.516673
vt 0.375000 0.598343
vt 0.466464 0.471043
vt 0.533536 0.471043
vt 0.534026 0.516427
vt 0.375000 0.729103
vt 0.390520 0.730782
vt 0.136723 0.002460
vt 0.235621 0.002525
vt 0.488192 0.729769
vt 0.514003 0.728200
vt 0.387138 0.113563
vt 0.483926 0.113113
vt 0.483364 0.142280
vt 0.349482 0.142446
vt 0.633553 0.002388
vt 0.637874 0.018135
vt 0.639641 0.113442
vt 0.641706 0.141276
vt 0.609074 0.232658
vt 0.608111 0.141455
vt 0.522552 0.140174
vt 0.513756 0.113064
vt 0.400731 0.341882
vt 0.466882 0.341882
vt 0.466882 0.408118
vt 0.233704 0.231117
vt 0.267519 0.142603
vt 0.640578 0.233036
vt 0.713697 0.250000
vt 0.533118 0.408118
vt 0.533118 0.341882
vt 0.714999 0.231823
vt 0.727429 0.140187
vt 0.786303 0.250000
vt 0.783118 0.232801
vt 0.855992 0.231575
vt 0.844203 0.250000
vt 0.143379 0.114622
vt 0.234023 0.141979
vt 0.390727 0.606069
vt 0.475459 0.606997
vt 0.487877 0.635173
vt 0.625000 0.517272
vt 0.514166 0.637775
vt 0.521982 0.610821
vt 0.863313 0.113455
vt 0.857477 0.139745
vt 0.772971 0.139484
vt 0.625000 0.638586
vt 0.611845 0.725500
vt 0.390975 0.863146
vt 0.488168 0.863168
vt 0.488168 0.886832
vt 0.265520 0.017412
vt 0.266668 0.112824
vt 0.237043 0.115106
vt 0.620085 0.769481
vt 0.620089 0.863241
vt 0.765711 0.022220
vt 0.765363 0.113418
vt 0.736461 0.113550
vt 0.609105 0.886868
vt 0.511832 0.886832
vt 0.511832 0.863168
vt 0.484309 0.018023
vt 0.466882 0.275731
vt 0.390504 0.635414
vt 0.390975 0.886854
vt 0.736436 0.019843
vt 0.360470 0.019797
vt 0.362060 0.113583
vt 0.267337 0.231863
vt 0.341083 0.231445
vt 0.466199 0.516319
vt 0.399756 0.142028
vt 0.611570 0.018371
vt 0.610225 0.112976
vt 0.599269 0.341882
vt 0.533118 0.275731
vt 0.597804 0.277196
vt 0.608763 0.516285
vt 0.609502 0.610863
vt 0.613355 0.637657
vt 0.611545 0.985672
vt 0.152986 0.143683
vt 0.157833 0.232810
vt 0.143639 0.018193
vt 0.238190 0.017840
vt 0.488121 0.766036
vt 0.609057 0.863097
vt 0.511879 0.766036
vt 0.610185 0.765785
vt 0.861683 0.024805
vt 0.599269 0.408118
vt 0.400731 0.408118
vt 0.500000 0.007300
vt 0.481957 0.006621
vt 0.375000 0.280507
vt 0.375000 0.516524
vt 0.390759 0.764502
vt 0.375171 0.375000
vt 0.654399 0.250000
vt 0.750000 0.250000
vt 0.378379 0.625000
vt 0.375000 0.636881
vt 0.596382 0.471382
vt 0.625000 0.600386
vt 0.625000 0.625000
vt 0.377247 0.886821
vt 0.379766 0.875000
vt 0.625000 0.722330
vt 0.731310 0.002821
vt 0.746270 0.003730
vn -0.689328 -0.589195 0.421516
vn -0.689328 -0.589195 0.421516
vn -0.693248 -0.605799 0.390402
vn -0.692876 -0.604083 0.393709
vn 0.080711 -0.559110 0.825155
vn 0.080711 -0.559110 0.825155
vn 0.117869 -0.575103 0.809546
vn 0.124965 -0.578044 0.806380
vn -0.693691 0.292785 0.658080
vn -0.073943 0.333363 0.939894
vn -0.075073 0.358333 0.930570
vn -0.688545 0.318504 0.651507
vn 0.000000 -1.000000 0.000000
vn 0.000000 -1.000000 0.000000
vn 0.000000 -1.000000 0.000000
vn 0.000000 -1.000000 0.000000
vn 0.406472 -0.627476 0.664119
vn 0.411082 -0.627038 0.661690
vn 0.674619 -0.665273 0.319845
vn 0.460116 -0.619371 0.636138
vn 0.083133 0.299074 0.950602
vn 0.470951 0.202439 0.858617
vn 0.458824 0.252189 0.851986
vn 0.068473 0.329071 0.941819
vn -0.116604 0.695268 0.709229
vn -0.446618 0.699009 0.558497
vn -0.500578 0.597399 0.626527
vn -0.137919 0.599042 0.788750
vn -0.087445 0.975425 0.202234
vn 0.039382 0.716606 0.696365
vn 0.024863 0.977712 0.208475
vn -0.169891 0.978395 0.117811
vn -0.534227 0.723902 0.436541
vn 0.092382 0.981842 0.165684
vn 0.000000 1.000000 0.000000
vn 0.000000 1.000000 0.000000
vn 0.295326 0.758959 0.580314
vn 0.037946 0.606645 0.794067
vn 0.335467 0.645216 0.686409
vn 0.402226 0.785116 0.470964
vn 0.161624 0.984391 0.069657
vn -0.129064 0.989129 -0.070466
vn -0.521486 0.847014 0.103055
vn -0.555010 0.789093 0.263241
vn -0.169523 0.983978 0.055220
vn -0.317298 0.786417 -0.529972
vn -0.076129 0.982165 -0.171917
vn -0.245172 0.737149 -0.629684
vn -0.417501 0.694887 -0.585513
vn -0.667218 0.735622 0.116964
vn -0.033249 0.976716 -0.211943
vn -0.000000 1.000000 -0.000000
vn -0.000000 1.000000 -0.000000
vn -0.044562 0.672887 -0.738402
vn 0.084969 0.972923 -0.214943
vn 0.098897 0.657985 -0.746508
vn -0.048736 0.572377 -0.818541
vn -0.305534 0.608559 -0.732329
vn -0.914715 0.208066 -0.346418
vn -0.914715 0.208066 -0.346418
vn -0.894636 0.286081 -0.343196
vn -0.897455 0.276464 -0.343719
vn -0.457105 -0.594924 -0.661151
vn -0.457105 -0.594924 -0.661151
vn -0.421306 -0.603251 -0.677192
vn -0.426510 -0.602110 -0.674946
vn -0.739268 -0.651240 0.171378
vn -0.739268 -0.651240 0.171378
vn -0.732632 -0.653570 0.189991
vn -0.731945 -0.653792 0.191870
vn -0.000000 -1.000000 -0.000000
vn 0.000000 -1.000000 0.000000
vn 0.000000 -1.000000 0.000000
vn -0.000000 -1.000000 -0.000000
vn -0.129242 0.288410 -0.948745
vn -0.506213 0.243552 -0.827303
vn -0.498104 0.275825 -0.822078
vn -0.118046 0.324208 -0.938592
vn -0.125634 -0.578749 -0.805770
vn -0.132038 -0.581021 -0.803107
vn -0.063663 -0.556570 -0.828358
vn 0.290696 -0.603063 -0.742840
vn -0.613676 0.598340 0.515161
vn -0.787058 0.267838 0.555700
vn 0.792070 -0.609714 -0.029575
vn 0.781616 -0.616376 -0.095691
vn 0.780077 -0.616863 -0.104689
vn 0.889272 0.182145 0.419545
vn 0.889272 0.182145 0.419545
vn 0.873452 0.265479 0.408170
vn 0.873367 0.265846 0.408112
vn 0.727513 0.685966 -0.013280
vn 0.953317 0.268492 -0.138201
vn 0.936116 0.295592 -0.190559
vn 0.726772 0.654459 -0.208533
vn 0.479175 0.681049 0.553682
vn 0.617268 0.786562 -0.017342
vn 0.510519 0.228636 0.828913
vn -0.691228 0.647070 0.321720
vn 0.630236 0.757227 -0.171491
vn 0.186885 0.981470 -0.042315
vn 0.171438 0.977675 -0.121492
vn 0.542809 0.709959 -0.448683
vn 0.607345 0.615379 -0.502435
vn 0.443534 0.681817 -0.581725
vn -0.952139 0.181594 0.245877
vn -0.942781 0.177659 0.282138
vn -0.523064 0.287027 -0.802509
vn 0.494959 0.593423 -0.634716
vn 0.113112 0.573003 -0.811710
vn 0.022743 0.335931 -0.941612
vn 0.669443 0.342328 -0.659286
vn 0.754398 0.350146 -0.555231
vn 0.665664 0.319194 -0.674542
vn 0.014256 0.307219 -0.951532
vn 0.000000 -1.000000 0.000000
vn -0.000000 -1.000000 -0.000000
vn -0.951682 0.135130 0.275756
vn -0.803851 0.232892 0.547344
vn 0.620474 -0.557362 -0.551688
vn 0.657939 -0.580100 -0.480208
vn 0.652962 -0.577448 -0.490097
vn 0.950179 0.251115 -0.184668
vn 0.769909 0.311031 -0.557225
vn 0.000000 -1.000000 0.000000
vn 0.000000 -1.000000 0.000000
vn -0.545099 0.237122 -0.804139
vn 0.000000 -1.000000 0.000000
vn 0.963986 0.231982 -0.130056
vn 0.519564 0.188190 0.833449
vn 0.000000 -1.000000 0.000000
vn -0.963620 0.128561 0.234326
vn -0.000000 -1.000000 -0.000000
vn 0.000000 -1.000000 0.000000
vn -0.436325 -0.298805 0.848726
vn -0.436325 -0.298806 0.848726
vn -0.436325 -0.298806 0.848726
vn -0.835431 -0.438908 -0.330780
vn -0.835431 -0.438908 -0.330780
vn -0.835431 -0.438908 -0.330780
s 1
g stone_1 pCube6
usemtl initialShadingGroup
f 385/525/561 387/526/562 447/651/563 446/610/564
s 2
f 386/528/565 385/527/566 391/639/567 390/607/568
s 3
f 387/612/569 386/528/570 416/553/571 415/613/572
s 4
f 388/529/573 391/530/574 478/595/575 477/605/576
s 2
f 389/533/577 388/531/578 419/532/579 418/618/580
s 3
f 390/607/581 389/533/582 471/564/583 470/554/584
f 392/534/585 394/615/586 414/556/587 413/617/588
f 393/535/589 392/534/585 396/537/590 395/608/591
f 394/640/586 393/535/589 427/565/592 426/536/593
f 395/608/591 398/621/594 474/573/595 473/566/596
f 397/538/597 396/537/590 469/555/598 472/563/599
f 398/621/594 397/538/597 428/561/600 430/622/601
f 399/539/602 401/628/603 425/568/604 424/540/605
f 400/542/606 399/541/602 405/544/607 404/616/608
f 401/641/603 400/542/606 436/582/609 435/543/610
f 402/545/611 405/544/607 476/567/612 475/572/613
f 403/546/614 402/545/611 441/648/615 440/623/616
f 404/616/608 403/546/614 463/587/617 462/583/618
f 406/548/619 408/547/620 438/647/621 437/609/622
s 2
f 407/642/623 406/548/624 410/551/625 409/631/626
s 1
f 408/629/627 407/549/628 449/550/629 448/630/630
s 4
f 409/631/631 412/633/632 480/606/633 479/594/634
s 3
f 411/552/635 410/551/636 461/584/637 464/586/638
s 2
f 412/633/639 411/552/640 450/592/641 452/634/642
s 3
f 413/617/588 416/553/571 470/554/584 469/555/598
f 415/613/572 414/556/587 458/569/643 457/597/644
s 2
f 417/558/645 419/557/579 454/654/646 453/611/647
s 3
f 418/618/648 417/558/649 423/559/650 422/619/651
f 420/560/652 423/559/653 466/603/654 465/575/655
f 421/562/656 420/560/652 429/570/657 428/561/600
f 422/619/658 421/562/656 472/563/599 471/564/583
f 424/637/605 427/565/592 473/566/596 476/567/612
f 426/614/593 425/568/604 459/581/659 458/569/643
f 430/644/601 429/570/657 432/574/660 431/571/661
f 431/620/661 434/636/662 475/572/613 474/573/595
f 433/577/663 432/574/660 465/575/655 468/590/664
f 434/576/662 433/577/663 439/578/665 441/579/615
f 435/627/610 438/580/666 460/598/667 459/581/659
f 437/609/668 436/582/609 462/583/618 461/584/637
f 440/623/616 439/585/665 443/649/669 442/624/670
f 442/624/670 445/625/671 464/586/638 463/587/617
f 444/588/672 443/589/669 468/590/664 467/602/673
f 445/625/671 444/591/672 451/653/674 450/592/675
s 4
f 446/610/676 449/593/677 479/594/634 478/595/575
s 3
f 448/630/678 447/596/679 457/597/644 460/598/667
s 2
f 452/634/642 451/599/680 456/600/681 455/632/682
s 3
f 453/611/683 456/601/684 467/602/673 466/603/654
s 4
f 455/632/685 454/604/686 477/605/576 480/606/633
s 3
f 386/528/570 390/607/581 470/554/584 416/553/571
f 393/535/589 395/608/591 473/566/596 427/565/592
f 437/609/668 461/584/637 410/551/636 406/548/687
s 4
f 446/610/676 478/595/575 391/530/574 385/525/688
s 3
f 417/558/689 453/611/683 466/603/654 423/559/653
f 457/597/644 447/596/679 387/612/569 415/613/572
f 426/614/593 458/569/643 414/556/587 394/615/586
f 400/542/606 404/616/608 462/583/618 436/582/609
f 420/560/652 465/575/655 432/574/660 429/570/657
f 413/617/588 469/555/598 396/537/590 392/534/585
f 471/564/583 389/533/582 418/618/690 422/619/658
f 397/538/597 472/563/599 421/562/656 428/561/600
f 431/620/661 474/573/595 398/621/594 430/622/601
f 463/587/617 403/546/614 440/623/616 442/624/670
f 411/552/635 464/586/638 445/625/671 450/592/675
s 4
f 388/529/573 477/605/576 454/604/686 419/626/691
s 3
f 435/627/610 459/581/659 425/568/604 401/628/603
f 408/629/692 448/630/678 460/598/667 438/580/666
s 4
f 407/642/693 409/631/631 479/594/634 449/593/677
f 455/632/685 480/606/633 412/633/632 452/634/694
s 3
f 467/602/673 456/601/684 451/635/674 444/588/672
f 433/577/663 468/590/664 443/589/669 439/578/665
f 402/545/611 475/572/613 434/636/662 441/648/615
f 424/637/605 476/567/612 405/544/607 399/541/602
s off
f 385/527/695 386/528/696 387/612/697
s 2
f 388/638/578 389/533/577 390/607/568 391/639/567
s 3
f 392/534/585 393/535/589 394/640/586
f 395/608/591 396/537/590 397/538/597 398/621/594
f 399/541/602 400/542/606 401/641/603
f 402/545/611 403/546/614 404/616/608 405/544/607
s off
f 406/548/698 407/642/699 408/547/700
s 2
f 409/631/626 410/551/625 411/552/640 412/633/639
s 3
f 413/617/588 414/556/587 415/613/572 416/553/571
s 2
f 417/558/645 418/618/580 419/557/579
s 3
f 420/560/652 421/562/656 422/619/651 423/559/650
f 424/637/605 425/643/604 426/536/593 427/565/592
f 428/561/600 429/570/657 430/644/601
f 431/571/661 432/574/660 433/577/663 434/645/662
f 435/646/610 436/582/609 437/609/622 438/647/621
f 439/585/665 440/623/616 441/648/615
f 442/624/670 443/649/669 444/650/672 445/625/671
s 1
f 446/610/564 447/651/563 448/652/630 449/593/629
s 2
f 450/592/641 451/653/680 452/634/642
f 453/611/647 454/654/646 455/655/682 456/601/681
s 3
f 457/597/644 458/569/643 459/581/659 460/598/667
f 461/584/637 462/583/618 463/587/617 464/586/638
f 465/575/655 466/603/654 467/602/673 468/590/664
f 469/555/598 470/554/584 471/564/583 472/563/599
f 473/566/596 474/573/595 475/572/613 476/567/612
s 4
f 477/605/576 478/595/575 479/594/634 480/606/633
g default
v -1.306609 5.979126 0.258290
v -1.285751 6.037231 0.289469
v -1.348460 6.037003 0.257151
v -0.954796 5.979126 0.199048
v -0.939021 6.033468 0.240488
v -1.003344 6.033357 0.265372
v -1.019592 5.979126 0.224065
v -1.175440 6.509069 0.037313
v -1.185763 6.538087 -0.023450
v -1.238663 6.509359 0.009212
v -1.113761 6.538087 -0.020226
v -1.092817 6.509945 0.039483
v -1.026704 6.511459 0.013187
v -1.049224 6.538087 -0.045143
v -1.261258 6.538087 -0.212484
v -1.302040 6.520138 -0.265258
v -1.328457 6.522165 -0.200148
v -1.140404 6.538087 -0.282518
v -1.163633 6.509065 -0.344102
v -1.229694 6.509256 -0.318518
v -1.205756 6.538087 -0.257286
v -1.557030 6.034554 -0.378236
v -1.542762 5.979126 -0.340726
v -1.582292 6.032470 -0.311668
v -1.301173 5.979126 -0.505254
v -1.316766 6.033849 -0.546216
v -1.252441 6.033738 -0.571102
v -1.236379 5.979126 -0.530271
v -1.228608 6.371806 0.146664
v -1.290574 6.372355 0.117999
v -1.305490 6.312390 0.153912
v -1.244896 6.312552 0.181164
v -0.664649 6.032143 0.012540
v -0.696423 6.032833 0.075763
v -0.706579 5.979126 0.030528
v -0.751649 6.369757 -0.024544
v -0.780400 6.370033 0.038676
v -0.741339 6.308314 0.055195
v -0.713640 6.308314 -0.007343
v -1.261453 6.538087 -0.139141
v -1.321163 6.509945 -0.118196
v -1.294866 6.511459 -0.052084
v -1.236536 6.538087 -0.074604
v -0.959343 6.515692 -0.040089
v -0.931327 6.516181 -0.104186
v -0.996061 6.538087 -0.095026
v -0.994846 6.538087 -0.167918
v -0.935137 6.509945 -0.188863
v -0.961433 6.511459 -0.254975
v -1.019763 6.538087 -0.232455
v -1.484860 6.428898 -0.242295
v -1.459769 6.426622 -0.306249
v -1.501340 6.372352 -0.321282
v -1.525906 6.374079 -0.256492
v -1.015174 6.507809 -0.315086
v -1.080186 6.508471 -0.343669
v -1.070497 6.538087 -0.283698
v -0.998378 6.307630 -0.492618
v -0.937705 6.313487 -0.461957
v -0.922260 6.244747 -0.499678
v -0.980057 6.243365 -0.527417
v -1.451145 5.979126 0.008323
v -1.494022 6.031331 0.024774
v -1.518915 6.031282 -0.039668
v -1.476109 5.979126 -0.056334
v -0.963910 6.036510 -0.600026
v -0.897956 6.037224 -0.573078
v -0.941730 5.979126 -0.567761
v -0.685624 6.034808 -0.287534
v -0.725976 5.979126 -0.271614
v -0.751215 5.979126 -0.336362
v -0.710387 6.034808 -0.351673
v -1.447883 6.308961 0.004833
v -1.417342 6.371810 -0.005175
v -1.453107 6.380783 -0.065254
v -1.481883 6.317652 -0.055214
v -1.292495 6.291692 -0.481732
v -1.280229 6.358390 -0.448736
v -1.216898 6.339099 -0.475871
v -1.227816 6.277549 -0.505880
v -0.801664 6.370188 -0.241772
v -0.767863 6.311085 -0.254946
v -0.795998 6.301768 -0.317951
v -0.829643 6.361273 -0.304539
v -1.042779 6.371311 0.160383
v -1.029087 6.309807 0.192710
v -0.961634 6.309664 0.178585
v -0.974117 6.370166 0.147582
v -1.147960 6.538087 -0.108803
v -1.083423 6.538087 -0.133720
v -1.108340 6.538087 -0.198256
v -1.172877 6.538087 -0.173339
v -1.083423 5.979126 -0.133720
v -1.147960 5.979126 -0.108803
v -1.172877 5.979126 -0.173339
v -1.108340 5.979126 -0.198256
vt 0.392316 0.984074
vt 0.381239 0.978907
vt 0.386121 0.006655
vt 0.388913 0.019875
vt 0.511879 0.984154
vt 0.488121 0.984154
vt 0.516823 0.002569
vt 0.616244 0.002285
vt 0.513493 0.018944
vt 0.409259 0.231257
vt 0.403684 0.278684
vt 0.375000 0.346017
vt 0.482244 0.230685
vt 0.533118 0.232801
vt 0.131649 0.250000
vt 0.190571 0.250000
vt 0.401441 0.473559
vt 0.388071 0.516673
vt 0.375000 0.598343
vt 0.466464 0.471043
vt 0.533536 0.471043
vt 0.534026 0.516427
vt 0.375000 0.729103
vt 0.390520 0.730782
vt 0.136723 0.002460
vt 0.235621 0.002525
vt 0.488192 0.729769
vt 0.514003 0.728200
vt 0.387138 0.113563
vt 0.483926 0.113113
vt 0.483364 0.142280
vt 0.349482 0.142446
vt 0.633553 0.002388
vt 0.637874 0.018135
vt 0.639641 0.113442
vt 0.641706 0.141276
vt 0.609074 0.232658
vt 0.608111 0.141455
vt 0.522552 0.140174
vt 0.513756 0.113064
vt 0.400731 0.341882
vt 0.466882 0.341882
vt 0.466882 0.408118
vt 0.233704 0.231117
vt 0.267519 0.142603
vt 0.640578 0.233036
vt 0.713697 0.250000
vt 0.533118 0.408118
vt 0.533118 0.341882
vt 0.714999 0.231823
vt 0.727429 0.140187
vt 0.786303 0.250000
vt 0.783118 0.232801
vt 0.855992 0.231575
vt 0.844203 0.250000
vt 0.143379 0.114622
vt 0.234023 0.141979
vt 0.390727 0.606069
vt 0.475459 0.606997
vt 0.487877 0.635173
vt 0.625000 0.517272
vt 0.514166 0.637775
vt 0.521982 0.610821
vt 0.863313 0.113455
vt 0.857477 0.139745
vt 0.772971 0.139484
vt 0.625000 0.638586
vt 0.611845 0.725500
vt 0.390975 0.863146
vt 0.488168 0.863168
vt 0.488168 0.886832
vt 0.265520 0.017412
vt 0.266668 0.112824
vt 0.237043 0.115106
vt 0.620085 0.769481
vt 0.620089 0.863241
vt 0.765711 0.022220
vt 0.765363 0.113418
vt 0.736461 0.113550
vt 0.609105 0.886868
vt 0.511832 0.886832
vt 0.511832 0.863168
vt 0.484309 0.018023
vt 0.466882 0.275731
vt 0.390504 0.635414
vt 0.390975 0.886854
vt 0.736436 0.019843
vt 0.360470 0.019797
vt 0.362060 0.113583
vt 0.267337 0.231863
vt 0.341083 0.231445
vt 0.466199 0.516319
vt 0.399756 0.142028
vt 0.611570 0.018371
vt 0.610225 0.112976
vt 0.599269 0.341882
vt 0.533118 0.275731
vt 0.597804 0.277196
vt 0.608763 0.516285
vt 0.609502 0.610863
vt 0.613355 0.637657
vt 0.611545 0.985672
vt 0.152986 0.143683
vt 0.157833 0.232810
vt 0.143639 0.018193
vt 0.238190 0.017840
vt 0.488121 0.766036
vt 0.609057 0.863097
vt 0.511879 0.766036
vt 0.610185 0.765785
vt 0.861683 0.024805
vt 0.599269 0.408118
vt 0.400731 0.408118
vt 0.500000 0.007300
vt 0.481957 0.006621
vt 0.375000 0.280507
vt 0.375000 0.516524
vt 0.390759 0.764502
vt 0.375171 0.375000
vt 0.654399 0.250000
vt 0.750000 0.250000
vt 0.378379 0.625000
vt 0.375000 0.636881
vt 0.596382 0.471382
vt 0.625000 0.600386
vt 0.625000 0.625000
vt 0.377247 0.886821
vt 0.379766 0.875000
vt 0.625000 0.722330
vt 0.731310 0.002821
vt 0.746270 0.003730
vn -0.689328 -0.589195 0.421516
vn -0.689328 -0.589195 0.421516
vn -0.693249 -0.605799 0.390402
vn -0.692876 -0.604083 0.393709
vn 0.080711 -0.559110 0.825155
vn 0.080711 -0.559110 0.825155
vn 0.117869 -0.575103 0.809546
vn 0.124965 -0.578044 0.806380
vn -0.693691 0.292785 0.658080
vn -0.073943 0.333363 0.939894
vn -0.075073 0.358333 0.930570
vn -0.688545 0.318504 0.651507
vn 0.000000 -1.000000 0.000000
vn 0.000000 -1.000000 0.000000
vn 0.000000 -1.000000 0.000000
vn 0.000000 -1.000000 0.000000
vn 0.406472 -0.627476 0.664119
vn 0.411082 -0.627038 0.661690
vn 0.674619 -0.665273 0.319845
vn 0.460116 -0.619371 0.636138
vn 0.083133 0.299074 0.950602
vn 0.470951 0.202439 0.858617
vn 0.458825 0.252189 0.851986
vn 0.068473 0.329071 0.941819
vn -0.116604 0.695268 0.709229
vn -0.446618 0.699009 0.558496
vn -0.500578 0.597399 0.626527
vn -0.137919 0.599042 0.788750
vn -0.087445 0.975425 0.202234
vn 0.039382 0.716606 0.696365
vn 0.024863 0.977712 0.208475
vn -0.169891 0.978395 0.117811
vn -0.534227 0.723902 0.436541
vn 0.092382 0.981842 0.165684
vn 0.000000 1.000000 0.000000
vn 0.000000 1.000000 0.000000
vn 0.295326 0.758959 0.580314
vn 0.037946 0.606645 0.794067
vn 0.335467 0.645216 0.686409
vn 0.402226 0.785116 0.470964
vn 0.161624 0.984391 0.069657
vn -0.129064 0.989129 -0.070466
vn -0.521486 0.847014 0.103055
vn -0.555010 0.789093 0.263241
vn -0.169523 0.983978 0.055220
vn -0.317298 0.786417 -0.529972
vn -0.076129 0.982165 -0.171917
vn -0.245172 0.737149 -0.629684
vn -0.417501 0.694887 -0.585513
vn -0.667218 0.735622 0.116964
vn -0.033249 0.976716 -0.211943
vn -0.000000 1.000000 -0.000000
vn -0.000000 1.000000 -0.000000
vn -0.044562 0.672886 -0.738402
vn 0.084969 0.972923 -0.214943
vn 0.098897 0.657985 -0.746508
vn -0.048736 0.572377 -0.818541
vn -0.305534 0.608559 -0.732329
vn -0.914715 0.208066 -0.346418
vn -0.914715 0.208066 -0.346418
vn -0.894636 0.286081 -0.343196
vn -0.897455 0.276464 -0.343719
vn -0.457105 -0.594924 -0.661151
vn -0.457105 -0.594924 -0.661151
vn -0.421306 -0.603251 -0.677192
vn -0.426510 -0.602110 -0.674946
vn -0.739268 -0.651240 0.171378
vn -0.739268 -0.651240 0.171378
vn -0.732632 -0.653570 0.189991
vn -0.731944 -0.653791 0.191870
vn -0.000000 -1.000000 -0.000000
vn 0.000000 -1.000000 0.000000
vn 0.000000 -1.000000 0.000000
vn -0.000000 -1.000000 -0.000000
vn -0.129242 0.288410 -0.948745
vn -0.506213 0.243552 -0.827303
vn -0.498104 0.275825 -0.822078
vn -0.118046 0.324208 -0.938592
vn -0.125634 -0.578749 -0.805770
vn -0.132038 -0.581021 -0.803107
vn -0.063663 -0.556569 -0.828358
vn 0.290696 -0.603063 -0.742840
vn -0.613676 0.598340 0.515161
vn -0.787058 0.267838 0.555700
vn 0.792070 -0.609714 -0.029575
vn 0.781616 -0.616376 -0.095691
vn 0.780077 -0.616863 -0.104689
vn 0.889272 0.182145 0.419545
vn 0.889272 0.182145 0.419545
vn 0.873452 0.265479 0.408170
vn 0.873367 0.265846 0.408112
vn 0.727513 0.685966 -0.013279
vn 0.953317 0.268492 -0.138201
vn 0.936116 0.295592 -0.190559
vn 0.726772 0.654459 -0.208533
vn 0.479175 0.681049 0.553682
vn 0.617268 0.786562 -0.017342
vn 0.510518 0.228636 0.828913
vn -0.691228 0.647070 0.321720
vn 0.630236 0.757227 -0.171491
vn 0.186885 0.981470 -0.042315
vn 0.171438 0.977675 -0.121492
vn 0.542809 0.709959 -0.448683
vn 0.607344 0.615379 -0.502435
vn 0.443534 0.681817 -0.581725
vn -0.952139 0.181594 0.245877
vn -0.942781 0.177659 0.282138
vn -0.523064 0.287027 -0.802508
vn 0.494959 0.593423 -0.634716
vn 0.113112 0.573003 -0.811710
vn 0.022743 0.335931 -0.941612
vn 0.669443 0.342328 -0.659286
vn 0.754398 0.350146 -0.555231
vn 0.665664 0.319194 -0.674542
vn 0.014256 0.307219 -0.951532
vn 0.000000 -1.000000 0.000000
vn -0.000000 -1.000000 -0.000000
vn -0.951682 0.135130 0.275756
vn -0.803851 0.232892 0.547344
vn 0.620474 -0.557362 -0.551688
vn 0.657939 -0.580100 -0.480208
vn 0.652962 -0.577448 -0.490097
vn 0.950179 0.251115 -0.184668
vn 0.769909 0.311031 -0.557225
vn 0.000000 -1.000000 0.000000
vn 0.000000 -1.000000 0.000000
vn -0.545099 0.237122 -0.804139
vn 0.000000 -1.000000 0.000000
vn 0.963986 0.231982 -0.130056
vn 0.519564 0.188190 0.833449
vn 0.000000 -1.000000 0.000000
vn -0.963620 0.128561 0.234326
vn -0.000000 -1.000000 -0.000000
vn 0.000000 -1.000000 0.000000
vn -0.436325 -0.298805 0.848726
vn -0.436325 -0.298806 0.848726
vn -0.436325 -0.298806 0.848726
vn -0.835431 -0.438908 -0.330780
vn -0.835431 -0.438908 -0.330780
vn -0.835431 -0.438908 -0.330780
s 1
g stone_1 pCube3
usemtl initialShadingGroup
f 481/656/701 483/657/702 543/782/703 542/741/704
s 2
f 482/659/705 481/658/706 487/770/707 486/738/708
s 3
f 483/743/709 482/659/710 512/684/711 511/744/712
s 4
f 484/660/713 487/661/714 574/726/715 573/736/716
s 2
f 485/664/717 484/662/718 515/663/719 514/749/720
s 3
f 486/738/721 485/664/722 567/695/723 566/685/724
f 488/665/725 490/746/726 510/687/727 509/748/728
f 489/666/729 488/665/725 492/668/730 491/739/731
f 490/771/726 489/666/729 523/696/732 522/667/733
f 491/739/731 494/752/734 570/704/735 569/697/736
f 493/669/737 492/668/730 565/686/738 568/694/739
f 494/752/734 493/669/737 524/692/740 526/753/741
f 495/670/742 497/759/743 521/699/744 520/671/745
f 496/673/746 495/672/742 501/675/747 500/747/748
f 497/772/743 496/673/746 532/713/749 531/674/750
f 498/676/751 501/675/747 572/698/752 571/703/753
f 499/677/754 498/676/751 537/779/755 536/754/756
f 500/747/748 499/677/754 559/718/757 558/714/758
f 502/679/759 504/678/760 534/778/761 533/740/762
s 2
f 503/773/763 502/679/764 506/682/765 505/762/766
s 1
f 504/760/767 503/680/768 545/681/769 544/761/770
s 4
f 505/762/771 508/764/772 576/737/773 575/725/774
s 3
f 507/683/775 506/682/776 557/715/777 560/717/778
s 2
f 508/764/779 507/683/780 546/723/781 548/765/782
s 3
f 509/748/728 512/684/711 566/685/724 565/686/738
f 511/744/712 510/687/727 554/700/783 553/728/784
s 2
f 513/689/785 515/688/719 550/785/786 549/742/787
s 3
f 514/749/788 513/689/789 519/690/790 518/750/791
f 516/691/792 519/690/793 562/734/794 561/706/795
f 517/693/796 516/691/792 525/701/797 524/692/740
f 518/750/798 517/693/796 568/694/739 567/695/723
f 520/768/745 523/696/732 569/697/736 572/698/752
f 522/745/733 521/699/744 555/712/799 554/700/783
f 526/775/741 525/701/797 528/705/800 527/702/801
f 527/751/801 530/767/802 571/703/753 570/704/735
f 529/708/803 528/705/800 561/706/795 564/721/804
f 530/707/802 529/708/803 535/709/805 537/710/755
f 531/758/750 534/711/806 556/729/807 555/712/799
f 533/740/808 532/713/749 558/714/758 557/715/777
f 536/754/756 535/716/805 539/780/809 538/755/810
f 538/755/810 541/756/811 560/717/778 559/718/757
f 540/719/812 539/720/809 564/721/804 563/733/813
f 541/756/811 540/722/812 547/784/814 546/723/815
s 4
f 542/741/816 545/724/817 575/725/774 574/726/715
s 3
f 544/761/818 543/727/819 553/728/784 556/729/807
s 2
f 548/765/782 547/730/820 552/731/821 551/763/822
s 3
f 549/742/823 552/732/824 563/733/813 562/734/794
s 4
f 551/763/825 550/735/826 573/736/716 576/737/773
s 3
f 482/659/710 486/738/721 566/685/724 512/684/711
f 489/666/729 491/739/731 569/697/736 523/696/732
f 533/740/808 557/715/777 506/682/776 502/679/827
s 4
f 542/741/816 574/726/715 487/661/714 481/656/828
s 3
f 513/689/829 549/742/823 562/734/794 519/690/793
f 553/728/784 543/727/819 483/743/709 511/744/712
f 522/745/733 554/700/783 510/687/727 490/746/726
f 496/673/746 500/747/748 558/714/758 532/713/749
f 516/691/792 561/706/795 528/705/800 525/701/797
f 509/748/728 565/686/738 492/668/730 488/665/725
f 567/695/723 485/664/722 514/749/830 518/750/798
f 493/669/737 568/694/739 517/693/796 524/692/740
f 527/751/801 570/704/735 494/752/734 526/753/741
f 559/718/757 499/677/754 536/754/756 538/755/810
f 507/683/775 560/717/778 541/756/811 546/723/815
s 4
f 484/660/713 573/736/716 550/735/826 515/757/831
s 3
f 531/758/750 555/712/799 521/699/744 497/759/743
f 504/760/832 544/761/818 556/729/807 534/711/806
s 4
f 503/773/833 505/762/771 575/725/774 545/724/817
f 551/763/825 576/737/773 508/764/772 548/765/834
s 3
f 563/733/813 552/732/824 547/766/814 540/719/812
f 529/708/803 564/721/804 539/720/809 535/709/805
f 498/676/751 571/703/753 530/767/802 537/779/755
f 520/768/745 572/698/752 501/675/747 495/672/742
s off
f 481/658/835 482/659/836 483/743/837
s 2
f 484/769/718 485/664/717 486/738/708 487/770/707
s 3
f 488/665/725 489/666/729 490/771/726
f 491/739/731 492/668/730 493/669/737 494/752/734
f 495/672/742 496/673/746 497/772/743
f 498/676/751 499/677/754 500/747/748 501/675/747
s off
f 502/679/838 503/773/839 504/678/840
s 2
f 505/762/766 506/682/765 507/683/780 508/764/779
s 3
f 509/748/728 510/687/727 511/744/712 512/684/711
s 2
f 513/689/785 514/749/720 515/688/719
s 3
f 516/691/792 517/693/796 518/750/791 519/690/790
f 520/768/745 521/774/744 522/667/733 523/696/732
f 524/692/740 525/701/797 526/775/741
f 527/702/801 528/705/800 529/708/803 530/776/802
f 531/777/750 532/713/749 533/740/762 534/778/761
f 535/716/805 536/754/756 537/779/755
f 538/755/810 539/780/809 540/781/812 541/756/811
s 1
f 542/741/704 543/782/703 544/783/770 545/724/769
s 2
f 546/723/781 547/784/820 548/765/782
f 549/742/787 550/785/786 551/786/822 552/732/821
s 3
f 553/728/784 554/700/783 555/712/799 556/729/807
f 557/715/777 558/714/758 559/718/757 560/717/778
f 561/706/795 562/734/794 563/733/813 564/721/804
f 565/686/738 566/685/724 567/695/723 568/694/739
f 569/697/736 570/704/735 571/703/753 572/698/752
s 4
f 573/736/716 574/726/715 575/725/774 576/737/773
