# This file uses centimeters as units for non-parametric coordinates.

mtllib stone_2.mtl
g default
v -0.931271 5.973588 0.946337
v -0.906930 6.145472 1.054607
v -1.045551 6.144799 0.898604
v 0.102736 5.973588 1.157699
v 0.102116 6.134341 1.288867
v -0.101907 6.134012 1.289003
v -0.102736 5.973588 1.157699
v -0.333843 7.541266 0.476274
v -0.297590 7.627107 0.297590
v -0.478378 7.542124 0.331363
v -0.102324 7.627107 0.383203
v -0.108143 7.543857 0.570297
v 0.102324 7.548337 0.568169
v 0.102324 7.627107 0.383203
v -0.304518 7.627107 -0.304518
v -0.360834 7.574009 -0.493610
v -0.503108 7.580006 -0.342073
v 0.103617 7.627107 -0.369021
v 0.105130 7.541253 -0.563722
v -0.104435 7.541820 -0.563505
v -0.103617 7.627107 -0.369021
v -0.944144 6.137552 -1.077076
v -0.944735 5.973588 -0.958359
v -1.084788 6.131389 -0.920286
v -0.102732 5.973588 -1.154994
v -0.102117 6.135468 -1.284647
v 0.101911 6.135140 -1.284790
v 0.102732 5.973588 -1.154994
v -0.597079 7.135215 0.721397
v -0.737541 7.136838 0.576267
v -0.816971 6.959450 0.659483
v -0.678788 6.959929 0.799249
v 1.102163 6.130422 0.952146
v 0.947114 6.132464 1.092763
v 0.967284 5.973588 0.957111
v 0.901583 7.129153 0.757109
v 0.754881 7.129970 0.900941
v 0.845076 6.947390 0.988148
v 0.988148 6.947390 0.845076
v -0.383203 7.627107 -0.102324
v -0.570297 7.543857 -0.108143
v -0.568169 7.548337 0.102324
v -0.383203 7.627107 0.102324
v 0.344982 7.560859 0.492916
v 0.490590 7.562304 0.345881
v 0.302187 7.627107 0.302187
v 0.383203 7.627107 0.102324
v 0.570297 7.543857 0.108143
v 0.568169 7.548337 -0.102324
v 0.383203 7.627107 -0.102324
v -0.889822 7.304105 -0.625029
v -0.752437 7.297370 -0.774786
v -0.851141 7.136828 -0.860566
v -0.987970 7.141937 -0.707941
v 0.483908 7.537540 -0.325467
v 0.334953 7.539496 -0.473616
v 0.297794 7.627107 -0.297794
v 0.719418 6.945367 -0.797502
v 0.854185 6.962694 -0.648241
v 0.936999 6.759349 -0.735883
v 0.807055 6.755259 -0.874014
v -1.063808 5.973588 0.102514
v -1.199662 6.128018 0.102229
v -1.199696 6.127874 -0.102133
v -1.063808 5.973588 -0.102514
v 0.928979 6.143340 -1.057185
v 1.082274 6.145453 -0.912546
v 0.955808 5.973588 -0.944512
v 1.364001 6.138306 0.101693
v 1.235679 5.973588 0.102632
v 1.235016 5.973588 -0.102940
v 1.364001 6.138306 -0.101693
v -1.051087 6.949305 0.096360
v -0.956140 7.135226 0.101283
v -0.990827 7.161770 -0.102624
v -1.080935 6.975015 -0.105576
v -0.103844 6.898220 -1.080833
v -0.105151 7.095525 -0.976707
v 0.098533 7.038459 -0.984112
v 0.100376 6.856382 -1.078561
v 0.995010 7.130427 0.104342
v 1.102326 6.955590 0.104000
v 1.091813 6.928028 -0.099847
v 0.984676 7.104055 -0.098683
v -0.098872 7.133750 0.957254
v -0.095530 6.951808 1.061052
v 0.105668 6.951384 1.093943
v 0.104253 7.130363 0.995083
v -0.102324 7.627107 0.102324
v 0.102324 7.627107 0.102324
v 0.102324 7.627107 -0.102324
v -0.102324 7.627107 -0.102324
v 0.102324 5.973588 0.102324
v -0.102324 5.973588 0.102324
v -0.102324 5.973588 -0.102324
v 0.102324 5.973588 -0.102324
vt 0.392316 0.984074
vt 0.381239 0.978907
vt 0.386121 0.006655
vt 0.388913 0.019875
vt 0.511879 0.984154
vt 0.488121 0.984154
vt 0.516823 0.002569
vt 0.616244 0.002285
vt 0.513493 0.018944
vt 0.409259 0.231257
vt 0.403684 0.278684
vt 0.375000 0.346017
vt 0.482244 0.230685
vt 0.533118 0.232801
vt 0.131649 0.250000
vt 0.190571 0.250000
vt 0.401441 0.473559
vt 0.388071 0.516673
vt 0.375000 0.598343
vt 0.466464 0.471043
vt 0.533536 0.471043
vt 0.534026 0.516427
vt 0.375000 0.729103
vt 0.390520 0.730782
vt 0.136723 0.002460
vt 0.235621 0.002525
vt 0.488192 0.729769
vt 0.514003 0.728200
vt 0.387138 0.113563
vt 0.483926 0.113113
vt 0.483364 0.142280
vt 0.349482 0.142446
vt 0.633553 0.002388
vt 0.637874 0.018135
vt 0.639641 0.113442
vt 0.641706 0.141276
vt 0.609074 0.232658
vt 0.608111 0.141455
vt 0.522552 0.140174
vt 0.513756 0.113064
vt 0.400731 0.341882
vt 0.466882 0.341882
vt 0.466882 0.408118
vt 0.233704 0.231117
vt 0.267519 0.142603
vt 0.640578 0.233036
vt 0.713697 0.250000
vt 0.533118 0.408118
vt 0.533118 0.341882
vt 0.714999 0.231823
vt 0.727429 0.140187
vt 0.786303 0.250000
vt 0.783118 0.232801
vt 0.855992 0.231575
vt 0.844203 0.250000
vt 0.143379 0.114622
vt 0.234023 0.141979
vt 0.390727 0.606069
vt 0.475459 0.606997
vt 0.487877 0.635173
vt 0.625000 0.517272
vt 0.514166 0.637775
vt 0.521982 0.610821
vt 0.863313 0.113455
vt 0.857477 0.139745
vt 0.772971 0.139484
vt 0.625000 0.638586
vt 0.611845 0.725500
vt 0.390975 0.863146
vt 0.488168 0.863168
vt 0.488168 0.886832
vt 0.265520 0.017412
vt 0.266668 0.112824
vt 0.237043 0.115106
vt 0.620085 0.769481
vt 0.620089 0.863241
vt 0.765711 0.022220
vt 0.765363 0.113418
vt 0.736461 0.113550
vt 0.609105 0.886868
vt 0.511832 0.886832
vt 0.511832 0.863168
vt 0.484309 0.018023
vt 0.466882 0.275731
vt 0.390504 0.635414
vt 0.390975 0.886854
vt 0.736436 0.019843
vt 0.360470 0.019797
vt 0.362060 0.113583
vt 0.267337 0.231863
vt 0.341083 0.231445
vt 0.466199 0.516319
vt 0.399756 0.142028
vt 0.611570 0.018371
vt 0.610225 0.112976
vt 0.599269 0.341882
vt 0.533118 0.275731
vt 0.597804 0.277196
vt 0.608763 0.516285
vt 0.609502 0.610863
vt 0.613355 0.637657
vt 0.611545 0.985672
vt 0.152986 0.143683
vt 0.157833 0.232810
vt 0.143639 0.018193
vt 0.238190 0.017840
vt 0.488121 0.766036
vt 0.609057 0.863097
vt 0.511879 0.766036
vt 0.610185 0.765785
vt 0.861683 0.024805
vt 0.599269 0.408118
vt 0.400731 0.408118
vt 0.500000 0.007300
vt 0.481957 0.006621
vt 0.375000 0.280507
vt 0.375000 0.516524
vt 0.390759 0.764502
vt 0.375171 0.375000
vt 0.654399 0.250000
vt 0.750000 0.250000
vt 0.378379 0.625000
vt 0.375000 0.636881
vt 0.596382 0.471382
vt 0.625000 0.600386
vt 0.625000 0.625000
vt 0.377247 0.886821
vt 0.379766 0.875000
vt 0.625000 0.722330
vt 0.731310 0.002821
vt 0.746270 0.003730
vn -0.794883 -0.589195 0.144946
vn -0.794883 -0.589195 0.144946
vn -0.787334 -0.605799 0.114508
vn -0.788178 -0.604083 0.117728
vn -0.221908 -0.559110 0.798844
vn -0.221908 -0.559110 0.798844
vn -0.181621 -0.575102 0.797666
vn -0.173862 -0.578044 0.797269
vn -0.884158 0.292785 0.364061
vn -0.407509 0.333363 0.850180
vn -0.405204 0.358333 0.841075
vn -0.876990 0.318504 0.359782
vn 0.000000 -1.000000 0.000000
vn 0.000000 -1.000000 0.000000
vn 0.000000 -1.000000 0.000000
vn 0.000000 -1.000000 0.000000
vn 0.139992 -0.627476 0.765948
vn 0.145167 -0.627038 0.765343
vn 0.514141 -0.665273 0.541360
vn 0.200113 -0.619371 0.759167
vn -0.264831 0.299074 0.916744
vn 0.130089 0.202439 0.970616
vn 0.121165 0.252189 0.960062
vn -0.275344 0.329071 0.903271
vn -0.364225 0.695268 0.619630
vn -0.617800 0.699009 0.360151
vn -0.692642 0.597399 0.404180
vn -0.412752 0.599042 0.686137
vn -0.154416 0.975425 0.157166
vn -0.214075 0.716606 0.663813
vn -0.051893 0.977712 0.203438
vn -0.200922 0.978395 0.048713
vn -0.655604 0.723901 0.214826
vn 0.026506 0.981842 0.187838
vn 0.000000 1.000000 0.000000
vn 0.000000 1.000000 0.000000
vn 0.066489 0.758959 0.647735
vn -0.250605 0.606645 0.754439
vn 0.065724 0.645216 0.761168
vn 0.205600 0.785116 0.584227
vn 0.125687 0.984391 0.123195
vn -0.095021 0.989129 -0.112223
vn -0.523604 0.847014 -0.091688
vn -0.612573 0.789093 0.045672
vn -0.178034 0.983978 -0.009544
vn -0.105119 0.786417 -0.608686
vn -0.009099 0.982165 -0.187799
vn -0.001920 0.737149 -0.675727
vn -0.178592 0.694887 -0.696589
vn -0.664564 0.735622 -0.131202
vn 0.045320 0.976716 -0.209693
vn 0.000000 1.000000 -0.000000
vn 0.000000 1.000000 -0.000000
vn 0.224384 0.672886 -0.704894
vn 0.156683 0.972923 -0.169913
vn 0.361134 0.657985 -0.660785
vn 0.249354 0.572377 -0.781158
vn -0.021260 0.608559 -0.793224
vn -0.728551 0.208066 -0.652627
vn -0.728551 0.208066 -0.652627
vn -0.710981 0.286081 -0.642389
vn -0.713422 0.276464 -0.643892
vn -0.188295 -0.594924 -0.781416
vn -0.188295 -0.594924 -0.781416
vn -0.149121 -0.603251 -0.783487
vn -0.154785 -0.602110 -0.783266
vn -0.751377 -0.651240 -0.106391
vn -0.751377 -0.651240 -0.106391
vn -0.751891 -0.653570 -0.086638
vn -0.751926 -0.653791 -0.084637
vn 0.000000 -1.000000 -0.000000
vn 0.000000 -1.000000 0.000000
vn 0.000000 -1.000000 0.000000
vn 0.000000 -1.000000 -0.000000
vn 0.221147 0.288410 -0.931619
vn -0.174263 0.243552 -0.954104
vn -0.168580 0.275825 -0.946309
vn 0.227935 0.324208 -0.918115
vn 0.173017 -0.578749 -0.796941
vn 0.166084 -0.581021 -0.796762
vn 0.238965 -0.556570 -0.795692
vn 0.538739 -0.603063 -0.588282
vn -0.758037 0.598340 0.259554
vn -0.934384 0.267838 0.234923
vn 0.749561 -0.609714 0.257695
vn 0.763623 -0.616376 0.192252
vn 0.765428 -0.616863 0.183303
vn 0.678478 0.182145 0.711682
vn 0.678478 0.182145 0.711682
vn 0.667816 0.265479 0.695372
vn 0.667758 0.265846 0.695288
vn 0.683468 0.685966 0.249645
vn 0.939111 0.268492 0.214436
vn 0.941922 0.295592 0.159397
vn 0.753103 0.654459 0.067229
vn 0.247591 0.681049 0.689109
vn 0.582085 0.786562 0.206147
vn 0.177700 0.228636 0.957156
vn -0.760712 0.647070 0.051163
vn 0.649705 0.757227 0.067015
vn 0.189583 0.981470 0.027836
vn 0.203690 0.977675 -0.051590
vn 0.667983 0.709959 -0.223062
vn 0.747547 0.615379 -0.249962
vn 0.623289 0.681817 -0.382932
vn -0.976794 0.181594 -0.113564
vn -0.981125 0.177659 -0.076365
vn -0.198913 0.287027 -0.937043
vn 0.690349 0.593423 -0.413844
vn 0.397879 0.573003 -0.716491
vn 0.360363 0.335931 -0.870223
vn 0.861972 0.342328 -0.373919
vn 0.903747 0.350146 -0.246250
vn 0.863942 0.319193 -0.389513
vn 0.356019 0.307219 -0.882534
vn 0.000000 -1.000000 0.000000
vn 0.000000 -1.000000 -0.000000
vn -0.987130 0.135130 -0.085525
vn -0.947040 0.232892 0.221080
vn 0.777535 -0.557362 -0.291181
vn 0.786741 -0.580100 -0.211004
vn 0.785659 -0.577448 -0.222022
vn 0.952919 0.251115 0.169959
vn 0.918935 0.311031 -0.242524
vn 0.000000 -1.000000 0.000000
vn 0.000000 -1.000000 0.000000
vn -0.218883 0.237122 -0.946501
vn 0.000000 -1.000000 0.000000
vn 0.946131 0.231982 0.225878
vn 0.184504 0.188190 0.964646
vn 0.000000 -1.000000 0.000000
vn -0.983344 0.128561 -0.128475
vn 0.000000 -1.000000 -0.000000
vn 0.000000 -1.000000 0.000000
vn -0.712732 -0.298805 0.634609
vn -0.712732 -0.298805 0.634609
vn -0.712732 -0.298805 0.634609
vn -0.660221 -0.438908 -0.609482
vn -0.660221 -0.438908 -0.609482
vn -0.660221 -0.438908 -0.609481
s 1
g pasted__pCube2 stone_2
usemtl initialShadingGroup
f 1/1/1 3/2/2 63/127/3 62/86/4
s 2
f 2/4/5 1/3/6 7/115/7 6/83/8
s 3
f 3/88/9 2/4/10 32/29/11 31/89/12
s 4
f 4/5/13 7/6/14 94/71/15 93/81/16
s 2
f 5/9/17 4/7/18 35/8/19 34/94/20
s 3
f 6/83/21 5/9/22 87/40/23 86/30/24
f 8/10/25 10/91/26 30/32/27 29/93/28
f 9/11/29 8/10/25 12/13/30 11/84/31
f 10/116/26 9/11/29 43/41/32 42/12/33
f 11/84/31 14/97/34 90/49/35 89/42/36
f 13/14/37 12/13/30 85/31/38 88/39/39
f 14/97/34 13/14/37 44/37/40 46/98/41
f 15/15/42 17/104/43 41/44/44 40/16/45
f 16/18/46 15/17/42 21/20/47 20/92/48
f 17/117/43 16/18/46 52/58/49 51/19/50
f 18/21/51 21/20/47 92/43/52 91/48/53
f 19/22/54 18/21/51 57/124/55 56/99/56
f 20/92/48 19/22/54 79/63/57 78/59/58
f 22/24/59 24/23/60 54/123/61 53/85/62
s 2
f 23/118/63 22/24/64 26/27/65 25/107/66
s 1
f 24/105/67 23/25/68 65/26/69 64/106/70
s 4
f 25/107/71 28/109/72 96/82/73 95/70/74
s 3
f 27/28/75 26/27/76 77/60/77 80/62/78
s 2
f 28/109/79 27/28/80 66/68/81 68/110/82
s 3
f 29/93/28 32/29/11 86/30/24 85/31/38
f 31/89/12 30/32/27 74/45/83 73/73/84
s 2
f 33/34/85 35/33/19 70/130/86 69/87/87
s 3
f 34/94/88 33/34/89 39/35/90 38/95/91
f 36/36/92 39/35/93 82/79/94 81/51/95
f 37/38/96 36/36/92 45/46/97 44/37/40
f 38/95/98 37/38/96 88/39/39 87/40/23
f 40/113/45 43/41/32 89/42/36 92/43/52
f 42/90/33 41/44/44 75/57/99 74/45/83
f 46/120/41 45/46/97 48/50/100 47/47/101
f 47/96/101 50/112/102 91/48/53 90/49/35
f 49/53/103 48/50/100 81/51/95 84/66/104
f 50/52/102 49/53/103 55/54/105 57/55/55
f 51/103/50 54/56/106 76/74/107 75/57/99
f 53/85/108 52/58/49 78/59/58 77/60/77
f 56/99/56 55/61/105 59/125/109 58/100/110
f 58/100/110 61/101/111 80/62/78 79/63/57
f 60/64/112 59/65/109 84/66/104 83/78/113
f 61/101/111 60/67/112 67/129/114 66/68/115
s 4
f 62/86/116 65/69/117 95/70/74 94/71/15
s 3
f 64/106/118 63/72/119 73/73/84 76/74/107
s 2
f 68/110/82 67/75/120 72/76/121 71/108/122
s 3
f 69/87/123 72/77/124 83/78/113 82/79/94
s 4
f 71/108/125 70/80/126 93/81/16 96/82/73
s 3
f 2/4/10 6/83/21 86/30/24 32/29/11
f 9/11/29 11/84/31 89/42/36 43/41/32
f 53/85/108 77/60/77 26/27/76 22/24/127
s 4
f 62/86/116 94/71/15 7/6/14 1/1/128
s 3
f 33/34/129 69/87/123 82/79/94 39/35/93
f 73/73/84 63/72/119 3/88/9 31/89/12
f 42/90/33 74/45/83 30/32/27 10/91/26
f 16/18/46 20/92/48 78/59/58 52/58/49
f 36/36/92 81/51/95 48/50/100 45/46/97
f 29/93/28 85/31/38 12/13/30 8/10/25
f 87/40/23 5/9/22 34/94/130 38/95/98
f 13/14/37 88/39/39 37/38/96 44/37/40
f 47/96/101 90/49/35 14/97/34 46/98/41
f 79/63/57 19/22/54 56/99/56 58/100/110
f 27/28/75 80/62/78 61/101/111 66/68/115
s 4
f 4/5/13 93/81/16 70/80/126 35/102/131
s 3
f 51/103/50 75/57/99 41/44/44 17/104/43
f 24/105/132 64/106/118 76/74/107 54/56/106
s 4
f 23/118/133 25/107/71 95/70/74 65/69/117
f 71/108/125 96/82/73 28/109/72 68/110/134
s 3
f 83/78/113 72/77/124 67/111/114 60/64/112
f 49/53/103 84/66/104 59/65/109 55/54/105
f 18/21/51 91/48/53 50/112/102 57/124/55
f 40/113/45 92/43/52 21/20/47 15/17/42
s off
f 1/3/135 2/4/136 3/88/137
s 2
f 4/114/18 5/9/17 6/83/8 7/115/7
s 3
f 8/10/25 9/11/29 10/116/26
f 11/84/31 12/13/30 13/14/37 14/97/34
f 15/17/42 16/18/46 17/117/43
f 18/21/51 19/22/54 20/92/48 21/20/47
s off
f 22/24/138 23/118/139 24/23/140
s 2
f 25/107/66 26/27/65 27/28/80 28/109/79
s 3
f 29/93/28 30/32/27 31/89/12 32/29/11
s 2
f 33/34/85 34/94/20 35/33/19
s 3
f 36/36/92 37/38/96 38/95/91 39/35/90
f 40/113/45 41/119/44 42/12/33 43/41/32
f 44/37/40 45/46/97 46/120/41
f 47/47/101 48/50/100 49/53/103 50/121/102
f 51/122/50 52/58/49 53/85/62 54/123/61
f 55/61/105 56/99/56 57/124/55
f 58/100/110 59/125/109 60/126/112 61/101/111
s 1
f 62/86/4 63/127/3 64/128/70 65/69/69
s 2
f 66/68/81 67/129/120 68/110/82
f 69/87/87 70/130/86 71/131/122 72/77/121
s 3
f 73/73/84 74/45/83 75/57/99 76/74/107
f 77/60/77 78/59/58 79/63/57 80/62/78
f 81/51/95 82/79/94 83/78/113 84/66/104
f 85/31/38 86/30/24 87/40/23 88/39/39
f 89/42/36 90/49/35 91/48/53 92/43/52
s 4
f 93/81/16 94/71/15 95/70/74 96/82/73
