# This file uses centimeters as units for non-parametric coordinates.

mtllib button.mtl
g default
v 0.000000 0.777339 1.003367
v 0.000000 0.816449 1.042479
v -0.039115 0.816449 1.003367
v 0.039115 0.816449 1.003367
v -0.039115 1.511866 1.003367
v 0.000000 1.511866 1.042479
v 0.000000 1.550978 1.003367
v 0.039115 1.511866 1.003367
v -0.039115 1.511866 -1.003367
v 0.000000 1.550978 -1.003367
v 0.000000 1.511866 -1.042479
v 0.039115 1.511866 -1.003367
v -0.039115 0.816449 -1.003367
v 0.000000 0.816449 -1.042479
v 0.000000 0.777339 -1.003367
v 0.039115 0.816449 -1.003367
vt 0.500000 0.995310
vt 0.375000 0.995310
vt 0.375000 0.754690
vt 0.500000 0.000000
vt 0.500000 0.012639
vt 0.625000 0.995310
vt 0.625000 0.754690
vt 0.629690 0.012639
vt 0.375000 0.254690
vt 0.375000 0.495310
vt 0.500000 0.237361
vt 0.625000 0.254690
vt 0.375000 0.512639
vt 0.375000 0.737361
vt 0.500000 0.495310
vt 0.625000 0.512639
vt 0.625000 0.737361
vt 0.500000 0.737361
vt 0.500000 0.754690
vt 0.500000 0.254690
vt 0.500000 0.512639
vt 0.870310 0.012639
vt 0.870310 0.237361
vt 0.129690 0.012639
vt 0.370310 0.012639
vt 0.370310 0.237361
vt 0.129690 0.237361
vt 0.629690 0.237361
vt 0.625000 0.495310
vn -0.707066 -0.707147 0.000000
vn -0.707066 -0.707147 0.000000
vn -0.707066 -0.707147 0.000000
vn -0.707066 -0.707147 0.000000
vn -0.707071 0.000000 0.707142
vn -0.707071 0.000000 0.707142
vn -0.707071 0.000000 0.707142
vn -0.707071 0.000000 0.707142
vn 0.707066 -0.707147 0.000000
vn 0.707066 -0.707147 0.000000
vn 0.707066 -0.707147 0.000000
vn 0.707066 -0.707147 0.000000
vn 0.707071 0.000000 0.707142
vn 0.707071 0.000000 0.707142
vn 0.707071 0.000000 0.707142
vn 0.707071 0.000000 0.707142
vn -0.707073 0.707141 0.000000
vn -0.707073 0.707141 0.000000
vn -0.707073 0.707141 0.000000
vn -0.707073 0.707141 0.000000
vn 0.707073 0.707141 0.000000
vn 0.707073 0.707141 0.000000
vn 0.707073 0.707141 0.000000
vn 0.707073 0.707141 0.000000
vn -0.707071 0.000000 -0.707142
vn -0.707071 0.000000 -0.707142
vn -0.707071 0.000000 -0.707142
vn -0.707071 0.000000 -0.707142
vn 0.707071 0.000000 -0.707142
vn 0.707071 0.000000 -0.707142
vn 0.707071 0.000000 -0.707142
vn 0.707071 0.000000 -0.707142
vn 1.000000 0.000000 0.000000
vn 1.000000 0.000000 0.000000
vn 1.000000 0.000000 0.000000
vn 1.000000 0.000000 0.000000
vn -1.000000 0.000000 0.000000
vn -1.000000 0.000000 0.000000
vn -1.000000 0.000000 0.000000
vn -1.000000 0.000000 0.000000
vn -0.577309 -0.577375 0.577366
vn -0.577309 -0.577375 0.577366
vn -0.577309 -0.577375 0.577366
vn 0.577309 -0.577375 0.577366
vn 0.577309 -0.577375 0.577366
vn 0.577309 -0.577375 0.577366
vn -0.577312 0.577369 0.577371
vn -0.577312 0.577369 0.577371
vn -0.577312 0.577369 0.577371
vn 0.577312 0.577369 0.577371
vn 0.577312 0.577369 0.577371
vn 0.577312 0.577369 0.577371
vn -0.577312 0.577369 -0.577371
vn -0.577312 0.577369 -0.577371
vn -0.577312 0.577369 -0.577371
vn 0.577312 0.577369 -0.577371
vn 0.577312 0.577369 -0.577371
vn 0.577312 0.577369 -0.577371
vn -0.577309 -0.577375 -0.577366
vn -0.577309 -0.577375 -0.577366
vn -0.577309 -0.577375 -0.577366
vn 0.577309 -0.577375 -0.577366
vn 0.577309 -0.577375 -0.577366
vn 0.577309 -0.577375 -0.577366
s off
g pCube2
usemtl initialShadingGroup
f 1/1/1 3/2/2 13/3/3 15/19/4
f 3/25/5 2/5/6 6/11/7 5/26/8
f 4/6/9 1/1/10 15/19/11 16/7/12
f 2/5/13 4/8/14 8/28/15 6/11/16
f 5/9/17 7/20/18 10/15/19 9/10/20
f 7/20/21 8/12/22 12/29/23 10/15/24
f 9/13/25 11/21/26 14/18/27 13/14/28
f 11/21/29 12/16/30 16/17/31 14/18/32
f 4/8/33 16/22/34 12/23/35 8/28/36
f 13/24/37 3/25/38 5/26/39 9/27/40
f 1/4/41 2/5/42 3/25/43
f 4/8/44 2/5/45 1/4/46
f 5/26/47 6/11/48 7/20/49
f 7/20/50 6/11/51 8/28/52
f 9/10/53 10/15/54 11/21/55
f 11/21/56 10/15/57 12/29/58
f 13/14/59 14/18/60 15/19/61
f 15/19/62 14/18/63 16/17/64
