# This file uses centimeters as units for non-parametric coordinates.

mtllib obstacle.mtl
g default
v -1.192917 0.559017 1.192917
v 1.192917 0.559017 1.192917
v -1.192917 2.944850 1.192917
v 1.192917 2.944850 1.192917
v -1.192917 2.944850 -1.192917
v 1.192917 2.944850 -1.192917
v -1.192917 0.559017 -1.192917
v 1.192917 0.559017 -1.192917
v -1.192917 2.944850 0.000000
v -1.192917 0.559017 0.000000
v 1.192917 0.559017 0.000000
v 1.192917 2.944850 0.000000
v -1.192917 0.559017 -1.073625
v -1.192917 2.944850 -1.073625
v 1.192917 2.944850 -1.073625
v 1.192917 0.559017 -1.073625
v -1.192917 2.944850 1.073625
v -1.192917 0.559017 1.073625
v 1.192917 0.559017 1.073625
v 1.192917 2.944850 1.073625
v 0.000000 0.559017 1.192917
v 0.000000 2.944850 1.192917
v 0.000000 2.944850 1.073625
v 0.000000 2.944850 -1.073625
v 0.000000 2.944850 -1.192917
v 0.000000 0.559017 -1.192917
v 0.000000 0.559017 -1.073625
v 0.000000 0.559017 1.073625
v -1.073625 0.559017 1.192917
v -1.073625 2.944850 1.192917
v -1.073625 2.944850 1.073625
v -1.073625 2.944850 0.000000
v -1.073625 2.944850 -1.073625
v -1.073625 2.944850 -1.192917
v -1.073625 0.559017 -1.192917
v -1.073625 0.559017 -1.073625
v -1.073625 0.559017 0.000000
v -1.073625 0.559017 1.073625
v 1.073625 2.944850 0.000000
v 1.073625 2.944850 1.073625
v 1.073625 2.944850 1.192917
v 1.073625 0.559017 1.192917
v 1.073625 0.559017 1.073625
v 1.073625 0.559017 0.000000
v 1.073625 0.559017 -1.073625
v 1.073625 0.559017 -1.192917
v 1.073625 2.944850 -1.192917
v 1.073625 2.944850 -1.073625
v -1.192917 1.751933 1.192917
v -1.192917 1.751934 1.073625
v -1.192917 1.751933 -1.073625
v -1.192917 1.751933 -1.192917
v -1.073625 1.751933 -1.192917
v 1.073625 1.751933 -1.192917
v 1.192917 1.751933 -1.192917
v 1.192917 1.751933 -1.073625
v 1.192917 1.751933 1.073625
v 1.192917 1.751933 1.192917
v 1.073625 1.751933 1.192917
v -1.073625 1.751933 1.192917
v -1.192917 0.678308 1.192917
v -1.192917 0.678308 1.073625
v -1.192917 0.678308 0.000000
v -1.192917 0.678308 -1.073625
v -1.192917 0.678308 -1.192917
v -1.073625 0.678308 -1.192917
v 0.000000 0.678308 -1.192917
v 1.073625 0.678308 -1.192917
v 1.192917 0.678308 -1.192917
v 1.192917 0.678308 -1.073625
v 1.192917 0.678308 0.000000
v 1.192917 0.678308 1.073625
v 1.192917 0.678308 1.192917
v 1.073625 0.678308 1.192917
v 0.000000 0.678308 1.192917
v -1.073625 0.678308 1.192917
v -1.192917 2.825559 -1.192917
v -1.192917 2.825559 -1.073625
v -1.192917 2.825559 0.000000
v -1.192917 2.825559 1.073625
v -1.192917 2.825559 1.192917
v -1.073625 2.825559 1.192917
v 0.000000 2.825559 1.192917
v 1.073625 2.825559 1.192917
v 1.192917 2.825559 1.192917
v 1.192917 2.825559 1.073625
v 1.192917 2.825559 0.000000
v 1.192917 2.825559 -1.073625
v 1.192917 2.825559 -1.192917
v 1.073625 2.825559 -1.192917
v 0.000000 2.825559 -1.192917
v -1.073625 2.825559 -1.192917
v -0.976118 2.836509 0.976118
v -0.976118 2.836509 -0.000000
v 0.000000 2.836509 0.976118
v 0.000000 2.836509 -0.000000
v -0.976118 2.836509 -0.976118
v 0.000000 2.836509 -0.976118
v 0.976118 2.836509 0.976118
v 0.976118 2.836509 -0.000000
v 0.976118 2.836509 -0.976118
v -0.976118 0.667358 -0.976118
v -0.976118 0.667358 0.000000
v 0.000000 0.667358 -0.976118
v 0.000000 0.667358 0.000000
v -0.976118 0.667358 0.976118
v 0.000000 0.667358 0.976118
v 0.976118 0.667358 -0.000000
v 0.976118 0.667358 0.976118
v 0.976118 0.667358 -0.976118
v -1.084576 1.751933 0.976118
v -1.084576 1.751933 -0.000000
v -1.084576 0.775815 0.000000
v -1.084576 0.775815 0.976118
v -1.084576 1.751933 -0.976118
v -1.084576 0.775815 -0.976118
v -1.084576 2.728052 -0.976118
v -1.084576 2.728052 0.000000
v -1.084576 2.728052 0.976118
v -0.976118 0.775815 -1.084576
v 0.000000 0.775815 -1.084576
v -0.976118 1.751933 -1.084576
v 0.000000 1.751933 -1.084576
v 0.976118 0.775815 -1.084576
v 0.976118 1.751933 -1.084576
v 0.000000 2.728052 -1.084576
v 0.976118 2.728052 -1.084576
v -0.976118 2.728052 -1.084576
v 1.084576 1.751933 -0.976118
v 1.084576 1.751933 0.000000
v 1.084576 0.775815 0.000000
v 1.084576 0.775815 -0.976118
v 1.084576 1.751933 0.976118
v 1.084576 0.775815 0.976118
v 1.084576 2.728052 0.976118
v 1.084576 2.728052 0.000000
v 1.084576 2.728052 -0.976118
v 0.976118 1.751933 1.084576
v 0.000000 1.751933 1.084576
v 0.000000 0.775815 1.084576
v 0.976118 0.775815 1.084576
v -0.976118 1.751933 1.084576
v -0.976118 0.775815 1.084576
v -0.976118 2.728052 1.084576
v 0.000000 2.728052 1.084576
v 0.976118 2.728052 1.084576
vt 0.375000 0.000000
vt 0.625000 0.000000
vt 0.375000 0.250000
vt 0.625000 0.250000
vt 0.375000 0.500000
vt 0.625000 0.500000
vt 0.375000 0.750000
vt 0.625000 0.750000
vt 0.375000 1.000000
vt 0.625000 1.000000
vt 0.875000 0.000000
vt 0.875000 0.250000
vt 0.125000 0.000000
vt 0.125000 0.250000
vt 0.250000 0.250000
vt 0.375000 0.375000
vt 0.250000 0.000000
vt 0.375000 0.875000
vt 0.625000 0.875000
vt 0.750000 0.000000
vt 0.625000 0.375000
vt 0.750000 0.250000
vt 0.137500 0.000000
vt 0.375000 0.762500
vt 0.137500 0.250000
vt 0.375000 0.487500
vt 0.625000 0.487500
vt 0.862500 0.250000
vt 0.625000 0.762500
vt 0.862500 0.000000
vt 0.362500 0.250000
vt 0.375000 0.262500
vt 0.362500 0.000000
vt 0.375000 0.987500
vt 0.625000 0.987500
vt 0.637500 0.000000
vt 0.625000 0.262500
vt 0.637500 0.250000
vt 0.500000 0.000000
vt 0.500000 1.000000
vt 0.500000 0.250000
vt 0.500000 0.262500
vt 0.500000 0.375000
vt 0.500000 0.487500
vt 0.500000 0.500000
vt 0.500000 0.750000
vt 0.500000 0.762500
vt 0.500000 0.875000
vt 0.500000 0.987500
vt 0.387500 0.000000
vt 0.387500 1.000000
vt 0.387500 0.250000
vt 0.387500 0.262500
vt 0.387500 0.375000
vt 0.387500 0.487500
vt 0.387500 0.500000
vt 0.387500 0.750000
vt 0.387500 0.762500
vt 0.387500 0.875000
vt 0.387500 0.987500
vt 0.612500 0.375000
vt 0.612500 0.262500
vt 0.612500 0.250000
vt 0.612500 0.000000
vt 0.612500 1.000000
vt 0.612500 0.987500
vt 0.612500 0.875000
vt 0.612500 0.762500
vt 0.612500 0.750000
vt 0.612500 0.500000
vt 0.612500 0.487500
vt 0.375000 0.125000
vt 0.362500 0.125000
vt 0.250000 0.125000
vt 0.137500 0.125000
vt 0.125000 0.125000
vt 0.375000 0.625000
vt 0.387500 0.625000
vt 0.500000 0.625000
vt 0.612500 0.625000
vt 0.625000 0.625000
vt 0.875000 0.125000
vt 0.862500 0.125000
vt 0.750000 0.125000
vt 0.637500 0.125000
vt 0.625000 0.125000
vt 0.612500 0.125000
vt 0.500000 0.125000
vt 0.387500 0.125000
vt 0.375000 0.012500
vt 0.362500 0.012500
vt 0.250000 0.012500
vt 0.137500 0.012500
vt 0.125000 0.012500
vt 0.375000 0.737500
vt 0.387500 0.737500
vt 0.500000 0.737500
vt 0.612500 0.737500
vt 0.625000 0.737500
vt 0.875000 0.012500
vt 0.862500 0.012500
vt 0.750000 0.012500
vt 0.637500 0.012500
vt 0.625000 0.012500
vt 0.612500 0.012500
vt 0.500000 0.012500
vt 0.387500 0.012500
vt 0.125000 0.237500
vt 0.375000 0.512500
vt 0.137500 0.237500
vt 0.250000 0.237500
vt 0.362500 0.237500
vt 0.375000 0.237500
vt 0.387500 0.237500
vt 0.500000 0.237500
vt 0.612500 0.237500
vt 0.625000 0.237500
vt 0.637500 0.237500
vt 0.750000 0.237500
vt 0.862500 0.237500
vt 0.625000 0.512500
vt 0.875000 0.237500
vt 0.612500 0.512500
vt 0.500000 0.512500
vt 0.387500 0.512500
vt 0.387500 0.375000
vt 0.387500 0.262500
vt 0.500000 0.262500
vt 0.387500 0.487500
vt 0.500000 0.487500
vt 0.387500 0.875000
vt 0.387500 0.762500
vt 0.500000 0.762500
vt 0.387500 0.987500
vt 0.500000 0.987500
vt 0.612500 0.262500
vt 0.612500 0.375000
vt 0.612500 0.875000
vt 0.612500 0.987500
vt 0.612500 0.762500
vt 0.612500 0.487500
vt 0.250000 0.012500
vt 0.362500 0.012500
vt 0.362500 0.125000
vt 0.137500 0.125000
vt 0.137500 0.012500
vt 0.500000 0.737500
vt 0.387500 0.737500
vt 0.387500 0.625000
vt 0.612500 0.737500
vt 0.612500 0.625000
vt 0.750000 0.012500
vt 0.862500 0.012500
vt 0.862500 0.125000
vt 0.637500 0.125000
vt 0.637500 0.012500
vt 0.500000 0.012500
vt 0.612500 0.012500
vt 0.612500 0.125000
vt 0.387500 0.125000
vt 0.387500 0.012500
vt 0.250000 0.237500
vt 0.137500 0.237500
vt 0.362500 0.237500
vt 0.500000 0.237500
vt 0.387500 0.237500
vt 0.612500 0.237500
vt 0.750000 0.237500
vt 0.637500 0.237500
vt 0.862500 0.237500
vt 0.500000 0.512500
vt 0.612500 0.512500
vt 0.387500 0.512500
vn 0.000000 0.000000 1.000000
vn 0.000000 0.000000 1.000000
vn 0.000000 0.000000 1.000000
vn 0.000000 0.000000 1.000000
vn 0.000000 1.000000 0.000000
vn -0.000000 1.000000 0.000000
vn -0.000000 1.000000 0.000000
vn 0.000000 1.000000 0.000000
vn 0.000000 -0.000000 -1.000000
vn 0.000000 0.000000 -1.000000
vn 0.000000 0.000000 -1.000000
vn 0.000000 0.000001 -1.000000
vn -0.000001 -1.000000 0.000000
vn -0.000000 -1.000000 0.000001
vn -0.000000 -1.000000 0.000001
vn -0.000001 -1.000000 0.000000
vn 1.000000 0.000000 0.000000
vn 1.000000 0.000000 0.000000
vn 1.000000 0.000000 0.000000
vn 1.000000 0.000000 0.000000
vn -1.000000 0.000000 -0.000000
vn -1.000000 0.000000 0.000000
vn -1.000000 0.000000 0.000000
vn -1.000000 0.000001 0.000000
vn -1.000000 0.000000 0.000000
vn -1.000000 0.000000 0.000000
vn -1.000000 0.000000 0.000000
vn -1.000000 0.000000 0.000001
vn 0.000000 -1.000000 0.000000
vn 0.000000 -1.000000 0.000000
vn -0.000000 -1.000000 0.000000
vn 0.000000 -1.000000 0.000000
vn 1.000000 -0.000000 0.000000
vn 1.000000 0.000000 -0.000000
vn 1.000000 0.000000 -0.000000
vn 1.000000 0.000001 0.000000
vn -0.000001 1.000000 0.000000
vn -0.000000 1.000000 0.000000
vn -0.000000 1.000000 0.000000
vn -0.000001 1.000000 0.000000
vn -1.000000 0.000000 0.000000
vn -1.000000 0.000000 0.000000
vn -0.000000 1.000000 0.000000
vn -0.000000 1.000000 0.000000
vn 1.000000 0.000000 -0.000000
vn 1.000000 0.000000 -0.000000
vn -0.000000 -1.000000 0.000000
vn -0.000000 -1.000000 0.000000
vn 0.000001 0.000000 1.000000
vn 0.000000 0.000000 1.000000
vn 0.000000 0.000000 1.000000
vn 0.000000 0.000001 1.000000
vn -0.000000 1.000000 0.000000
vn 0.000000 1.000000 0.000000
vn 0.000000 1.000000 0.000000
vn -0.000001 1.000000 0.000000
vn -0.000000 1.000000 0.000000
vn -0.000000 1.000000 0.000000
vn -0.000000 1.000000 0.000000
vn -0.000000 1.000000 0.000000
vn 0.000000 1.000000 0.000000
vn -0.000000 1.000000 0.000000
vn 0.000000 0.000000 -1.000000
vn 0.000000 0.000000 -1.000000
vn 0.000000 0.000000 -1.000000
vn 0.000000 0.000000 -1.000000
vn 0.000000 -1.000000 0.000000
vn 0.000000 -1.000000 0.000000
vn 0.000001 -1.000000 0.000000
vn 0.000001 -1.000000 0.000000
vn 0.000000 -1.000000 0.000000
vn 0.000000 -1.000000 0.000000
vn 0.000000 -1.000000 0.000000
vn -0.000000 -1.000000 0.000000
vn 0.000000 -1.000000 0.000000
vn -0.000000 -1.000000 0.000000
vn 0.000000 0.000000 1.000000
vn 0.000000 0.000000 1.000000
vn -0.000000 1.000000 0.000000
vn -0.000000 1.000000 0.000000
vn 0.000000 1.000000 0.000000
vn 0.000000 1.000000 0.000000
vn 0.000000 1.000000 0.000000
vn 0.000000 1.000000 0.000000
vn 0.000000 1.000000 0.000000
vn 0.000000 1.000000 0.000000
vn 0.000000 1.000000 0.000000
vn 0.000000 1.000000 0.000000
vn 0.000000 0.000000 -1.000000
vn 0.000000 0.000000 -1.000000
vn -0.000000 -1.000000 0.000000
vn -0.000000 -1.000000 0.000000
vn 0.000000 -1.000000 0.000000
vn 0.000000 -1.000000 0.000000
vn 0.000000 -1.000000 0.000000
vn 0.000000 -1.000000 0.000000
vn 0.000000 -1.000000 0.000000
vn 0.000000 -1.000000 0.000000
vn 0.000000 -1.000000 0.000001
vn 0.000000 -1.000000 0.000001
vn 0.000000 1.000000 0.000000
vn 0.000000 1.000000 0.000000
vn 0.000000 -1.000000 0.000000
vn 0.000000 -1.000000 0.000000
vn 0.000000 -1.000000 0.000000
vn 0.000000 1.000000 0.000000
vn -1.000000 0.000000 0.000000
vn -1.000000 0.000000 0.000000
vn -1.000000 0.000000 0.000000
vn -1.000000 0.000000 0.000000
vn -1.000000 0.000000 -0.000000
vn -1.000000 0.000000 -0.000000
vn -1.000000 -0.000000 -0.000000
vn -1.000000 0.000000 0.000000
vn -1.000000 0.000000 0.000001
vn -1.000000 -0.000001 0.000000
vn 0.000000 0.000000 -1.000000
vn 0.000000 0.000000 -1.000000
vn 0.000000 0.000000 -1.000000
vn 0.000000 0.000000 -1.000000
vn 0.000000 -0.000000 -1.000000
vn 0.000000 -0.000000 -1.000000
vn 0.000000 -0.000000 -1.000000
vn 0.000000 -0.000000 -1.000000
vn 0.000000 0.000000 -1.000000
vn 0.000000 -0.000001 -1.000000
vn 1.000000 0.000000 0.000000
vn 1.000000 0.000000 0.000000
vn 1.000000 0.000000 0.000000
vn 1.000000 0.000000 0.000000
vn 1.000000 0.000000 0.000000
vn 1.000000 0.000000 0.000000
vn 1.000000 -0.000000 0.000000
vn 1.000000 -0.000000 0.000000
vn 1.000000 0.000000 0.000000
vn 1.000000 -0.000001 0.000000
vn 0.000000 0.000000 1.000000
vn 0.000000 -0.000000 1.000000
vn 0.000000 -0.000000 1.000000
vn 0.000000 0.000000 1.000000
vn 0.000000 0.000000 1.000000
vn 0.000000 0.000000 1.000000
vn 0.000000 0.000001 1.000000
vn 0.000000 0.000000 1.000000
vn 0.000000 -0.000000 1.000000
vn 0.000000 0.000001 1.000000
vn -1.000000 -0.000000 -0.000000
vn -1.000000 -0.000000 -0.000000
vn -1.000000 -0.000000 0.000000
vn -1.000000 -0.000000 0.000000
vn -1.000000 -0.000000 0.000000
vn -1.000000 -0.000000 0.000000
vn -1.000000 0.000000 0.000000
vn -1.000000 -0.000000 0.000000
vn -1.000000 0.000000 0.000001
vn -1.000000 0.000000 0.000001
vn 0.000000 -0.000000 -1.000000
vn 0.000000 -0.000000 -1.000000
vn 0.000000 0.000000 -1.000000
vn 0.000000 0.000000 -1.000000
vn 0.000000 0.000000 -1.000000
vn 0.000000 0.000000 -1.000000
vn 0.000000 0.000000 -1.000000
vn 0.000000 0.000000 -1.000000
vn 0.000000 0.000000 -1.000000
vn 0.000000 0.000000 -1.000000
vn 1.000000 -0.000000 0.000000
vn 1.000000 -0.000000 0.000000
vn 1.000000 0.000000 0.000000
vn 1.000000 0.000000 0.000000
vn 1.000000 0.000000 0.000000
vn 1.000000 0.000000 0.000000
vn 1.000000 0.000000 0.000000
vn 1.000000 0.000000 0.000000
vn 1.000000 0.000000 0.000000
vn 1.000000 0.000000 0.000000
vn 0.000000 -0.000000 1.000000
vn 0.000000 -0.000000 1.000000
vn 0.000000 0.000000 1.000000
vn 0.000000 0.000000 1.000000
vn 0.000000 0.000000 1.000000
vn 0.000000 0.000000 1.000000
vn 0.000000 0.000000 1.000000
vn 0.000000 0.000000 1.000000
vn 0.000000 -0.000000 1.000000
vn 0.000000 -0.000000 1.000000
vn -1.000000 -0.000000 0.000000
vn -1.000000 0.000000 0.000000
vn -1.000000 -0.000000 0.000000
vn 0.000000 0.000000 1.000000
vn 0.000000 0.000000 1.000000
vn 0.000000 0.000000 1.000000
vn 1.000000 0.000000 0.000000
vn 1.000000 0.000000 0.000000
vn 1.000000 0.000000 0.000000
vn 0.000000 0.000000 -1.000000
vn 0.000000 0.000000 -1.000000
vn 0.000000 0.000000 -1.000000
vn 0.743294 0.668965 0.000000
vn 0.743294 0.668965 0.000000
vn 0.743294 0.668965 0.000000
vn 0.743294 0.668965 0.000000
vn 0.000000 0.668965 -0.743294
vn 0.000000 0.668965 -0.743294
vn 0.000000 0.668965 -0.743294
vn 0.000000 0.668965 -0.743294
vn 0.743294 0.668965 0.000000
vn 0.743294 0.668965 0.000000
vn 0.743294 0.668965 0.000000
vn 0.743294 0.668965 0.000000
vn 0.000000 0.668964 0.743295
vn 0.000000 0.668964 0.743295
vn 0.000000 0.668964 0.743295
vn 0.000000 0.668964 0.743295
vn 0.000000 0.668965 -0.743294
vn 0.000000 0.668965 -0.743294
vn 0.000000 0.668965 -0.743294
vn 0.000000 0.668965 -0.743294
vn -0.743294 0.668965 0.000000
vn -0.743294 0.668965 0.000000
vn -0.743294 0.668965 0.000000
vn -0.743294 0.668965 0.000000
vn -0.743294 0.668965 0.000000
vn -0.743294 0.668965 0.000000
vn -0.743294 0.668965 0.000000
vn -0.743294 0.668965 0.000000
vn 0.000000 0.668965 0.743294
vn 0.000000 0.668965 0.743294
vn 0.000000 0.668965 0.743294
vn 0.000000 0.668965 0.743294
vn 0.743294 -0.668965 -0.000000
vn 0.743294 -0.668965 -0.000000
vn 0.743294 -0.668965 -0.000000
vn 0.743294 -0.668965 -0.000000
vn 0.000000 -0.668965 0.743294
vn 0.000000 -0.668965 0.743294
vn 0.000000 -0.668965 0.743294
vn 0.000000 -0.668965 0.743294
vn 0.743294 -0.668965 0.000000
vn 0.743294 -0.668965 0.000000
vn 0.743294 -0.668965 0.000000
vn 0.743294 -0.668965 0.000000
vn 0.000000 -0.668964 -0.743295
vn 0.000000 -0.668964 -0.743295
vn 0.000000 -0.668964 -0.743295
vn 0.000000 -0.668964 -0.743295
vn -0.743294 -0.668965 0.000000
vn -0.743294 -0.668965 0.000000
vn -0.743294 -0.668965 0.000000
vn -0.743294 -0.668965 0.000000
vn 0.000000 -0.668965 -0.743294
vn 0.000000 -0.668965 -0.743294
vn 0.000000 -0.668965 -0.743294
vn 0.000000 -0.668965 -0.743294
vn 0.000000 -0.668965 0.743294
vn 0.000000 -0.668965 0.743294
vn 0.000000 -0.668965 0.743294
vn 0.000000 -0.668965 0.743294
vn -0.743294 -0.668965 0.000000
vn -0.743294 -0.668965 0.000000
vn -0.743294 -0.668965 0.000000
vn -0.743294 -0.668965 0.000000
vn -0.668965 0.743294 0.000000
vn -0.668965 0.743294 0.000000
vn -0.668965 0.743294 0.000000
vn -0.668965 0.743294 0.000000
vn -0.668965 0.000000 -0.743294
vn -0.668965 0.000000 -0.743294
vn -0.668965 0.000000 -0.743294
vn -0.668965 0.000000 -0.743294
vn -0.668965 0.000000 0.743294
vn -0.668965 0.000000 0.743294
vn -0.668965 0.000000 0.743294
vn -0.668965 0.000000 0.743294
vn -0.668965 0.743294 -0.000000
vn -0.668965 0.743294 -0.000000
vn -0.668965 0.743294 -0.000000
vn -0.668965 0.743294 -0.000000
vn -0.668965 -0.743294 -0.000000
vn -0.668965 -0.743294 -0.000000
vn -0.668965 -0.743294 -0.000000
vn -0.668965 -0.743294 -0.000000
vn -0.668965 -0.000000 0.743294
vn -0.668965 -0.000000 0.743294
vn -0.668965 -0.000000 0.743294
vn -0.668965 -0.000000 0.743294
vn -0.668965 -0.743294 0.000000
vn -0.668965 -0.743294 0.000000
vn -0.668965 -0.743294 0.000000
vn -0.668965 -0.743294 0.000000
vn -0.668965 0.000000 -0.743294
vn -0.668965 0.000000 -0.743294
vn -0.668965 0.000000 -0.743294
vn -0.668965 0.000000 -0.743294
vn 0.000000 0.743294 -0.668965
vn 0.000000 0.743294 -0.668965
vn 0.000000 0.743294 -0.668965
vn 0.000000 0.743294 -0.668965
vn 0.743294 0.000000 -0.668965
vn 0.743294 0.000000 -0.668965
vn 0.743294 0.000000 -0.668965
vn 0.743294 0.000000 -0.668965
vn 0.000000 0.743294 -0.668965
vn 0.000000 0.743294 -0.668965
vn 0.000000 0.743294 -0.668965
vn 0.000000 0.743294 -0.668965
vn -0.743294 0.000000 -0.668965
vn -0.743294 0.000000 -0.668965
vn -0.743294 0.000000 -0.668965
vn -0.743294 0.000000 -0.668965
vn 0.000000 -0.743294 -0.668965
vn 0.000000 -0.743294 -0.668965
vn 0.000000 -0.743294 -0.668965
vn 0.000000 -0.743294 -0.668965
vn -0.743294 0.000000 -0.668965
vn -0.743294 0.000000 -0.668965
vn -0.743294 0.000000 -0.668965
vn -0.743294 0.000000 -0.668965
vn 0.743294 -0.000000 -0.668965
vn 0.743294 -0.000000 -0.668965
vn 0.743294 -0.000000 -0.668965
vn 0.743294 -0.000000 -0.668965
vn 0.000000 -0.743294 -0.668965
vn 0.000000 -0.743294 -0.668965
vn 0.000000 -0.743294 -0.668965
vn 0.000000 -0.743294 -0.668965
vn 0.668965 0.743294 -0.000000
vn 0.668965 0.743294 -0.000000
vn 0.668965 0.743294 -0.000000
vn 0.668965 0.743294 -0.000000
vn 0.668965 0.000000 0.743294
vn 0.668965 0.000000 0.743294
vn 0.668965 0.000000 0.743294
vn 0.668965 0.000000 0.743294
vn 0.668965 0.000000 -0.743294
vn 0.668965 0.000000 -0.743294
vn 0.668965 0.000000 -0.743294
vn 0.668965 0.000000 -0.743294
vn 0.668965 0.743294 0.000000
vn 0.668965 0.743294 0.000000
vn 0.668965 0.743294 0.000000
vn 0.668965 0.743294 0.000000
vn 0.668965 -0.743294 0.000000
vn 0.668965 -0.743294 0.000000
vn 0.668965 -0.743294 0.000000
vn 0.668965 -0.743294 0.000000
vn 0.668965 0.000000 -0.743294
vn 0.668965 0.000000 -0.743294
vn 0.668965 0.000000 -0.743294
vn 0.668965 0.000000 -0.743294
vn 0.668965 -0.743294 0.000000
vn 0.668965 -0.743294 0.000000
vn 0.668965 -0.743294 0.000000
vn 0.668965 -0.743294 0.000000
vn 0.668965 -0.000000 0.743294
vn 0.668965 -0.000000 0.743294
vn 0.668965 -0.000000 0.743294
vn 0.668965 -0.000000 0.743294
vn 0.000000 0.743294 0.668965
vn 0.000000 0.743294 0.668965
vn 0.000000 0.743294 0.668965
vn 0.000000 0.743294 0.668965
vn -0.743294 -0.000000 0.668965
vn -0.743294 -0.000000 0.668965
vn -0.743294 -0.000000 0.668965
vn -0.743294 -0.000000 0.668965
vn 0.743294 0.000000 0.668965
vn 0.743294 0.000000 0.668965
vn 0.743294 0.000000 0.668965
vn 0.743294 0.000000 0.668965
vn -0.000000 0.743294 0.668965
vn -0.000000 0.743294 0.668965
vn -0.000000 0.743294 0.668965
vn -0.000000 0.743294 0.668965
vn 0.000000 -0.743294 0.668965
vn 0.000000 -0.743294 0.668965
vn 0.000000 -0.743294 0.668965
vn 0.000000 -0.743294 0.668965
vn 0.743294 0.000000 0.668965
vn 0.743294 0.000000 0.668965
vn 0.743294 0.000000 0.668965
vn 0.743294 0.000000 0.668965
vn 0.000000 -0.743294 0.668965
vn 0.000000 -0.743294 0.668965
vn 0.000000 -0.743294 0.668965
vn 0.000000 -0.743294 0.668965
vn -0.743294 -0.000000 0.668965
vn -0.743294 -0.000000 0.668965
vn -0.743294 -0.000000 0.668965
vn -0.743294 -0.000000 0.668965
s 1
g pCube1
usemtl initialShadingGroup
f 1/1/1 29/50/2 76/107/3 61/90/4
s 2
f 3/3/5 30/52/6 31/53/7 17/32/8
s 3
f 65/95/9 66/96/10 35/57/11 7/7/12
s 4
f 18/34/13 38/60/14 29/51/15 1/9/16
s 5
f 2/2/17 19/36/18 72/103/19 73/104/20
s 6
f 61/90/21 62/91/22 18/33/23 1/1/24
f 7/13/25 13/23/26 64/93/27 65/94/28
s 4
f 7/7/29 35/57/30 36/58/31 13/24/32
s 5
f 69/100/33 70/101/34 16/30/35 8/11/36
s 2
f 14/26/37 33/55/38 34/56/39 5/5/40
s 6
f 63/92/41 64/93/27 13/23/26 10/17/42
s 2
f 9/16/43 32/54/44 33/55/38 14/26/37
s 5
f 70/101/34 71/102/45 11/20/46 16/30/35
s 4
f 13/24/32 36/58/31 37/59/47 10/18/48
s 6
f 62/91/22 63/92/41 10/17/42 18/33/23
s 4
f 10/18/48 37/59/47 38/60/14 18/34/13
s 5
f 71/102/45 72/103/19 19/36/18 11/20/46
s 2
f 17/32/8 31/53/7 32/54/44 9/16/43
s 1
f 73/104/49 74/105/50 42/64/51 2/2/52
s 2
f 40/62/53 41/63/54 4/4/55 20/37/56
f 39/61/57 40/62/53 20/37/56 12/21/58
f 48/71/59 39/61/57 12/21/58 15/27/60
f 47/70/61 48/71/59 15/27/60 6/6/62
s 3
f 46/69/63 68/98/64 69/99/65 8/8/66
s 4
f 45/68/67 46/69/68 8/8/69 16/29/70
f 44/67/71 45/68/67 16/29/70 11/19/72
f 43/66/73 44/67/71 11/19/72 19/35/74
f 42/65/75 43/66/73 19/35/74 2/10/76
s 1
f 75/106/77 76/107/3 29/50/2 21/39/78
s 2
f 31/53/7 30/52/6 22/41/79 23/42/80
s 15
f 94/126/81 93/127/82 95/128/83 96/43/84
f 97/129/85 94/126/81 96/43/84 98/130/86
s 2
f 34/56/39 33/55/38 24/44/87 25/45/88
s 3
f 35/57/11 66/96/10 67/97/89 26/46/90
s 4
f 36/58/31 35/57/30 26/46/91 27/47/92
s 16
f 103/131/93 102/132/94 104/133/95 105/48/96
f 106/134/97 103/131/93 105/48/96 107/135/98
s 4
f 29/51/15 38/60/14 28/49/99 21/40/100
s 15
f 96/43/84 95/128/83 99/136/101 100/137/102
s 2
f 23/42/80 22/41/79 41/63/54 40/62/53
s 1
f 74/105/50 75/106/77 21/39/78 42/64/51
s 4
f 21/40/100 28/49/99 43/66/73 42/65/75
s 16
f 107/135/98 105/48/96 108/138/103 109/139/104
f 105/48/96 104/133/95 110/140/105 108/138/103
s 4
f 27/47/92 26/46/91 46/69/68 45/68/67
s 3
f 26/46/90 67/97/89 68/98/64 46/69/63
s 2
f 25/45/88 24/44/87 48/71/59 47/70/61
s 15
f 98/130/86 96/43/84 100/137/102 101/141/106
s 6
f 17/31/107 80/112/108 81/113/109 3/3/110
f 9/15/111 79/111/112 80/112/108 17/31/107
f 14/25/113 78/110/114 79/111/112 9/15/111
f 77/108/115 78/110/114 14/25/113 5/14/116
s 3
f 5/5/117 34/56/118 92/125/119 77/109/120
f 91/124/121 92/125/119 34/56/118 25/45/122
f 90/123/123 91/124/121 25/45/122 47/70/124
f 89/121/125 90/123/123 47/70/124 6/6/126
s 5
f 15/28/127 88/120/128 89/122/129 6/12/130
f 12/22/131 87/119/132 88/120/128 15/28/127
f 20/38/133 86/118/134 87/119/132 12/22/131
f 85/117/135 86/118/134 20/38/133 4/4/136
s 1
f 41/63/137 84/116/138 85/117/139 4/4/140
f 22/41/141 83/115/142 84/116/138 41/63/137
f 30/52/143 82/114/144 83/115/142 22/41/141
f 81/113/145 82/114/144 30/52/143 3/3/146
s 6
f 49/72/147 50/73/148 62/91/22 61/90/21
s 21
f 111/144/149 112/74/150 113/142/151 114/143/152
f 112/74/150 115/145/153 116/146/154 113/142/151
s 6
f 65/94/28 64/93/27 51/75/155 52/76/156
s 3
f 52/77/157 53/78/158 66/96/10 65/95/9
s 22
f 121/147/159 120/148/160 122/149/161 123/79/162
f 124/150/163 121/147/159 123/79/162 125/151/164
s 3
f 69/99/65 68/98/64 54/80/165 55/81/166
s 5
f 55/82/167 56/83/168 70/101/34 69/100/33
s 23
f 129/154/169 130/84/170 131/152/171 132/153/172
f 130/84/170 133/155/173 134/156/174 131/152/171
s 5
f 73/104/20 72/103/19 57/85/175 58/86/176
s 1
f 58/86/177 59/87/178 74/105/50 73/104/49
s 24
f 138/159/179 139/88/180 140/157/181 141/158/182
f 139/88/180 142/160/183 143/161/184 140/157/181
s 1
f 61/90/4 76/107/3 60/89/185 49/72/186
s 6
f 52/76/156 51/75/155 78/110/114 77/108/115
s 21
f 118/162/187 117/163/188 115/145/153 112/74/150
f 119/164/189 118/162/187 112/74/150 111/144/149
s 6
f 81/113/109 80/112/108 50/73/148 49/72/147
s 1
f 49/72/186 60/89/185 82/114/144 81/113/145
s 24
f 145/165/190 144/166/191 142/160/183 139/88/180
f 146/167/192 145/165/190 139/88/180 138/159/179
s 1
f 85/117/139 84/116/138 59/87/178 58/86/177
s 5
f 58/86/176 57/85/175 86/118/134 85/117/135
s 23
f 136/168/193 135/169/194 133/155/173 130/84/170
f 137/170/195 136/168/193 130/84/170 129/154/169
s 5
f 89/122/129 88/120/128 56/83/168 55/82/167
s 3
f 55/81/166 54/80/165 90/123/123 89/121/125
s 22
f 125/151/164 123/79/162 126/171/196 127/172/197
f 123/79/162 122/149/161 128/173/198 126/171/196
s 3
f 77/109/120 92/125/119 53/78/158 52/77/157
s off
f 32/54/199 31/53/200 93/127/201 94/126/202
f 31/53/203 23/42/204 95/128/205 93/127/206
f 33/55/207 32/54/208 94/126/209 97/129/210
f 24/44/211 33/55/212 97/129/213 98/130/214
f 23/59/215 40/58/216 99/132/217 95/131/218
f 40/58/219 39/47/220 100/133/221 99/132/222
f 39/60/223 48/59/224 101/131/225 100/134/226
f 48/49/227 24/60/228 98/134/229 101/135/230
f 37/42/231 36/62/232 102/136/233 103/128/234
f 36/62/235 27/61/236 104/137/237 102/136/238
f 38/67/239 37/66/240 103/139/241 106/138/242
f 28/66/243 38/49/244 106/135/245 107/139/246
f 44/47/247 43/68/248 109/140/249 108/133/250
f 43/68/251 28/67/252 107/138/253 109/140/254
f 27/61/255 45/71/256 110/141/257 104/137/258
f 45/71/259 44/44/260 108/130/261 110/141/262
f 63/92/263 62/91/264 114/143/265 113/142/266
f 62/91/267 50/73/268 111/144/269 114/143/270
f 51/75/271 64/93/272 116/146/273 115/145/274
f 64/93/275 63/92/276 113/142/277 116/146/278
f 79/97/279 78/96/280 117/148/281 118/147/282
f 78/96/283 51/78/284 115/149/285 117/148/286
f 80/98/287 79/97/288 118/147/289 119/150/290
f 50/80/291 80/98/292 119/150/293 111/151/294
f 67/102/295 66/101/296 120/153/297 121/152/298
f 66/101/299 53/83/300 122/154/301 120/153/302
f 68/85/303 67/103/304 121/156/305 124/155/306
f 54/103/307 68/102/308 124/152/309 125/156/310
f 91/106/311 90/105/312 127/158/313 126/157/314
f 90/105/315 54/87/316 125/159/317 127/158/318
f 53/89/319 92/107/320 128/161/321 122/160/322
f 92/107/323 91/106/324 126/157/325 128/161/326
f 71/111/327 70/110/328 132/163/329 131/162/330
f 70/110/331 56/75/332 129/145/333 132/163/334
f 57/112/335 72/111/336 134/162/337 133/164/338
f 72/73/339 71/112/340 131/164/341 134/144/342
f 87/115/343 86/114/344 135/166/345 136/165/346
f 86/114/347 57/89/348 133/160/349 135/166/350
f 88/116/351 87/115/352 136/165/353 137/167/354
f 56/87/355 88/116/356 137/167/357 129/159/358
f 75/119/359 74/118/360 141/169/361 140/168/362
f 74/118/363 59/85/364 138/155/365 141/169/366
f 60/120/367 76/119/368 143/168/369 142/170/370
f 76/83/371 75/120/372 140/170/373 143/154/374
f 83/124/375 82/123/376 144/172/377 145/171/378
f 82/123/379 60/80/380 142/151/381 144/172/382
f 84/78/383 83/125/384 145/173/385 146/149/386
f 59/125/387 84/124/388 146/171/389 138/173/390
g default
v 0.881344 0.561804 -1.082183
v 1.093379 0.758020 -1.082183
v -1.105300 2.708617 -1.082183
v -0.893264 2.904832 -1.082183
v -1.105300 2.708617 -1.143653
v -0.893264 2.904832 -1.143653
v 0.881344 0.561804 -1.143653
v 1.093379 0.758020 -1.143653
vt 0.375000 0.000000
vt 0.625000 0.000000
vt 0.375000 0.250000
vt 0.625000 0.250000
vt 0.375000 0.500000
vt 0.625000 0.500000
vt 0.375000 0.750000
vt 0.625000 0.750000
vt 0.375000 1.000000
vt 0.625000 1.000000
vt 0.875000 0.000000
vt 0.875000 0.250000
vt 0.125000 0.000000
vt 0.125000 0.250000
vn 0.000000 0.000000 1.000000
vn 0.000000 0.000000 1.000000
vn 0.000000 0.000000 1.000000
vn 0.000000 0.000000 1.000000
vn -0.679197 0.733956 0.000000
vn -0.679197 0.733956 0.000000
vn -0.679197 0.733956 0.000000
vn -0.679197 0.733956 0.000000
vn 0.000000 0.000000 -1.000000
vn 0.000000 0.000000 -1.000000
vn 0.000000 0.000000 -1.000000
vn 0.000000 0.000000 -1.000000
vn 0.679197 -0.733956 0.000000
vn 0.679197 -0.733956 0.000000
vn 0.679197 -0.733956 0.000000
vn 0.679197 -0.733956 0.000000
vn 0.733956 0.679197 0.000000
vn 0.733956 0.679197 0.000000
vn 0.733956 0.679197 0.000000
vn 0.733956 0.679197 0.000000
vn -0.733956 -0.679197 0.000000
vn -0.733956 -0.679197 0.000000
vn -0.733956 -0.679197 0.000000
vn -0.733956 -0.679197 0.000000
s off
g pCube2
usemtl initialShadingGroup
f 147/174/391 148/175/392 150/177/393 149/176/394
f 149/176/395 150/177/396 152/179/397 151/178/398
f 151/178/399 152/179/400 154/181/401 153/180/402
f 153/180/403 154/181/404 148/183/405 147/182/406
f 148/175/407 154/184/408 152/185/409 150/177/410
f 153/186/411 147/174/412 149/176/413 151/187/414
g default
v 1.142825 2.649859 -1.049855
v 0.941329 2.856882 -1.049855
v -0.953250 0.609754 -1.049855
v -1.154746 0.816778 -1.049855
v -0.953250 0.609754 -1.111324
v -1.154746 0.816778 -1.111324
v 1.142825 2.649859 -1.111324
v 0.941329 2.856882 -1.111324
vt 0.375000 0.000000
vt 0.625000 0.000000
vt 0.375000 0.250000
vt 0.625000 0.250000
vt 0.375000 0.500000
vt 0.625000 0.500000
vt 0.375000 0.750000
vt 0.625000 0.750000
vt 0.375000 1.000000
vt 0.625000 1.000000
vt 0.875000 0.000000
vt 0.875000 0.250000
vt 0.125000 0.000000
vt 0.125000 0.250000
vn 0.000000 0.000000 1.000000
vn 0.000000 0.000000 1.000000
vn 0.000000 0.000000 1.000000
vn 0.000000 0.000000 1.000000
vn -0.716610 -0.697474 0.000000
vn -0.716610 -0.697474 0.000000
vn -0.716610 -0.697474 0.000000
vn -0.716610 -0.697474 0.000000
vn -0.000000 0.000000 -1.000000
vn -0.000000 0.000000 -1.000000
vn -0.000000 0.000000 -1.000000
vn -0.000000 0.000000 -1.000000
vn 0.716610 0.697474 0.000000
vn 0.716610 0.697474 0.000000
vn 0.716610 0.697474 0.000000
vn 0.716610 0.697474 0.000000
vn -0.697474 0.716610 0.000000
vn -0.697474 0.716610 0.000000
vn -0.697474 0.716610 0.000000
vn -0.697474 0.716610 0.000000
vn 0.697474 -0.716610 0.000000
vn 0.697474 -0.716610 0.000000
vn 0.697474 -0.716610 0.000000
vn 0.697474 -0.716610 0.000000
s off
g pCube3
usemtl initialShadingGroup
f 155/188/415 156/189/416 158/191/417 157/190/418
f 157/190/419 158/191/420 160/193/421 159/192/422
f 159/192/423 160/193/424 162/195/425 161/194/426
f 161/194/427 162/195/428 156/197/429 155/196/430
f 156/189/431 162/198/432 160/199/433 158/191/434
f 161/200/435 155/188/436 157/190/437 159/201/438
g default
v 1.142825 2.649859 1.166809
v 0.941329 2.856882 1.166809
v -0.953250 0.609754 1.166809
v -1.154746 0.816778 1.166809
v -0.953250 0.609754 1.105339
v -1.154746 0.816778 1.105339
v 1.142825 2.649859 1.105339
v 0.941329 2.856882 1.105339
vt 0.375000 0.000000
vt 0.625000 0.000000
vt 0.375000 0.250000
vt 0.625000 0.250000
vt 0.375000 0.500000
vt 0.625000 0.500000
vt 0.375000 0.750000
vt 0.625000 0.750000
vt 0.375000 1.000000
vt 0.625000 1.000000
vt 0.875000 0.000000
vt 0.875000 0.250000
vt 0.125000 0.000000
vt 0.125000 0.250000
vn 0.000000 0.000000 1.000000
vn 0.000000 0.000000 1.000000
vn 0.000000 0.000000 1.000000
vn 0.000000 0.000000 1.000000
vn -0.716610 -0.697474 0.000000
vn -0.716610 -0.697474 0.000000
vn -0.716610 -0.697474 0.000000
vn -0.716610 -0.697474 0.000000
vn -0.000000 0.000000 -1.000000
vn -0.000000 0.000000 -1.000000
vn -0.000000 0.000000 -1.000000
vn -0.000000 0.000000 -1.000000
vn 0.716610 0.697474 0.000000
vn 0.716610 0.697474 0.000000
vn 0.716610 0.697474 0.000000
vn 0.716610 0.697474 0.000000
vn -0.697474 0.716610 0.000000
vn -0.697474 0.716610 0.000000
vn -0.697474 0.716610 0.000000
vn -0.697474 0.716610 0.000000
vn 0.697474 -0.716610 0.000000
vn 0.697474 -0.716610 0.000000
vn 0.697474 -0.716610 0.000000
vn 0.697474 -0.716610 0.000000
s off
g pCube4
usemtl initialShadingGroup
f 163/202/439 164/203/440 166/205/441 165/204/442
f 165/204/443 166/205/444 168/207/445 167/206/446
f 167/206/447 168/207/448 170/209/449 169/208/450
f 169/208/451 170/209/452 164/211/453 163/210/454
f 164/203/455 170/212/456 168/213/457 166/205/458
f 169/214/459 163/202/460 165/204/461 167/215/462
g default
v 0.881344 0.561804 1.134480
v 1.093379 0.758020 1.134480
v -1.105300 2.708617 1.134480
v -0.893264 2.904832 1.134480
v -1.105300 2.708617 1.073011
v -0.893264 2.904832 1.073011
v 0.881344 0.561804 1.073011
v 1.093379 0.758020 1.073011
vt 0.375000 0.000000
vt 0.625000 0.000000
vt 0.375000 0.250000
vt 0.625000 0.250000
vt 0.375000 0.500000
vt 0.625000 0.500000
vt 0.375000 0.750000
vt 0.625000 0.750000
vt 0.375000 1.000000
vt 0.625000 1.000000
vt 0.875000 0.000000
vt 0.875000 0.250000
vt 0.125000 0.000000
vt 0.125000 0.250000
vn 0.000000 0.000000 1.000000
vn 0.000000 0.000000 1.000000
vn 0.000000 0.000000 1.000000
vn 0.000000 0.000000 1.000000
vn -0.679197 0.733956 0.000000
vn -0.679197 0.733956 0.000000
vn -0.679197 0.733956 0.000000
vn -0.679197 0.733956 0.000000
vn 0.000000 0.000000 -1.000000
vn 0.000000 0.000000 -1.000000
vn 0.000000 0.000000 -1.000000
vn 0.000000 0.000000 -1.000000
vn 0.679197 -0.733956 0.000000
vn 0.679197 -0.733956 0.000000
vn 0.679197 -0.733956 0.000000
vn 0.679197 -0.733956 0.000000
vn 0.733956 0.679197 0.000000
vn 0.733956 0.679197 0.000000
vn 0.733956 0.679197 0.000000
vn 0.733956 0.679197 0.000000
vn -0.733956 -0.679197 0.000000
vn -0.733956 -0.679197 0.000000
vn -0.733956 -0.679197 0.000000
vn -0.733956 -0.679197 0.000000
s off
g pCube5
usemtl initialShadingGroup
f 171/216/463 172/217/464 174/219/465 173/218/466
f 173/218/467 174/219/468 176/221/469 175/220/470
f 175/220/471 176/221/472 178/223/473 177/222/474
f 177/222/475 178/223/476 172/225/477 171/224/478
f 172/217/479 178/226/480 176/227/481 174/219/482
f 177/228/483 171/216/484 173/218/485 175/229/486
g default
v 1.166809 2.649859 -1.142825
v 1.166809 2.856882 -0.941329
v 1.166809 0.609754 0.953250
v 1.166809 0.816778 1.154746
v 1.105339 0.609754 0.953250
v 1.105339 0.816778 1.154746
v 1.105339 2.649859 -1.142825
v 1.105339 2.856882 -0.941329
vt 0.375000 0.000000
vt 0.625000 0.000000
vt 0.375000 0.250000
vt 0.625000 0.250000
vt 0.375000 0.500000
vt 0.625000 0.500000
vt 0.375000 0.750000
vt 0.625000 0.750000
vt 0.375000 1.000000
vt 0.625000 1.000000
vt 0.875000 0.000000
vt 0.875000 0.250000
vt 0.125000 0.000000
vt 0.125000 0.250000
vn 1.000000 0.000000 0.000000
vn 1.000000 0.000000 0.000000
vn 1.000000 0.000000 0.000000
vn 1.000000 0.000000 0.000000
vn 0.000000 -0.697474 0.716610
vn 0.000000 -0.697474 0.716610
vn 0.000000 -0.697474 0.716610
vn 0.000000 -0.697474 0.716610
vn -1.000000 0.000000 0.000000
vn -1.000000 0.000000 0.000000
vn -1.000000 0.000000 0.000000
vn -1.000000 0.000000 0.000000
vn 0.000000 0.697474 -0.716610
vn 0.000000 0.697474 -0.716610
vn 0.000000 0.697474 -0.716610
vn 0.000000 0.697474 -0.716610
vn 0.000000 0.716610 0.697474
vn 0.000000 0.716610 0.697474
vn 0.000000 0.716610 0.697474
vn 0.000000 0.716610 0.697474
vn 0.000000 -0.716610 -0.697474
vn 0.000000 -0.716610 -0.697474
vn 0.000000 -0.716610 -0.697474
vn 0.000000 -0.716610 -0.697474
s off
g pCube6
usemtl initialShadingGroup
f 179/230/487 180/231/488 182/233/489 181/232/490
f 181/232/491 182/233/492 184/235/493 183/234/494
f 183/234/495 184/235/496 186/237/497 185/236/498
f 185/236/499 186/237/500 180/239/501 179/238/502
f 180/231/503 186/240/504 184/241/505 182/233/506
f 185/242/507 179/230/508 181/232/509 183/243/510
g default
v 1.134480 0.561804 -0.881344
v 1.134480 0.758020 -1.093379
v 1.134480 2.708617 1.105300
v 1.134480 2.904832 0.893264
v 1.073011 2.708617 1.105300
v 1.073011 2.904832 0.893264
v 1.073011 0.561804 -0.881344
v 1.073011 0.758020 -1.093379
vt 0.375000 0.000000
vt 0.625000 0.000000
vt 0.375000 0.250000
vt 0.625000 0.250000
vt 0.375000 0.500000
vt 0.625000 0.500000
vt 0.375000 0.750000
vt 0.625000 0.750000
vt 0.375000 1.000000
vt 0.625000 1.000000
vt 0.875000 0.000000
vt 0.875000 0.250000
vt 0.125000 0.000000
vt 0.125000 0.250000
vn 1.000000 0.000000 0.000000
vn 1.000000 0.000000 0.000000
vn 1.000000 0.000000 0.000000
vn 1.000000 0.000000 0.000000
vn 0.000000 0.733956 0.679197
vn 0.000000 0.733956 0.679197
vn 0.000000 0.733956 0.679197
vn 0.000000 0.733956 0.679197
vn -1.000000 0.000000 0.000000
vn -1.000000 0.000000 0.000000
vn -1.000000 0.000000 0.000000
vn -1.000000 0.000000 0.000000
vn 0.000000 -0.733956 -0.679197
vn 0.000000 -0.733956 -0.679197
vn 0.000000 -0.733956 -0.679197
vn 0.000000 -0.733956 -0.679197
vn 0.000000 0.679197 -0.733956
vn 0.000000 0.679197 -0.733956
vn 0.000000 0.679197 -0.733956
vn 0.000000 0.679197 -0.733956
vn 0.000000 -0.679197 0.733956
vn 0.000000 -0.679197 0.733956
vn 0.000000 -0.679197 0.733956
vn 0.000000 -0.679197 0.733956
s off
g pCube7
usemtl initialShadingGroup
f 187/244/511 188/245/512 190/247/513 189/246/514
f 189/246/515 190/247/516 192/249/517 191/248/518
f 191/248/519 192/249/520 194/251/521 193/250/522
f 193/250/523 194/251/524 188/253/525 187/252/526
f 188/245/527 194/254/528 192/255/529 190/247/530
f 193/256/531 187/244/532 189/246/533 191/257/534
g default
v 1.142825 2.808528 0.900498
v 0.941329 2.808528 1.107522
v -0.953250 2.808528 -1.139606
v -1.154746 2.808528 -0.932582
v -0.953250 2.869997 -1.139606
v -1.154746 2.869997 -0.932582
v 1.142825 2.869997 0.900498
v 0.941329 2.869997 1.107522
vt 0.375000 0.000000
vt 0.625000 0.000000
vt 0.375000 0.250000
vt 0.625000 0.250000
vt 0.375000 0.500000
vt 0.625000 0.500000
vt 0.375000 0.750000
vt 0.625000 0.750000
vt 0.375000 1.000000
vt 0.625000 1.000000
vt 0.875000 0.000000
vt 0.875000 0.250000
vt 0.125000 0.000000
vt 0.125000 0.250000
vn -0.000000 -1.000000 0.000000
vn -0.000000 -1.000000 0.000000
vn -0.000000 -1.000000 0.000000
vn -0.000000 -1.000000 0.000000
vn -0.716610 0.000000 -0.697474
vn -0.716610 0.000000 -0.697474
vn -0.716610 0.000000 -0.697474
vn -0.716610 0.000000 -0.697474
vn 0.000000 1.000000 -0.000000
vn 0.000000 1.000000 -0.000000
vn 0.000000 1.000000 -0.000000
vn 0.000000 1.000000 -0.000000
vn 0.716610 -0.000000 0.697474
vn 0.716610 -0.000000 0.697474
vn 0.716610 -0.000000 0.697474
vn 0.716610 -0.000000 0.697474
vn -0.697474 0.000000 0.716610
vn -0.697474 0.000000 0.716610
vn -0.697474 0.000000 0.716610
vn -0.697474 0.000000 0.716610
vn 0.697474 -0.000000 -0.716610
vn 0.697474 -0.000000 -0.716610
vn 0.697474 -0.000000 -0.716610
vn 0.697474 -0.000000 -0.716610
s off
g pCube8
usemtl initialShadingGroup
f 195/258/535 196/259/536 198/261/537 197/260/538
f 197/260/539 198/261/540 200/263/541 199/262/542
f 199/262/543 200/263/544 202/265/545 201/264/546
f 201/264/547 202/265/548 196/267/549 195/266/550
f 196/259/551 202/268/552 200/269/553 198/261/554
f 201/270/555 195/258/556 197/260/557 199/271/558
g default
v 0.881344 2.840856 -1.187556
v 1.093379 2.840856 -0.991340
v -1.105300 2.840856 0.959257
v -0.893264 2.840856 1.155472
v -1.105300 2.902326 0.959257
v -0.893264 2.902326 1.155472
v 0.881344 2.902326 -1.187556
v 1.093379 2.902326 -0.991340
vt 0.375000 0.000000
vt 0.625000 0.000000
vt 0.375000 0.250000
vt 0.625000 0.250000
vt 0.375000 0.500000
vt 0.625000 0.500000
vt 0.375000 0.750000
vt 0.625000 0.750000
vt 0.375000 1.000000
vt 0.625000 1.000000
vt 0.875000 0.000000
vt 0.875000 0.250000
vt 0.125000 0.000000
vt 0.125000 0.250000
vn 0.000000 -1.000000 0.000000
vn 0.000000 -1.000000 0.000000
vn 0.000000 -1.000000 0.000000
vn 0.000000 -1.000000 0.000000
vn -0.679197 0.000000 0.733956
vn -0.679197 0.000000 0.733956
vn -0.679197 0.000000 0.733956
vn -0.679197 0.000000 0.733956
vn 0.000000 1.000000 0.000000
vn 0.000000 1.000000 0.000000
vn 0.000000 1.000000 0.000000
vn 0.000000 1.000000 0.000000
vn 0.679197 -0.000000 -0.733956
vn 0.679197 -0.000000 -0.733956
vn 0.679197 -0.000000 -0.733956
vn 0.679197 -0.000000 -0.733956
vn 0.733956 0.000000 0.679197
vn 0.733956 0.000000 0.679197
vn 0.733956 0.000000 0.679197
vn 0.733956 0.000000 0.679197
vn -0.733956 0.000000 -0.679197
vn -0.733956 0.000000 -0.679197
vn -0.733956 0.000000 -0.679197
vn -0.733956 0.000000 -0.679197
s off
g pCube9
usemtl initialShadingGroup
f 203/272/559 204/273/560 206/275/561 205/274/562
f 205/274/563 206/275/564 208/277/565 207/276/566
f 207/276/567 208/277/568 210/279/569 209/278/570
f 209/278/571 210/279/572 204/281/573 203/280/574
f 204/273/575 210/282/576 208/283/577 206/275/578
f 209/284/579 203/272/580 205/274/581 207/285/582
g default
v -1.166809 2.649859 1.142825
v -1.166809 2.856882 0.941329
v -1.166809 0.609754 -0.953250
v -1.166809 0.816778 -1.154746
v -1.105339 0.609754 -0.953250
v -1.105339 0.816778 -1.154746
v -1.105339 2.649859 1.142825
v -1.105339 2.856882 0.941329
vt 0.375000 0.000000
vt 0.625000 0.000000
vt 0.375000 0.250000
vt 0.625000 0.250000
vt 0.375000 0.500000
vt 0.625000 0.500000
vt 0.375000 0.750000
vt 0.625000 0.750000
vt 0.375000 1.000000
vt 0.625000 1.000000
vt 0.875000 0.000000
vt 0.875000 0.250000
vt 0.125000 0.000000
vt 0.125000 0.250000
vn -1.000000 -0.000000 -0.000000
vn -1.000000 -0.000000 -0.000000
vn -1.000000 -0.000000 -0.000000
vn -1.000000 -0.000000 -0.000000
vn 0.000000 -0.697474 -0.716610
vn 0.000000 -0.697474 -0.716610
vn 0.000000 -0.697474 -0.716610
vn 0.000000 -0.697474 -0.716610
vn 1.000000 0.000000 0.000000
vn 1.000000 0.000000 0.000000
vn 1.000000 0.000000 0.000000
vn 1.000000 0.000000 0.000000
vn -0.000000 0.697474 0.716610
vn -0.000000 0.697474 0.716610
vn -0.000000 0.697474 0.716610
vn -0.000000 0.697474 0.716610
vn 0.000000 0.716610 -0.697474
vn 0.000000 0.716610 -0.697474
vn 0.000000 0.716610 -0.697474
vn 0.000000 0.716610 -0.697474
vn -0.000000 -0.716610 0.697474
vn -0.000000 -0.716610 0.697474
vn -0.000000 -0.716610 0.697474
vn -0.000000 -0.716610 0.697474
s off
g pCube10
usemtl initialShadingGroup
f 211/286/583 212/287/584 214/289/585 213/288/586
f 213/288/587 214/289/588 216/291/589 215/290/590
f 215/290/591 216/291/592 218/293/593 217/292/594
f 217/292/595 218/293/596 212/295/597 211/294/598
f 212/287/599 218/296/600 216/297/601 214/289/602
f 217/298/603 211/286/604 213/288/605 215/299/606
g default
v -1.134480 0.561804 0.881344
v -1.134480 0.758020 1.093379
v -1.134480 2.708617 -1.105300
v -1.134480 2.904832 -0.893264
v -1.073011 2.708617 -1.105300
v -1.073011 2.904832 -0.893264
v -1.073011 0.561804 0.881344
v -1.073011 0.758020 1.093379
vt 0.375000 0.000000
vt 0.625000 0.000000
vt 0.375000 0.250000
vt 0.625000 0.250000
vt 0.375000 0.500000
vt 0.625000 0.500000
vt 0.375000 0.750000
vt 0.625000 0.750000
vt 0.375000 1.000000
vt 0.625000 1.000000
vt 0.875000 0.000000
vt 0.875000 0.250000
vt 0.125000 0.000000
vt 0.125000 0.250000
vn -1.000000 0.000000 -0.000000
vn -1.000000 0.000000 -0.000000
vn -1.000000 0.000000 -0.000000
vn -1.000000 0.000000 -0.000000
vn 0.000000 0.733956 -0.679197
vn 0.000000 0.733956 -0.679197
vn 0.000000 0.733956 -0.679197
vn 0.000000 0.733956 -0.679197
vn 1.000000 -0.000000 0.000000
vn 1.000000 -0.000000 0.000000
vn 1.000000 -0.000000 0.000000
vn 1.000000 -0.000000 0.000000
vn -0.000000 -0.733956 0.679197
vn -0.000000 -0.733956 0.679197
vn -0.000000 -0.733956 0.679197
vn -0.000000 -0.733956 0.679197
vn -0.000000 0.679197 0.733956
vn -0.000000 0.679197 0.733956
vn -0.000000 0.679197 0.733956
vn -0.000000 0.679197 0.733956
vn 0.000000 -0.679197 -0.733956
vn 0.000000 -0.679197 -0.733956
vn 0.000000 -0.679197 -0.733956
vn 0.000000 -0.679197 -0.733956
s off
g pCube11
usemtl initialShadingGroup
f 219/300/607 220/301/608 222/303/609 221/302/610
f 221/302/611 222/303/612 224/305/613 223/304/614
f 223/304/615 224/305/616 226/307/617 225/306/618
f 225/306/619 226/307/620 220/309/621 219/308/622
f 220/301/623 226/310/624 224/311/625 222/303/626
f 225/312/627 219/300/628 221/302/629 223/313/630
